<svg xmlns="http://www.w3.org/2000/svg" viewBox="0 0 177.98 175.45"><defs><style>.cls-1,.cls-2{fill:none;}.cls-1,.cls-2,.cls-4{stroke:#fff;stroke-miterlimit:10;}.cls-1{stroke-width:3.18px;}.cls-2{stroke-width:3.76px;}.cls-3,.cls-4{fill:#fff;}.cls-4{stroke-width:0.25px;}</style></defs><title>build_your_cabinet</title><g id="Layer_2" data-name="Layer 2"><g id="Layer_1-2" data-name="Layer 1"><rect class="cls-1" x="1.59" y="43.7" width="174.8" height="88.53"/><polygon class="cls-2" points="88.89 2.26 27.38 43.19 150.41 43.19 88.89 2.26"/><path class="cls-3" d="M41.93,113.94c1.39,0,2.7-.9,2.7-3.24v-.31c0-.68.22-.9.9-.9h2.65c.68,0,1,.54.9,1.17-.4,5.35-3.64,7.42-7.15,7.42-3.74,0-7.2-2.34-7.2-8.55V94.77c0-6.21,3.46-8.54,7.2-8.54,3.51,0,6.75,2.07,7.15,7.42.05.63-.22,1.17-.9,1.17H45.53c-.68,0-.9-.22-.9-.9V93.6c0-2.33-1.31-3.24-2.7-3.24s-2.7.91-2.7,3.24v17.1C39.23,113,40.53,113.94,41.93,113.94Z"/><path class="cls-3" d="M64.38,117.9c-.58,0-.85,0-1-.67L63,114.8c-.18-.9-.18-.9-1-.9H58c-.85,0-.85,0-1,.9l-.41,2.43c-.13.67-.4.67-1,.67h-2.7c-.45,0-.9,0-.76-.76l5.67-29.92c.13-.68.27-.82,1-.82h2.43c.72,0,.85.14,1,.82l5.67,29.92c.13.76-.32.76-.77.76ZM58,108.77c-.14.9-.14.9.76.9h2.52c.9,0,.9,0,.77-.9L60.15,97.83a.18.18,0,0,0-.36,0Z"/><path class="cls-3" d="M83.19,101c-.18.22-.18.31,0,.54a9.5,9.5,0,0,1,1.8,6.16v1.62c0,6.21-3.46,8.55-7.2,8.55h-5.4c-.67,0-.9-.22-.9-.9V87.31c0-.68.23-.91.9-.91h5.4c3.74,0,7.2,2.34,7.2,8.55A9.41,9.41,0,0,1,83.19,101Zm-6.3-1.85h.9c1.53-.09,2.7-1,2.7-3.24V93.87c0-2.34-1.3-3.23-2.7-3.23h-.9c-.9,0-.9,0-.9.89v6.71C76,99.18,76,99.18,76.89,99.18ZM76,112.77c0,.9,0,.9.9.9h.9c1.4,0,2.7-.9,2.7-3.24v-3.78c0-2.34-1.3-3.24-2.7-3.24H76.44c-.45,0-.45.23-.45.9Z"/><path class="cls-3" d="M92.64,117.9h-2.7c-.67,0-.9-.22-.9-.9V87.31c0-.68.23-.91.9-.91h2.7c.68,0,.9.23.9.91V117C93.54,117.68,93.32,117.9,92.64,117.9Z"/><path class="cls-3" d="M111.54,117.9a.82.82,0,0,1-.9-.54L102.9,99.23c-.14-.32-.36-.18-.36,0V117c0,.68-.22.9-.9.9h-2.7c-.67,0-.9-.22-.9-.9V87.31c0-.68.23-.91.9-.91h2c.5,0,.72.09.9.59l7.74,18.13c.14.27.36.18.36,0V87.31c0-.68.23-.91.9-.91h2.7c.68,0,.9.23.9.91V117c0,.68-.22.9-.9.9Z"/><path class="cls-3" d="M119,117V87.31c0-.68.23-.91.9-.91h9.5c.67,0,.9.23.9.91v2.42c0,.68-.23.91-.9.91h-5c-.9,0-.9,0-.9.89v6.75c0,.9,0,.9.9.9h5c.67,0,.9.23.9.9v2.43c0,.68-.23.9-.9.9h-5c-.9,0-.9,0-.9.9v8.46c0,.9,0,.9.9.9h5c.67,0,.9.23.9.9V117c0,.68-.23.9-.9.9h-9.5C119.19,117.9,119,117.68,119,117Z"/><path class="cls-3" d="M133.63,86.4h11.7c.68,0,.9.23.9.91v2.42c0,.68-.22.91-.9.91h-2.7c-.9,0-.9,0-.9.89V117c0,.68-.22.9-.9.9h-2.7c-.67,0-.9-.22-.9-.9V91.53c0-.89,0-.89-.85-.89h-2.75c-.67,0-.9-.23-.9-.91V87.31C132.73,86.63,133,86.4,133.63,86.4Z"/><path class="cls-4" d="M6.74,77.3c13.64-.74,27.29-1.13,40.93-1.4,6.82-.16,13.64-.2,20.46-.3l20.47-.1,20.46.1c6.82.1,13.64.13,20.47.3,13.64.26,27.28.65,40.92,1.4-13.64.75-27.28,1.14-40.92,1.4-6.83.17-13.65.2-20.47.3l-20.46.1L68.13,79c-6.82-.1-13.64-.14-20.46-.3C34,78.43,20.38,78,6.74,77.3Z"/><path class="cls-3" d="M42.5,68a3.55,3.55,0,0,1-2.49-.8,2.94,2.94,0,0,1-.87-2.27,3.78,3.78,0,0,1,0-.67c0-.22.07-.46.12-.7l2.56-12,3.56-.48-1.16,5.4a6.16,6.16,0,0,1,1-.52,3,3,0,0,1,1-.15,2.43,2.43,0,0,1,2.13,1,5.46,5.46,0,0,1,.7,3.08,10.36,10.36,0,0,1-.43,2.91,9,9,0,0,1-1.2,2.59A5.72,5.72,0,0,1,42.5,68Zm.07-3.43a1,1,0,0,0,.32.83,1.4,1.4,0,0,0,1,.28c.72,0,1.37-.63,1.95-1.9a9.56,9.56,0,0,0,.86-4,3.49,3.49,0,0,0-.35-1.66,1,1,0,0,0-.92-.65,3.07,3.07,0,0,0-.82.12,1.28,1.28,0,0,0-.6.31L42.64,64a2.93,2.93,0,0,1,0,.29A2.46,2.46,0,0,0,42.57,64.58Z"/><path class="cls-3" d="M54.23,65.69a1.48,1.48,0,0,0,1.12-.54,4.09,4.09,0,0,0,.8-1.58l1.63-7.7h3.46L59.51,64c0,.14,0,.28-.07.4a2.23,2.23,0,0,0,0,.37.87.87,0,0,0,.22.68,1.13,1.13,0,0,0,.76.21,1.51,1.51,0,0,0,1.13-.56,3.93,3.93,0,0,0,.81-1.56h1a7.89,7.89,0,0,1-2,3.33A4.09,4.09,0,0,1,58.53,68a2.33,2.33,0,0,1-1.66-.58,2.62,2.62,0,0,1-.72-1.7,5.19,5.19,0,0,1-1.57,1.72,3.52,3.52,0,0,1-2,.56,2.4,2.4,0,0,1-1.88-.75A3,3,0,0,1,50,65.13a6.38,6.38,0,0,1,0-.7c0-.27.08-.55.14-.86l1.64-7.7h3.45L53.58,64a2.57,2.57,0,0,0-.06.35c0,.1,0,.21,0,.32a1.23,1.23,0,0,0,.18.73A.62.62,0,0,0,54.23,65.69Z"/><path class="cls-3" d="M62.15,65.13a6.38,6.38,0,0,1,.05-.7c0-.27.08-.55.14-.86L64,55.87h3.45L65.7,64c0,.14,0,.28-.07.4s0,.24,0,.37a.84.84,0,0,0,.23.68,1.08,1.08,0,0,0,.75.21,1.81,1.81,0,0,0,1.27-.59,3.51,3.51,0,0,0,.89-1.53h1a7.71,7.71,0,0,1-2.06,3.32,4.42,4.42,0,0,1-3,1.12,2.4,2.4,0,0,1-1.88-.75A3,3,0,0,1,62.15,65.13Zm6.12-12.45A1.82,1.82,0,0,1,67.71,54a1.87,1.87,0,0,1-1.36.55,1.88,1.88,0,0,1-1.89-1.89A1.87,1.87,0,0,1,65,51.32a1.82,1.82,0,0,1,1.34-.56,1.91,1.91,0,0,1,1.92,1.92Z"/><path class="cls-3" d="M68.56,65.13a6.38,6.38,0,0,1,0-.7c0-.27.08-.55.14-.86l2.57-12,3.55-.48L72.11,64c0,.14,0,.28-.07.4a2.23,2.23,0,0,0,0,.37.87.87,0,0,0,.22.68,1.13,1.13,0,0,0,.76.21,1.81,1.81,0,0,0,1.27-.59,3.51,3.51,0,0,0,.89-1.53h1a7.63,7.63,0,0,1-2.07,3.32,4.38,4.38,0,0,1-3,1.12,2.44,2.44,0,0,1-1.89-.75A3.09,3.09,0,0,1,68.56,65.13Z"/><path class="cls-3" d="M83,57v.1l1.18-5.52,3.55-.48L84.93,64a3.38,3.38,0,0,0-.07.4,2.22,2.22,0,0,0,0,.37.87.87,0,0,0,.23.68,1.1,1.1,0,0,0,.76.21,1.49,1.49,0,0,0,1.12-.56,3.94,3.94,0,0,0,.82-1.56h1a7.71,7.71,0,0,1-1.93,3.22,4.17,4.17,0,0,1-2.9,1.08,2.32,2.32,0,0,1-1.59-.54,2.44,2.44,0,0,1-.76-1.52A5.19,5.19,0,0,1,80,67.46,3.58,3.58,0,0,1,78,68a2.91,2.91,0,0,1-2.34-1,4.32,4.32,0,0,1-.85-2.86,10.16,10.16,0,0,1,.41-2.81,10.74,10.74,0,0,1,1.12-2.66,6.76,6.76,0,0,1,2.07-2.17A4.6,4.6,0,0,1,81,55.75a2.74,2.74,0,0,1,1.44.32A1,1,0,0,1,83,57ZM78.4,63.81a3,3,0,0,0,.26,1.41,1,1,0,0,0,.94.47,1.7,1.7,0,0,0,1.18-.57,3,3,0,0,0,.79-1.43v-.12l1.17-5.49a1,1,0,0,0-.32-.61.92.92,0,0,0-.66-.23c-.88,0-1.66.74-2.34,2.21A10.31,10.31,0,0,0,78.4,63.81Z"/><path class="cls-3" d="M97,65.69a1.45,1.45,0,0,0,1.08-.51,3.77,3.77,0,0,0,.79-1.46l1.68-7.85H104L101.61,67a4.42,4.42,0,0,0,1.88-1.22,6.06,6.06,0,0,0,1.14-2.22h1a7.36,7.36,0,0,1-1.57,2.93,5.48,5.48,0,0,1-2.68,1.56L101,69.79a5.82,5.82,0,0,1-1.51,3,3.89,3.89,0,0,1-2.81,1,2.92,2.92,0,0,1-1.95-.62A2.14,2.14,0,0,1,94,71.54a2.75,2.75,0,0,1,1-2.07A7.45,7.45,0,0,1,97.94,68l.28-1.3a4.2,4.2,0,0,1-1.3,1,3.72,3.72,0,0,1-1.58.33,2.42,2.42,0,0,1-1.88-.75,3,3,0,0,1-.68-2.13,6.16,6.16,0,0,1,0-.7c0-.27.08-.55.15-.86l1.63-7.7h3.46L96.33,64c0,.1,0,.2,0,.3a1.51,1.51,0,0,0,0,.3,1.41,1.41,0,0,0,.18.78A.59.59,0,0,0,97,65.69Zm.72,3.48a6.24,6.24,0,0,0-1.78.94,1.46,1.46,0,0,0-.58,1.1.77.77,0,0,0,.24.55.8.8,0,0,0,.58.24c.27,0,.54-.19.79-.58a4.38,4.38,0,0,0,.6-1.56Z"/><path class="cls-3" d="M104.3,64.17a10.28,10.28,0,0,1,.44-2.9A10.69,10.69,0,0,1,106,58.53a6.25,6.25,0,0,1,2.14-2.14,5.38,5.38,0,0,1,2.78-.74,2.82,2.82,0,0,1,2.31,1,4.56,4.56,0,0,1,.76,2.88l.11,0h.16a4.78,4.78,0,0,0,1.77-.41,8.85,8.85,0,0,0,1.92-1l.22.65A5.74,5.74,0,0,1,116.33,60a8.94,8.94,0,0,1-2.46.74A9.5,9.5,0,0,1,112,66a4.78,4.78,0,0,1-3.86,2,3.94,3.94,0,0,1-2.86-1A3.78,3.78,0,0,1,104.3,64.17Zm6.76-7.05c-.76,0-1.49.77-2.17,2.33a11,11,0,0,0-1,4.41,3.34,3.34,0,0,0,.25,1.54,1.07,1.07,0,0,0,1,.41c.59,0,1.15-.48,1.69-1.44a10.16,10.16,0,0,0,1.09-3.56.69.69,0,0,1-.49-.32,1.25,1.25,0,0,1-.16-.68,1.69,1.69,0,0,1,.19-.8,1.24,1.24,0,0,1,.56-.5,2.41,2.41,0,0,0-.26-1.08A.71.71,0,0,0,111.06,57.12Z"/><path class="cls-3" d="M119.18,65.69a1.48,1.48,0,0,0,1.11-.54,4.09,4.09,0,0,0,.81-1.58l1.63-7.7h3.45L124.46,64a3.53,3.53,0,0,0-.08.4c0,.12,0,.24,0,.37a.87.87,0,0,0,.23.68,1.08,1.08,0,0,0,.75.21,1.49,1.49,0,0,0,1.13-.56,3.94,3.94,0,0,0,.82-1.56h1a8,8,0,0,1-2,3.33A4.08,4.08,0,0,1,123.47,68a2.29,2.29,0,0,1-1.65-.58,2.52,2.52,0,0,1-.72-1.7,5.21,5.21,0,0,1-1.58,1.72,3.52,3.52,0,0,1-2,.56,2.42,2.42,0,0,1-1.88-.75,3,3,0,0,1-.68-2.13,6.16,6.16,0,0,1,0-.7c0-.27.08-.55.15-.86l1.63-7.7h3.46L118.53,64a2.57,2.57,0,0,0-.06.35c0,.1,0,.21,0,.32a1.23,1.23,0,0,0,.18.73A.62.62,0,0,0,119.18,65.69Z"/><path class="cls-3" d="M129.83,67.87h-3.45l2.54-12h3.46l-.32,1.49a9.51,9.51,0,0,1,1.67-1.19,2.79,2.79,0,0,1,1.24-.3,1.53,1.53,0,0,1,1.2.52,1.87,1.87,0,0,1,.45,1.28,1.74,1.74,0,0,1-.48,1.25,1.65,1.65,0,0,1-1.24.5.94.94,0,0,1-.64-.19,1.3,1.3,0,0,1-.32-.79,1.18,1.18,0,0,0-.17-.49.33.33,0,0,0-.27-.11,1.66,1.66,0,0,0-.76.17,4.55,4.55,0,0,0-1,.74Z"/><path class="cls-3" d="M73.71,24.82a2.55,2.55,0,0,1,2.56,2.52,2.59,2.59,0,0,1-2.56,2.56,2.56,2.56,0,0,1-2.52-2.56A2.52,2.52,0,0,1,73.71,24.82Z"/><path class="cls-3" d="M89.59,24.82a2.55,2.55,0,0,1,2.57,2.52,2.59,2.59,0,0,1-2.57,2.56,2.56,2.56,0,0,1-2.52-2.56A2.52,2.52,0,0,1,89.59,24.82Z"/><path class="cls-3" d="M105.48,24.82A2.55,2.55,0,0,1,108,27.34a2.59,2.59,0,0,1-2.56,2.56A2.55,2.55,0,0,1,103,27.34,2.51,2.51,0,0,1,105.48,24.82Z"/><path class="cls-3" d="M73.71,144.82a2.55,2.55,0,0,1,2.56,2.52,2.59,2.59,0,0,1-2.56,2.56,2.56,2.56,0,0,1-2.52-2.56A2.52,2.52,0,0,1,73.71,144.82Z"/><path class="cls-3" d="M89.59,144.82a2.55,2.55,0,0,1,2.57,2.52,2.59,2.59,0,0,1-2.57,2.56,2.56,2.56,0,0,1-2.52-2.56A2.52,2.52,0,0,1,89.59,144.82Z"/><path class="cls-3" d="M105.48,144.82a2.55,2.55,0,0,1,2.56,2.52,2.59,2.59,0,0,1-2.56,2.56,2.55,2.55,0,0,1-2.52-2.56A2.51,2.51,0,0,1,105.48,144.82Z"/><path class="cls-3" d="M9.4,49.82A2.55,2.55,0,0,1,12,52.34,2.59,2.59,0,0,1,9.4,54.9a2.56,2.56,0,0,1-2.52-2.56A2.52,2.52,0,0,1,9.4,49.82Z"/><path class="cls-3" d="M166.9,47.82a2.55,2.55,0,0,1,2.57,2.52,2.59,2.59,0,0,1-2.57,2.56,2.56,2.56,0,0,1-2.52-2.56A2.52,2.52,0,0,1,166.9,47.82Z"/><path class="cls-3" d="M8.4,121.82A2.55,2.55,0,0,1,11,124.34,2.59,2.59,0,0,1,8.4,126.9a2.56,2.56,0,0,1-2.52-2.56A2.52,2.52,0,0,1,8.4,121.82Z"/><path class="cls-3" d="M168.4,122.32a2.55,2.55,0,0,1,2.57,2.52,2.59,2.59,0,0,1-2.57,2.56,2.56,2.56,0,0,1-2.52-2.56A2.52,2.52,0,0,1,168.4,122.32Z"/><polygon class="cls-2" points="88.89 173.19 150.41 132.26 27.38 132.26 88.89 173.19"/></g></g></svg>