<svg xmlns="http://www.w3.org/2000/svg" viewBox="0 0 177.34 177.31"><defs><style>.cls-1,.cls-3,.cls-5{fill:#fff;}.cls-2,.cls-4{fill:none;}.cls-2,.cls-3,.cls-4,.cls-5{stroke:#fff;stroke-miterlimit:10;}.cls-2{stroke-width:0.39px;}.cls-4{stroke-width:1.93px;}.cls-5{stroke-width:0.77px;}</style></defs><title>craft_your_own</title><g id="Layer_2" data-name="Layer 2"><g id="Layer_1-2" data-name="Layer 1"><path class="cls-1" d="M53,100.78l.92-4.72c.05-.23-.32-10.57-.32-10.57A.37.37,0,0,1,54,85h1.48c.42,0,.42.12.44.46l0,5.61c0,.16.16.16.23,0l2.2-5.61c.16-.34.21-.46.62-.46h1.49c.3,0,.32.21.21.46,0,0-4.41,10.34-4.45,10.57l-.93,4.72c-.07.35-.18.47-.53.47H53.37C53,101.25,52.91,101.13,53,100.78Z"/><path class="cls-1" d="M67.29,96.94c-.63,3.19-2.64,4.4-4.57,4.4s-3.47-1.21-2.84-4.4l1.46-7.6c.62-3.2,2.64-4.4,4.56-4.4s3.47,1.2,2.85,4.4Zm-.74-8.2c.25-1.21-.35-1.67-1.07-1.67s-1.46.46-1.71,1.67l-1.69,8.8c-.26,1.2.34,1.67,1.06,1.67s1.46-.47,1.72-1.67Z"/><path class="cls-1" d="M77.13,85h1.39c.35,0,.44.12.37.46L76.67,96.94c-.63,3.19-2.64,4.4-4.57,4.4s-3.47-1.21-2.85-4.4l2.23-11.45c.07-.34.21-.46.55-.46h1.39c.35,0,.44.12.37.46L71.45,97.54c-.25,1.2.35,1.67,1.07,1.67s1.46-.47,1.71-1.67l2.34-12.05A.48.48,0,0,1,77.13,85Z"/><path class="cls-1" d="M87.27,89.34l-.14.74A5.27,5.27,0,0,1,85,93.86l0,6.9c0,.37-.19.49-.37.49H83.22c-.3,0-.44,0-.47-.35l0-6.23c0-.21-.16-.21-.25-.21h-.44c-.47,0-.47,0-.54.46l-1.15,5.86c-.07.35-.19.47-.54.47H78.49c-.34,0-.46-.12-.39-.47l3-15.29c.07-.34.21-.46.55-.46h3C86.58,85,87.9,86.14,87.27,89.34Zm-3.73-2.27c-.46,0-.46,0-.53.46L82.13,92c-.07.46-.07.46.39.46h.7c.72,0,1.23-.46,1.46-1.64l.39-2c.26-1.21-.11-1.67-.83-1.67Z"/><path class="cls-1" d="M99.73,96.94c-.63,3.19-2.64,4.4-4.56,4.4s-3.48-1.21-2.85-4.4l1.46-7.6c.62-3.2,2.64-4.4,4.56-4.4s3.47,1.2,2.85,4.4ZM99,88.74c.25-1.21-.35-1.67-1.07-1.67s-1.46.46-1.71,1.67l-1.69,8.8c-.26,1.2.35,1.67,1.06,1.67s1.46-.47,1.72-1.67Z"/><path class="cls-1" d="M108.69,92.1l-3.33,8.68c-.14.35-.19.47-.61.47h-.9c-.42,0-.46-.12-.46-.47l.09-15.29c0-.32.12-.46.49-.46h1.39c.37,0,.44.09.44.46l-.26,9.18c0,.11.16.11.21,0l3.52-9.18c.14-.37.26-.46.6-.46h.65c.35,0,.42.09.42.46l0,9.18c0,.11.16.11.21,0l3.31-9.18c.14-.37.26-.46.63-.46h1.39c.37,0,.41.14.3.46l-5.88,15.29c-.14.35-.19.47-.61.47h-1.13c-.42,0-.46-.12-.46-.47l.27-8.68C109,91.93,108.76,91.93,108.69,92.1Z"/><path class="cls-1" d="M122.38,101.25c-.21,0-.37,0-.42-.28l-2.18-9.34c0-.16-.16-.09-.18,0l-1.79,9.12c-.07.35-.18.47-.53.47h-1.39c-.35,0-.46-.12-.39-.47l3-15.29A.47.47,0,0,1,119,85h1c.26,0,.35,0,.4.3l2.17,9.34c0,.14.17.09.19,0l1.78-9.15a.48.48,0,0,1,.56-.46h1.39c.35,0,.44.12.37.46l-3,15.29c-.07.35-.18.47-.53.47Z"/><path class="cls-1" d="M66.75,63.88a5.15,5.15,0,0,0,.77,3.18A2.93,2.93,0,0,0,70,68a6.27,6.27,0,0,0,2.89-.71,6.57,6.57,0,0,0,2.3-2l.61.27a7.23,7.23,0,0,1-3,3.61,8.53,8.53,0,0,1-4.54,1.34c-2.06,0-3.54-.52-4.46-1.56s-1.37-2.7-1.37-5a20.49,20.49,0,0,1,.56-4.61,18,18,0,0,1,1.55-4.28,10,10,0,0,1,3.1-3.69,7,7,0,0,1,4.09-1.27,5.21,5.21,0,0,1,3.29.92,3.2,3.2,0,0,1,1.15,2.65,3,3,0,0,1-.48,1.83,1.65,1.65,0,0,1-1.38.62,2.14,2.14,0,0,1-.84-.17,2,2,0,0,1-.68-.52,2.08,2.08,0,0,0,.85-1,3.23,3.23,0,0,0,.38-1.48,1.66,1.66,0,0,0-.43-1.2,1.62,1.62,0,0,0-1.2-.42A3.13,3.13,0,0,0,70,52.87a13.05,13.05,0,0,0-2,3.93,23.66,23.66,0,0,0-.91,3.55A21.14,21.14,0,0,0,66.75,63.88Z"/><path class="cls-1" d="M77.88,70.17H74.05l2.82-13.32h3.84l-.35,1.65a11.16,11.16,0,0,1,1.85-1.32,3.1,3.1,0,0,1,1.37-.33,1.68,1.68,0,0,1,1.33.57,2.09,2.09,0,0,1,.51,1.43,1.93,1.93,0,0,1-.53,1.38,1.82,1.82,0,0,1-1.39.56,1.06,1.06,0,0,1-.7-.21,1.42,1.42,0,0,1-.36-.88,1.51,1.51,0,0,0-.19-.55A.37.37,0,0,0,82,59a2,2,0,0,0-.85.19,5.16,5.16,0,0,0-1.1.83Z"/><path class="cls-1" d="M93.28,58.08v.18l.29-1.41H97.4l-1.91,9.06a2.57,2.57,0,0,0-.08.44,2.73,2.73,0,0,0,0,.41,1.18,1.18,0,0,0,.27.86,1.06,1.06,0,0,0,.82.28,1.61,1.61,0,0,0,1.25-.65,4.77,4.77,0,0,0,.91-1.85h1.12a8.94,8.94,0,0,1-2.21,3.69,4.58,4.58,0,0,1-3.15,1.24,2.57,2.57,0,0,1-1.82-.64,2.79,2.79,0,0,1-.79-1.81A6,6,0,0,1,90,69.71a4,4,0,0,1-2.14.62,3.24,3.24,0,0,1-2.6-1.12,4.78,4.78,0,0,1-1-3.17,11.73,11.73,0,0,1,.46-3.12A12,12,0,0,1,86,60a7.6,7.6,0,0,1,2.29-2.41,5.16,5.16,0,0,1,2.85-.84,3,3,0,0,1,1.6.36A1.13,1.13,0,0,1,93.28,58.08ZM93,59.38a1,1,0,0,0-.3-.7,1,1,0,0,0-.8-.31c-1,0-1.84.82-2.59,2.45a11.4,11.4,0,0,0-1.13,4.85,3.16,3.16,0,0,0,.29,1.55,1.08,1.08,0,0,0,1,.52,1.89,1.89,0,0,0,1.34-.66,3.31,3.31,0,0,0,.87-1.68Z"/><path class="cls-1" d="M105.74,50.22a3.2,3.2,0,0,1,2.22.83,2.65,2.65,0,0,1,.92,2.05c0,.21,0,.41,0,.58a2.73,2.73,0,0,1-.07.51h-1.25a4.54,4.54,0,0,0,0-.52v-.2a.83.83,0,0,0-.28-.67,1.07,1.07,0,0,0-.73-.24,1.52,1.52,0,0,0-1.16.56,3.47,3.47,0,0,0-.7,1.63l-.46,2.1h2L106,57.92h-2L101,72.3a6.31,6.31,0,0,1-1.68,3.39,4.3,4.3,0,0,1-3.09,1.13A3.19,3.19,0,0,1,94,76a2.66,2.66,0,0,1-.92-2A3,3,0,0,1,94,71.68,10,10,0,0,1,97.67,70l3.22-15.2a6.27,6.27,0,0,1,1.71-3.38A4.37,4.37,0,0,1,105.74,50.22ZM97.48,70.83A5.94,5.94,0,0,0,95.25,72a2.14,2.14,0,0,0-.7,1.57.79.79,0,0,0,.34.6,1.08,1.08,0,0,0,.73.28,1.1,1.1,0,0,0,.9-.53,3.82,3.82,0,0,0,.62-1.54Z"/><path class="cls-1" d="M106.67,56.85h.88l.8-3.67,3.94-.54-.91,4.21H113l-.21,1.07h-1.6l-1.7,8a2.57,2.57,0,0,0-.08.44,2.73,2.73,0,0,0,0,.41,1,1,0,0,0,.25.76,1.26,1.26,0,0,0,.84.22,2,2,0,0,0,1.41-.65,3.84,3.84,0,0,0,1-1.69H114a8.42,8.42,0,0,1-2.29,3.67,4.87,4.87,0,0,1-3.3,1.26,2.7,2.7,0,0,1-2.1-.84,3.43,3.43,0,0,1-.75-2.36,5.63,5.63,0,0,1,0-.78,9.43,9.43,0,0,1,.16-.95l1.6-7.48h-.88Z"/><path class="cls-2" d="M116.91,9.46a87.12,87.12,0,0,1,11.77,5.23,90.36,90.36,0,0,1,10.82,7,86.08,86.08,0,0,1,9.63,8.57c.74.78,1.5,1.54,2.21,2.35L153.45,35c1.34,1.68,2.69,3.36,3.91,5.13A80.48,80.48,0,0,1,164,51.25c.51,1,.94,1.94,1.38,2.92s.9,2,1.27,3,.81,2,1.17,3l1,3.07a90.11,90.11,0,0,1,2.95,12.58,94,94,0,0,1,1,12.87H170a81.51,81.51,0,0,0-1.95-17.61,15.76,15.76,0,0,1-1.26-2.61c-.4-.9-.73-1.76-1-2.38a15.4,15.4,0,0,1,.29,2.5,12.27,12.27,0,0,1-.27,2.87,79.85,79.85,0,0,1,1.81,17.23H165A77.07,77.07,0,0,0,163.23,72a11.88,11.88,0,0,1-.67-1.28c-.2-.45-.36-.92-.57-1.4-.38-1-.7-1.94-1-2.93-.65-1.93-1.12-3.82-1.68-5A75.54,75.54,0,0,0,69.1,17.22a74.91,74.91,0,0,0,.56,144.29,76.65,76.65,0,0,0,27.71,2.28A74.6,74.6,0,0,0,124,155.93,76,76,0,0,0,145.88,139a75.19,75.19,0,0,0,14.35-23.47,76.63,76.63,0,0,0,5-26.86c1.22.09,2.95-.48,3.06,1l-.08,1.77c0,.59,0,1.19-.11,1.77l-.34,3.54-.51,3.5c-.18,1.17-.44,2.33-.66,3.49a81,81,0,0,1-4.14,13.53A80.23,80.23,0,0,1,112,163.76a78.21,78.21,0,0,1-13.89,3,82.12,82.12,0,0,1-14.2.47l-1.78-.12c-.59-.05-1.19-.07-1.78-.15l-3.54-.43-3.52-.6c-1.16-.23-2.32-.51-3.48-.76a79.54,79.54,0,0,1-58.45-57.8A79.83,79.83,0,0,0,23,134.05a80.25,80.25,0,0,0,61.63,35.24,82.73,82.73,0,0,0,14.68-.46,79.75,79.75,0,0,0,27.9-8.76A81,81,0,0,0,150,142a79.71,79.71,0,0,0,14.84-24.9,81,81,0,0,0,5-28.34h1.54a1.15,1.15,0,0,1,1.52,1.05L172.8,93l-.27,3.25c-.06,1.08-.24,2.16-.38,3.24l-.21,1.62c-.07.54-.19,1.07-.28,1.6a80.21,80.21,0,0,1-3.23,12.66c-.67,2.07-1.51,4.09-2.33,6.11l-1.35,3c-.22.5-.48,1-.73,1.46l-.75,1.46A84.07,84.07,0,0,1,62.39,168.29l-1.56-.53L60,167.5l-.77-.3L56.19,166l-3-1.35-.76-.34-.73-.38-1.48-.75a84.42,84.42,0,0,1-11.24-7,88.58,88.58,0,0,1-10-8.66l-2.29-2.39-2.18-2.5c-.37-.41-.71-.84-1.05-1.27l-1-1.3c-.34-.44-.69-.86-1-1.31l-1-1.35A84,84,0,0,1,8.58,113.81a88.34,88.34,0,0,1-3-12.93l-.43-3.29c-.12-1.1-.18-2.21-.28-3.31,0-.55-.1-1.1-.1-1.65l0-1.66c0-1.1-.09-2.21,0-3.31l.08-3.32L5,81c.06-1.11.24-2.2.37-3.3l.21-1.65c.07-.55.18-1.09.27-1.63l.29-1.64c.1-.54.18-1.09.32-1.63L7.24,68c.27-1.08.59-2.14.89-3.2s.65-2.12,1-3.17a84.13,84.13,0,0,1,12.3-23.38,86.73,86.73,0,0,1,8.75-9.91c.8-.76,1.59-1.54,2.41-2.27l2.51-2.16c1.72-1.38,3.44-2.76,5.26-4l1.35-.95c.45-.31.92-.6,1.39-.9l1.39-.89.7-.44.71-.41,2.87-1.64,2.94-1.5A89.14,89.14,0,0,1,64,8.29a83.85,83.85,0,0,1,51.61,1A8.81,8.81,0,0,1,116.91,9.46Zm46.71,52.35a17.61,17.61,0,0,0,.78,1.91l.51,1.13c.17.39.32.8.48,1.21-.22-1-.47-2.07-.69-3-.11-.47-.22-.92-.33-1.33-.06-.21-.11-.41-.17-.59s-.13-.36-.19-.51a81.67,81.67,0,0,0-7.71-14.7A76.17,76.17,0,0,1,163.62,61.81Z"/><path class="cls-3" d="M134.15,13.33A87.36,87.36,0,0,0,77.61,1.18a85.56,85.56,0,0,0-14.42,3A88.82,88.82,0,0,0,49.48,9.62l-1.64.83c-.55.28-1.1.55-1.63.87L43,13.15l-3.11,2c-1,.67-2,1.4-3,2.1a90.2,90.2,0,0,0-11.14,9.6,85.14,85.14,0,0,0-9.38,11.29A89.31,89.31,0,0,0,9,50.81,85.84,85.84,0,0,0,3.82,64.55l-.49,1.77c-.17.59-.29,1.19-.43,1.78l-.41,1.79-.21.89c-.06.3-.11.61-.16.91L1.48,75.3,1,78.93a93.58,93.58,0,0,0-.4,14.59,89.12,89.12,0,0,0,2,14.45l.41,1.78c.13.59.28,1.19.45,1.77l1,3.51,1.17,3.45c.19.58.42,1.14.64,1.71L7,121.88a90.22,90.22,0,0,0,6.58,13,87.85,87.85,0,0,0,8.6,11.66,88.83,88.83,0,0,0,10.34,10.1,91.84,91.84,0,0,0,11.84,8.25l1.57.89c.52.3,1,.6,1.58.86l3.21,1.63L54,169.72c.54.26,1.11.46,1.66.69l1.68.65a91.32,91.32,0,0,0,13.79,4,94.64,94.64,0,0,0,14.21,1.67l3.57.07,3.56-.09.89,0,.89-.06,1.77-.14,1.78-.15c.59-.06,1.18-.14,1.77-.22l1.77-.23.88-.11.88-.16,3.5-.63,3.47-.81.86-.2.86-.25,1.71-.49a88,88,0,0,0,13.25-5.06,91.69,91.69,0,0,0,12.2-7.13,84.76,84.76,0,0,0,10.87-8.93,89,89,0,0,0,9.3-10.49,92.44,92.44,0,0,0,7.48-11.8,85.58,85.58,0,0,0,5.51-12.8c.78-2.19,1.38-4.43,2-6.67l.77-3.38c.14-.57.24-1.14.34-1.71l.3-1.7c.1-.57.21-1.14.29-1.71l.22-1.72.22-1.72c0-.28.07-.57.1-.86l.07-.86.26-3.44.09-3.45c0-1.15-1-.86-.8,1.07,0,2.28-.23,4.56-.41,6.83l-.43,3.39L175,102l-.15.84-.3,1.69A83.92,83.92,0,0,1,171,117.7a90.69,90.69,0,0,1-5.55,12.51A91.08,91.08,0,0,1,158,141.66a83.9,83.9,0,0,1-9.14,10.16L147.64,153c-.42.39-.86.76-1.28,1.13l-1.3,1.12c-.43.38-.86.75-1.31,1.09l-2.69,2.12-2.79,2a91,91,0,0,1-11.83,6.86,88.61,88.61,0,0,1-12.78,4.9A83.8,83.8,0,0,1,100.28,175l-1.7.21-.85.1-.85.07-3.41.26c-2.28.06-4.56.16-6.83.06s-4.55-.24-6.82-.42l-3.4-.43-.85-.11-.84-.15-1.68-.3L71.36,174l-1.67-.38L68,173.24l-.83-.2-.82-.23-3.3-.94-3.25-1.09A87.37,87.37,0,0,1,17.12,138a90.57,90.57,0,0,1-6.85-11.84,88.12,88.12,0,0,1-4.89-12.78A83.77,83.77,0,0,1,2.56,100c-.33-2.26-.46-4.54-.63-6.81s-.17-4.56-.06-6.83c0-1.14,0-2.28.15-3.42s.16-2.27.27-3.41l.43-3.39c.07-.57.17-1.13.27-1.69l.3-1.69.31-1.68L4,69.39l.38-1.67.2-.83.23-.82.94-3.3,1.1-3.24A90.68,90.68,0,0,1,12.4,47a89.94,89.94,0,0,1,7.48-11.44c.71-.9,1.39-1.81,2.13-2.68l2.24-2.58C25.81,28.66,27.36,27,29,25.44l1.24-1.17,1.29-1.13L32.86,22l.65-.56.67-.53,2.69-2.1,2.79-2A91.65,91.65,0,0,1,51.5,10,87,87,0,0,1,64.29,5.13,82.66,82.66,0,0,1,77.67,2.32c2.26-.33,4.54-.46,6.81-.64s4.56-.15,6.83-.05L93,1.68c.57,0,1.14.07,1.71.11,1.13.09,2.27.15,3.41.27l3.39.43c.57.07,1.13.17,1.69.27l1.69.3,1.68.31,1.67.39,1.67.38.83.2.82.23,3.3.94,3.24,1.1c.56.21,1.24.49,2.11.79l2.55,1,2.51,1.12,1.25.57,1.22.62L130.2,12a88.17,88.17,0,0,1,9.29,5.82,86.32,86.32,0,0,1,16.07,14.83c.61.68,1.16,1.41,1.73,2.13s1.14,1.42,1.67,2.17c1.06,1.49,2.16,2.95,3.11,4.51.49.78,1,1.54,1.47,2.32l1.37,2.38c.22.4.46.79.67,1.19l.63,1.22L167.46,51l1.13,2.5.56,1.25.51,1.27,1,2.56c.31.86.6,1.73.89,2.59.62,1.73,1.07,3.5,1.58,5.26.25.88.43,1.78.65,2.67l.3,1.33.16.67.12.68v0A86.84,86.84,0,0,1,176,88.67h.83a90.2,90.2,0,0,0-2.93-22.47,87.47,87.47,0,0,0-8.57-20.93A88.43,88.43,0,0,0,134.15,13.33Z"/><path class="cls-1" d="M111.66,21a71.51,71.51,0,0,0-44-.86,74.41,74.41,0,0,0-10.45,4.13l-2.51,1.27-2.45,1.4-.61.35-.6.38-1.19.76-1.18.76L47.49,30c-1.56,1.06-3,2.25-4.5,3.42l-2.14,1.84c-.7.63-1.37,1.3-2.06,1.94a76.27,76.27,0,0,0-7.48,8.47A71.53,71.53,0,0,0,20.83,65.56c-.3.9-.63,1.78-.86,2.7s-.53,1.81-.76,2.73l-.63,2.75c-.12.46-.18.93-.27,1.39l-.24,1.4c-.08.46-.18.92-.24,1.39l-.18,1.41c-.1.94-.26,1.87-.31,2.81L17.13,85l-.06,2.83c-.05,1,0,1.89,0,2.84l0,1.42c0,.47.07.94.1,1.41.08.94.13,1.89.23,2.82l.37,2.81a75.94,75.94,0,0,0,2.53,11,71.7,71.7,0,0,0,10.12,20.13l.82,1.15c.28.38.58.74.87,1.12l.88,1.1c.29.38.58.75.9,1.1l1.86,2.13,2,2a75.84,75.84,0,0,0,8.54,7.38,72.86,72.86,0,0,0,9.59,5.94l1.26.64.63.32.64.29L61,154.62l2.63,1,.65.25.67.23,1.34.44a71.71,71.71,0,0,0,80.09-25.44,70.63,70.63,0,0,0,5.93-9.45l.64-1.23c.22-.42.44-.83.62-1.25l1.16-2.54c.69-1.72,1.42-3.44,2-5.2a68.19,68.19,0,0,0,2.76-10.78c.08-.46.19-.91.24-1.37l.18-1.38c.12-.92.28-1.84.33-2.77l.23-2.77.09-2.79c-.15-.7-.62-1-1.52-.89h-1.54a76.43,76.43,0,0,1-.77,10.69,71.9,71.9,0,0,1-2.44,10.44,66.17,66.17,0,0,1-4.07,10c-.78,1.61-1.7,3.16-2.6,4.71l-1.45,2.28c-.49.75-1,1.47-1.55,2.21a68.59,68.59,0,0,1-34.37,25.08,69.89,69.89,0,0,1-10.51,2.51,75,75,0,0,1-10.8.83,76.48,76.48,0,0,1-10.8-.88A69.91,69.91,0,0,1,67.63,154a68.67,68.67,0,0,1-34.28-25.24l-.78-1.1c-.26-.37-.53-.74-.76-1.12l-1.45-2.28L29,121.89l-.33-.59-.31-.6-.61-1.21-.61-1.2-.55-1.23c-.35-.82-.76-1.63-1.06-2.48s-.66-1.67-1-2.51l-.85-2.55A72.7,72.7,0,0,1,21.29,99a75.76,75.76,0,0,1-.74-10.75,72.47,72.47,0,0,1,.92-10.72L22,74.93l.61-2.62.15-.65c.05-.22.12-.43.18-.65l.37-1.29.36-1.29c.14-.42.29-.84.43-1.27l.43-1.27.22-.63c.07-.21.16-.42.24-.63l1-2.49L27,59.69l.28-.61.3-.59.62-1.2.6-1.19.68-1.16.66-1.16c.12-.2.22-.39.34-.58l.36-.57,1.45-2.25,1.56-2.19A69,69,0,0,1,110,23.2l-.06.19A68.71,68.71,0,0,1,144.39,48.2a66.31,66.31,0,0,1,5.69,9.19,65.41,65.41,0,0,1,4.17,10,70,70,0,0,1,2.55,10.51,76.46,76.46,0,0,1,.86,10.8h2.74a80.82,80.82,0,0,0-.83-11A75.81,75.81,0,0,0,157.06,67l-.87-2.61c-.31-.86-.67-1.71-1-2.56s-.71-1.7-1.08-2.54-.74-1.68-1.18-2.48a67.76,67.76,0,0,0-5.64-9.45c-1-1.52-2.2-2.94-3.34-4.38l-1.8-2.08c-.6-.7-1.26-1.34-1.88-2a73.23,73.23,0,0,0-8.22-7.32,77.25,77.25,0,0,0-9.23-6,73.68,73.68,0,0,0-10-4.47A6.65,6.65,0,0,0,111.66,21Z"/><path class="cls-1" d="M151,61.44c-.39-.83-.74-1.67-1.15-2.49l-1.24-2.43c-.9-1.59-1.79-3.18-2.81-4.69a70,70,0,0,0-6.65-8.68,64.57,64.57,0,0,0-8.92-8.37,58,58,0,0,0-9.85-6.16l-2-1-2.07-.94-1-.47-1.06-.41c-.71-.27-1.41-.57-2.12-.83-1.44-.47-2.86-1-4.33-1.39-.74-.2-1.46-.43-2.2-.61l-2.22-.51c-.73-.19-1.48-.3-2.23-.44l-1.12-.2c-.37-.06-.75-.14-1.13-.18-1.5-.18-3-.42-4.53-.49A69.38,69.38,0,0,0,85.19,21,67.77,67.77,0,1,0,152,113.49a112.13,112.13,0,0,0,3.69-12.66c.91-4.39,1.12-8.76.24-12.12a73.64,73.64,0,0,1-.79,10.49,67.64,67.64,0,0,1-2.43,10.23,62.89,62.89,0,0,1-4,9.73,63.61,63.61,0,0,1-5.5,9,66.92,66.92,0,0,1-75.33,24.22l-1.25-.43c-.42-.14-.84-.27-1.25-.45l-2.45-1c-1.61-.73-3.23-1.43-4.78-2.27l-1.18-.6L55.82,147l-1.15-.67c-.19-.11-.38-.21-.57-.33l-.55-.36-2.23-1.43-2.15-1.54a71.34,71.34,0,0,1-8-6.95l-1.82-1.92-1.74-2-.43-.5-.41-.52-.81-1c-.27-.35-.55-.69-.81-1l-.77-1.09c-1-1.41-2-2.92-2.91-4.41l-1.31-2.29c-.43-.77-.8-1.57-1.21-2.35A69,69,0,0,1,25,108.77a72.44,72.44,0,0,1-2.33-10.28A70.16,70.16,0,0,1,22,88l.07-2.65.2-2.63c.05-.88.19-1.75.3-2.63l.16-1.3c.05-.44.15-.87.22-1.3a63.88,63.88,0,0,1,2.58-10.21,67.27,67.27,0,0,1,9.76-18.58A68,68,0,0,1,50.33,34l1.07-.77,1.11-.71,1.1-.71.55-.36.57-.33L57,29.81l2.34-1.2a72.58,72.58,0,0,1,9.74-3.92,67.91,67.91,0,0,1,41.38.4l-1-.23a67.25,67.25,0,0,1,33.66,24.3,65.23,65.23,0,0,1,5.53,9,63.7,63.7,0,0,1,4.07,9.73,69.39,69.39,0,0,1,2.48,10.26A75.76,75.76,0,0,1,156,88.67h.69a69.18,69.18,0,0,0-1.29-13.17A66.38,66.38,0,0,0,151,61.44Z"/><polygon class="cls-4" points="148.45 107.04 88.96 107.04 29.46 107.04 35.6 93.15 29.46 79.25 88.96 79.25 148.45 79.25 142.31 93.15 148.45 107.04"/><path class="cls-1" d="M119.52,60.85a51.28,51.28,0,0,1,5.22-.53c.87-.06,1.74-.08,2.61-.11l2.61,0,2.61,0c.87,0,1.74,0,2.61.11a50.8,50.8,0,0,1,5.21.53,48.16,48.16,0,0,1-5.21.54c-.87.06-1.74.07-2.61.11l-2.61,0-2.61,0c-.87,0-1.74,0-2.61-.11A48.61,48.61,0,0,1,119.52,60.85Z"/><path class="cls-1" d="M37.32,60.85a51.08,51.08,0,0,1,5.21-.53c.87-.06,1.74-.08,2.61-.11l2.61,0,2.61,0c.87,0,1.74,0,2.61.11a51.28,51.28,0,0,1,5.22.53,48.61,48.61,0,0,1-5.22.54c-.87.06-1.74.07-2.61.11l-2.61,0-2.61,0c-.87,0-1.74,0-2.61-.11A48.43,48.43,0,0,1,37.32,60.85Z"/><polygon class="cls-1" points="70.72 133.92 72.46 137.43 76.33 137.99 73.53 140.72 74.19 144.57 70.72 142.75 67.26 144.57 67.92 140.72 65.12 137.99 68.99 137.43 70.72 133.92"/><polygon class="cls-1" points="89.63 137.83 91.36 141.34 95.23 141.9 92.43 144.63 93.09 148.48 89.63 146.66 86.17 148.48 86.83 144.63 84.03 141.9 87.9 141.34 89.63 137.83"/><polygon class="cls-1" points="108.54 133.41 110.27 136.92 114.14 137.48 111.34 140.21 112 144.06 108.54 142.25 105.08 144.06 105.74 140.21 102.94 137.48 106.81 136.92 108.54 133.41"/><path class="cls-1" d="M119.52,120a51.28,51.28,0,0,1,5.22-.53c.87-.06,1.74-.08,2.61-.11l2.61,0,2.61,0c.87,0,1.74,0,2.61.12a50.8,50.8,0,0,1,5.21.53,48.16,48.16,0,0,1-5.21.54c-.87.06-1.74.07-2.61.11l-2.61,0-2.61,0c-.87,0-1.74,0-2.61-.12A48.58,48.58,0,0,1,119.52,120Z"/><path class="cls-1" d="M37.32,120a51.08,51.08,0,0,1,5.21-.53c.87-.06,1.74-.08,2.61-.11l2.61,0,2.61,0c.87,0,1.74,0,2.61.12a51.28,51.28,0,0,1,5.22.53,48.61,48.61,0,0,1-5.22.54c-.87.06-1.74.07-2.61.11l-2.61,0-2.61,0c-.87,0-1.74,0-2.61-.12A48.4,48.4,0,0,1,37.32,120Z"/><path class="cls-5" d="M81.35,128.69a52,52,0,0,1,3.31-4.07c.57-.66,1.18-1.28,1.77-1.92l1.81-1.87L90.11,119c.65-.59,1.27-1.2,1.93-1.77a50.2,50.2,0,0,1,4.07-3.31A52.42,52.42,0,0,1,92.8,118c-.57.66-1.18,1.28-1.77,1.92l-1.82,1.88-1.87,1.81c-.64.59-1.27,1.2-1.93,1.77A50,50,0,0,1,81.35,128.69Z"/><path class="cls-5" d="M81.16,113.71A50,50,0,0,1,85.22,117c.66.57,1.29,1.18,1.93,1.77L89,120.6l1.82,1.87c.59.65,1.19,1.27,1.76,1.93a50.31,50.31,0,0,1,3.32,4.07,50.6,50.6,0,0,1-4.07-3.31c-.66-.57-1.28-1.18-1.93-1.77l-1.87-1.82-1.82-1.87c-.58-.64-1.19-1.27-1.76-1.93A50,50,0,0,1,81.16,113.71Z"/><polygon class="cls-1" points="109.89 30.97 108.16 34.48 104.29 35.04 107.09 37.77 106.43 41.63 109.89 39.8 113.36 41.63 112.69 37.77 115.49 35.04 111.62 34.48 109.89 30.97"/><polygon class="cls-1" points="90.99 27.23 89.26 30.74 85.39 31.3 88.19 34.03 87.53 37.89 90.99 36.07 94.45 37.89 93.79 34.03 96.59 31.3 92.72 30.74 90.99 27.23"/><polygon class="cls-1" points="72.08 30.97 70.35 34.48 66.48 35.04 69.28 37.77 68.62 41.63 72.08 39.8 75.54 41.63 74.88 37.77 77.68 35.04 73.81 34.48 72.08 30.97"/></g></g></svg>