<svg xmlns="http://www.w3.org/2000/svg" viewBox="0 0 203.34 59.98"><defs><style>.cls-1{fill:#fff;stroke:#1e0f24;stroke-miterlimit:10;stroke-width:0.5px;}</style></defs><title>left-flourish1</title><g id="Layer_2" data-name="Layer 2"><g id="Layer_1-2" data-name="Layer 1"><path class="cls-1" d="M28.89,38.52a9.62,9.62,0,0,0-1,.24,9.33,9.33,0,0,0-1.77.78A10,10,0,0,0,23.33,42a12.48,12.48,0,0,0-2.63,6.68,13,13,0,0,0,1.23,6.94,9.61,9.61,0,0,0,1.87,2.51,3.76,3.76,0,0,0,1.69,1.33,3.84,3.84,0,0,0,1.37.26,3.45,3.45,0,0,0,.72-.07,3.75,3.75,0,1,0-4.38-4.47l-.06-.13a11.83,11.83,0,0,1-.64-6.15A11.11,11.11,0,0,1,25,43.42a7.34,7.34,0,0,1,5-2.79c1.09-.06,171.93-.11,173.06-.14V38.25c-1.17,0-172.06.09-173.27.17A4.69,4.69,0,0,0,28.89,38.52Z"/><path class="cls-1" d="M.3,20.91a12.33,12.33,0,0,0,2.63,6.68,10,10,0,0,0,2.83,2.47,9.06,9.06,0,0,0,1.77.78,9.42,9.42,0,0,0,1,.24,4.86,4.86,0,0,0,.94.1c1.2.08,192.41.06,193.59.1V29C201.87,29,10.72,29,9.62,29a7.32,7.32,0,0,1-5-2.8,11,11,0,0,1-2.53-5.48,11.94,11.94,0,0,1,.65-6.15s0-.09,0-.13A3.75,3.75,0,1,0,7.17,9.94a3.35,3.35,0,0,0-.71-.07,3.72,3.72,0,0,0-1.38.26,3.82,3.82,0,0,0-1.69,1.33A9.58,9.58,0,0,0,1.53,14,13,13,0,0,0,.3,20.91Z"/><path class="cls-1" d="M23.17,18A10.08,10.08,0,0,0,26,20.44a8.27,8.27,0,0,0,1.77.78,6.94,6.94,0,0,0,.95.24,5.81,5.81,0,0,0,.93.11c1.21.08,172.1.13,173.27.16V19.49c-1.13,0-172-.07-173.06-.14a7.23,7.23,0,0,1-5-2.79,11.13,11.13,0,0,1-2.53-5.48A11.85,11.85,0,0,1,23,4.92L23,4.8A3.75,3.75,0,1,0,27.42.32,4.18,4.18,0,0,0,26.7.25a3.8,3.8,0,0,0-3.06,1.6,9.06,9.06,0,0,0-1.86,2.51,13,13,0,0,0-1.24,6.94A12.54,12.54,0,0,0,23.17,18Z"/></g></g></svg>