<svg xmlns="http://www.w3.org/2000/svg" viewBox="0 0 203.34 59.98"><defs><style>.cls-1{fill:#fff;stroke:#1e0f24;stroke-miterlimit:10;stroke-width:0.5px;}</style></defs><title>right-flourish1</title><g id="Layer_2" data-name="Layer 2"><g id="Layer_1-2" data-name="Layer 1"><path class="cls-1" d="M174.45,21.46a7.48,7.48,0,0,0,1-.24,8.74,8.74,0,0,0,1.77-.78A10.17,10.17,0,0,0,180,18a12.54,12.54,0,0,0,2.63-6.68,13.05,13.05,0,0,0-1.23-6.94,9.29,9.29,0,0,0-1.87-2.51,3.8,3.8,0,0,0-3.06-1.6,4.28,4.28,0,0,0-.72.07,3.75,3.75,0,1,0,4.38,4.48l.06.12a11.85,11.85,0,0,1,.64,6.16,11.12,11.12,0,0,1-2.52,5.48,7.27,7.27,0,0,1-5,2.79c-1.1.07-171.93.11-173.06.14v2.24c1.17,0,172.06-.08,173.27-.16A5.81,5.81,0,0,0,174.45,21.46Z"/><path class="cls-1" d="M203,39.07a12.43,12.43,0,0,0-2.63-6.68,10,10,0,0,0-2.83-2.46,8.74,8.74,0,0,0-1.77-.78,9.44,9.44,0,0,0-.95-.25,7.19,7.19,0,0,0-.94-.1c-1.2-.08-192.41-.06-193.59-.09V31c1.14,0,192.29,0,193.39.06a7.32,7.32,0,0,1,5,2.8,11.09,11.09,0,0,1,2.53,5.48,12,12,0,0,1-.65,6.16l-.06.12a3.75,3.75,0,1,0-4.37,4.48,4.17,4.17,0,0,0,.71.07,3.64,3.64,0,0,0,1.37-.27,3.72,3.72,0,0,0,1.7-1.33A9.26,9.26,0,0,0,201.81,46,13,13,0,0,0,203,39.07Z"/><path class="cls-1" d="M180.17,42a10.09,10.09,0,0,0-2.84-2.47,9.06,9.06,0,0,0-1.77-.78,9.42,9.42,0,0,0-.95-.24,4.78,4.78,0,0,0-.94-.1c-1.2-.08-172.09-.13-173.26-.17v2.24c1.13,0,172,.08,173.06.14a7.3,7.3,0,0,1,5,2.79A11.12,11.12,0,0,1,181,48.91a11.83,11.83,0,0,1-.64,6.15l-.06.13a3.75,3.75,0,1,0-4.38,4.47,3.38,3.38,0,0,0,.72.07,3.92,3.92,0,0,0,1.37-.26,3.82,3.82,0,0,0,1.69-1.33,9.36,9.36,0,0,0,1.86-2.51,13.08,13.08,0,0,0,1.24-6.94A12.48,12.48,0,0,0,180.17,42Z"/></g></g></svg>