<svg xmlns="http://www.w3.org/2000/svg" viewBox="0 0 260 260"><defs><style>.cls-1{fill:#fff;}</style></defs><title>shaker_logo</title><g id="Layer_2" data-name="Layer 2"><g id="Layer_1-2" data-name="Layer 1"><path d="M0,0V182H0c.25,31.79,62.53,78,134.18,78S259.77,213.79,260,182V0Z"/><path class="cls-1" d="M45.89,19.75c.16,0,.24.18.24.55l.65,5.28a4,4,0,0,1,.1.63c0,.09-.13.14-.39.14a.81.81,0,0,1-.48-.1,1.12,1.12,0,0,1-.2-.34c-.06-.16-.14-.33-.23-.53l-.29-.6a7.75,7.75,0,0,0-1.64-2.25A8.62,8.62,0,0,0,37.5,19.9a6.46,6.46,0,0,0-3.9,1.34,3.87,3.87,0,0,0-1.84,3.16,6.82,6.82,0,0,0,.69,3.16A9.86,9.86,0,0,0,34.25,30a19.15,19.15,0,0,0,2.55,2.18l2.93,2.11A30.27,30.27,0,0,1,45.34,39a11.2,11.2,0,0,1,2.83,6.79,8.08,8.08,0,0,1-3.24,6.73,11.92,11.92,0,0,1-7.53,2.52A13.63,13.63,0,0,1,33,54.52c-1.09-.37-1.84-.64-2.25-.8a2.67,2.67,0,0,0-.9-.25,2.24,2.24,0,0,0-.36,0l-1.22.25c-.22,0-.35-.17-.4-.52q-.72-6.15-.72-6.53a1.47,1.47,0,0,1,.06-.52c.05-.09.16-.14.34-.14.46,0,.88.66,1.27,2a8.9,8.9,0,0,0,8.66,5.58,7.08,7.08,0,0,0,4.75-1.68,5.5,5.5,0,0,0,2-4.39q0-4.32-5.16-8c-1-.7-2.38-1.67-4.22-2.91a22.66,22.66,0,0,1-4.39-3.71,9.41,9.41,0,0,1-2.56-6.41,7.08,7.08,0,0,1,2.82-5.79,10,10,0,0,1,6.47-2.26,15.32,15.32,0,0,1,4.15.65c1.52.43,2.57.71,3.17.86Z"/><path class="cls-1" d="M86.57,49.92c0,2.24,1.54,3.4,4.64,3.5a.18.18,0,0,1,.2.2v.59a.18.18,0,0,1-.2.2H75.42a.18.18,0,0,1-.2-.2v-.59c0-.13.42-.2,1.24-.2a8.69,8.69,0,0,0,2.83-.55c1.62-.52,2.44-1.42,2.44-2.67V38.37a.46.46,0,0,0-.08-.32.48.48,0,0,0-.32-.08H61.77a.48.48,0,0,0-.32.08.46.46,0,0,0-.08.32V50.44q0,3,4.4,3a.18.18,0,0,1,.2.2v.59c0,.14-.06.2-.18.2H52.09a.18.18,0,0,1-.2-.2v-.59c0-.13.17-.2.5-.2q4.14,0,4.14-3.55V23.42q0-2.9-3.45-3.08c-.34,0-.52-.09-.52-.22v-.47c0-.13.06-.2.18-.2H65.2c.13,0,.19.07.19.2v.47c0,.1-.15.15-.47.15-2.36,0-3.55,1.17-3.55,3.5V35.22a.46.46,0,0,0,.08.32.48.48,0,0,0,.32.08H81.33a.48.48,0,0,0,.32-.08.46.46,0,0,0,.08-.32V23.37a2.35,2.35,0,0,1-.07-.41,5.39,5.39,0,0,0-.08-.58q-.18-.84-1.77-1.38a14.87,14.87,0,0,0-3.59-.68.18.18,0,0,1-.2-.2v-.47c0-.13,0-.2.17-.2H90.51a.18.18,0,0,1,.2.2v.47c0,.1-.16.15-.47.15q-3.67,0-3.67,3.5Z"/><path class="cls-1" d="M107.87,54.3c0,.13-.06.2-.19.2H95c-.13,0-.19-.07-.19-.2v-.6c0-.13.1-.19.32-.19a4.8,4.8,0,0,0,4.59-3.62L109.84,20.6a.37.37,0,0,0,0-.12l-.27-.82c0-.08,0-.12.1-.12h5l.14.05s.1.06.13.15l10.5,29.43a12.29,12.29,0,0,1,.56,1.21,5.7,5.7,0,0,0,.48,1,3.83,3.83,0,0,0,2,1.57,4.7,4.7,0,0,0,2.08.57c.13,0,.2.07.2.22v.57a.18.18,0,0,1-.2.2H115.32a.18.18,0,0,1-.2-.2v-.6c0-.13.31-.21.92-.24l1.51-.1c2.3-.25,3.45-1,3.45-2.33a1.18,1.18,0,0,0,0-.35l-3.74-10.56-.1-.23a1.08,1.08,0,0,0-1-.84h-8.82a1.28,1.28,0,0,0-1.16.82,1,1,0,0,0-.08.2L102.29,51v.22a1.48,1.48,0,0,0,.67,1.17A6.5,6.5,0,0,0,107,53.51h.65a.17.17,0,0,1,.19.19Zm7.35-18c.3,0,.45-.13.45-.37a1.36,1.36,0,0,0-.1-.45l-3.7-10.17c-.17-.44-.29-.66-.37-.66s-.22.23-.4.69l-3.47,10.14a1.35,1.35,0,0,0-.1.53c0,.19.12.29.37.29Z"/><path class="cls-1" d="M148.48,54.21a.18.18,0,0,1-.2.2H133.69c-.12,0-.18-.06-.18-.2v-.47c0-.13.36-.2,1.06-.22a6.57,6.57,0,0,0,2.58-.78,2.45,2.45,0,0,0,1.53-2.3v-27q0-2.8-5-3.1a.18.18,0,0,1-.2-.2v-.47c0-.13.06-.2.18-.2h14.59a.18.18,0,0,1,.2.2v.47c0,.1-.34.15-1,.15a5.27,5.27,0,0,0-2.27.6,2.67,2.67,0,0,0-1.66,2.6V34.4c0,1.46.14,2.18.42,2.18a4.75,4.75,0,0,0,2.7-1.35,25.07,25.07,0,0,0,2.91-2.79,28.9,28.9,0,0,0,2.54-3.4c.85-1.32,1.44-2.22,1.78-2.69,1.24-1.76,1.86-3.07,1.86-4a1.73,1.73,0,0,0-1.14-1.77,6,6,0,0,0-2.14-.3h-.25a.18.18,0,0,1-.2-.2v-.47a.18.18,0,0,1,.2-.2h14.35a.18.18,0,0,1,.2.2v.47a.27.27,0,0,1-.3.3,11.81,11.81,0,0,0-4.64.83,9.18,9.18,0,0,0-2.35,1.6,13.18,13.18,0,0,0-1.92,2.63,45.56,45.56,0,0,1-6.33,8.6,6.15,6.15,0,0,0-1.39,1.69,19,19,0,0,0,2,2,72.91,72.91,0,0,1,10,11.83A8.1,8.1,0,0,0,167,53.1a16.14,16.14,0,0,0,2.66.49c.38,0,.56.07.56.2v.42c0,.14-.06.2-.2.2H153.79a.18.18,0,0,1-.2-.2v-.47c0-.13.28-.22.85-.27,1.87-.17,2.8-.71,2.8-1.64s-1.78-3.21-5-6.86c-.58-.65-1.18-1.37-1.81-2.16q-3.76-4.64-6.2-4.64h-.48c-.16,0-.24.12-.24.35v11.6c0,2.32,1.59,3.47,4.76,3.47a.18.18,0,0,1,.2.2Z"/><path class="cls-1" d="M168.21,54.21v-.69a.18.18,0,0,1,.2-.2H169c.7,0,1.41-.08,2.14-.09a7.14,7.14,0,0,0,2-.26,2.74,2.74,0,0,0,2-3V23.87q0-2.46-2.9-3.13c-.55-.11-1.11-.21-1.67-.3H170c-.13,0-.2-.06-.2-.19v-.6a.18.18,0,0,1,.2-.2h23.6a1.08,1.08,0,0,1,.65.16,1.11,1.11,0,0,1,.25.71l.44,7.19c0,.17-.12.25-.37.25a.65.65,0,0,1-.54-.22,8.08,8.08,0,0,1-.39-1.81,7.29,7.29,0,0,0-.85-2.61,3,3,0,0,0-2.19-1.31H180.27a.29.29,0,0,0-.32.32V35a.22.22,0,0,0,.25.25h8.58q3.33,0,3.33-3.87a.18.18,0,0,1,.2-.2h.59a.18.18,0,0,1,.2.2V41.94a.18.18,0,0,1-.2.2h-.59a.18.18,0,0,1-.2-.2q0-3.67-2.13-4.24a5.2,5.2,0,0,0-1.27-.15H180.2a.22.22,0,0,0-.25.25V49.87A1.86,1.86,0,0,0,181.66,52a7,7,0,0,0,1,.08H191a4.46,4.46,0,0,0,4-2.26,8.51,8.51,0,0,0,1.24-3.69.68.68,0,0,1,.75-.7c.19,0,.29.11.29.32l-.82,8.33c-.1.24-.21.35-.34.35H168.41C168.27,54.41,168.21,54.35,168.21,54.21Z"/><path class="cls-1" d="M200.54,54.41c-.13,0-.2-.16-.2-.49v-.3a.18.18,0,0,1,.2-.2,4,4,0,0,0,.47-.05l.67-.1c.24,0,.45-.07.65-.11l.42-.09a2.78,2.78,0,0,0,2.53-2.87V24a3.13,3.13,0,0,0-1.71-3,4.61,4.61,0,0,0-2.18-.55h-.95c-.13,0-.2-.06-.2-.19v-.6c0-.13.1-.2.3-.2l13.63-.37h2.51A11.25,11.25,0,0,1,224,22.27a9.51,9.51,0,0,1,3,7.11A7.51,7.51,0,0,1,223.48,36a18.28,18.28,0,0,1-2.36,1.28l7.52,12.28a10.6,10.6,0,0,0,5.26,4.53.34.34,0,0,1,.27.35c0,.41-.27.62-.82.62a10.66,10.66,0,0,1-8.88-4.24c-.48-.63-1-1.33-1.44-2.11L216.6,38.62l-5.91-.27h-.19c-.25,0-.38.11-.38.34V50.12a2.58,2.58,0,0,0,.77,2,5.15,5.15,0,0,0,2.66.91l1.21.21a6.8,6.8,0,0,0,1,.14c.18,0,.27.07.27.2v.59a.18.18,0,0,1-.2.2Zm11.59-34-.63,0-.86,0c-.34,0-.52.15-.52.41v15l0,.74c.05.35.21.53.47.55l2.54.14q7,0,8.41-4.95a12.62,12.62,0,0,0,.47-3.58,8,8,0,0,0-2.44-6.17,8.87,8.87,0,0,0-6.25-2.26l-.64,0Z"/><path class="cls-1" d="M27.74,63.1c.08.32.37.7-.28.76-.15,0-.2.2-.15.36s.18.1.29.12.54-.39.6.21.08.81-.49.89a.24.24,0,0,0-.22.3c.05.16.21.26.34.18.46-.27.43,0,.53.35A4.38,4.38,0,0,0,29,67.71c.17.21.51.45.07.79-.19.15-.07.31.15.46a.61.61,0,0,1,0,1.12c-.31.24-.28.37.1.53.69.28.74.66.15,1.08-.39.28-.31.45.09.55a.42.42,0,0,1,.33.59c-.35,1.14,0,2.45-.68,3.48a11.68,11.68,0,0,1-1.19,2c-.54.52-1,1.07-1.88.74-.08,0-.27.1-.34.2s0,.24.08.32a1.11,1.11,0,0,1-.36,1.79c-.51.32-.71.87-1.16,1.21-.64.5,0,1,.09,1.51s.17.59-.12.92a.62.62,0,0,0,.11,1c.21.14.22.28.08.41s-.27-.08-.39-.16c-.44-.3-.05-.76-.25-1.13s-.14-.81-.74-.68c-.25,0-.3-.22-.4-.39a5,5,0,0,0-1.43-1.64c.67-.16,1.29-.3,1.92-.47.13,0,.38,0,.29-.31,0-.13-.06-.22-.27-.23-.88,0-.55-.75-.32-1s.22-.36,0-.65-.44-.79.08-1.17a.67.67,0,0,0,.22-.62c.43.74,1.1.38,1.74.43-.39-.59-.69-1.18-1.46-1.27-.1.29.25.73-.27.86-.34.18-.73.36-.58-.3s-.7-1.53.21-2.16c-.52-.46-.28-1-.14-1.51a13.71,13.71,0,0,1,2.11-4.41,9.08,9.08,0,0,0,1.17-1.76,7.81,7.81,0,0,0,.93-3A3.84,3.84,0,0,1,27.4,63ZM25.09,76.76c.13-.41.83-.28.76-.68-.18-1,.13-1.47,1.06-1.66.16,0,.22-.15.16-.32s-.2-.18-.34-.16a1.08,1.08,0,0,0-.74.41A3.13,3.13,0,0,0,25.09,76.76Zm2.61-.07c.38-.48-.07-.76-.28-1.09-.09-.15-.23-.15-.35,0a.18.18,0,0,0,0,.29c.64.23.15.57.08.85a5.51,5.51,0,0,1-.28.61c-.06.15-.12.35,0,.48s.31,0,.47-.06C28.09,77.6,27.62,77.05,27.7,76.69Z"/><path class="cls-1" d="M122.71,232a6.3,6.3,0,0,1-2,.86c-.42,0-.92.5-1.29-.15a.52.52,0,0,0-.43,0c-.94.74-1.92.45-2.91.16-.1,0-.2-.11-.29-.09-2.39.42-4.68-.38-7-.53-1-.07-2.12-.48-3.2-.09-.12,0-.41.18-.46-.18,0-.14-.19-.17-.32-.15a20.29,20.29,0,0,1-4.92-.34.58.58,0,0,0-.47.23c-.36.36-.67.83-1.27.43a.13.13,0,0,0-.15,0c-1,1.18-2.45.86-3.65,1.36-.84.35-1.92.25-2.31,1.4a.59.59,0,0,1-.85.42c-.19-.1-.51-.15-.6.16s.25.33.44.44a3.5,3.5,0,0,1-1.4.84c-.18-.25.06-.3.13-.41.21-.27.63-.58.31-.89a.93.93,0,0,0-1.21-.23c-.36.27-.59.22-.83-.12a.56.56,0,0,0-.76-.19c-.32.17-.06.36,0,.56s-.18.29-.33.33a4.43,4.43,0,0,1-.88.24c-1.17-.43-2.19.59-3.33.28s-2.39-.79-3.56-1.23a.44.44,0,0,1-.24-.66c.08-.12.29-.23.07-.36s-.42-.33-.63-.08c-.45.55-.66.17-.84-.21-.35-.72-1.18-.81-1.68-1.32,0,0-.37-.11-.39.17s.09.59.51.62A5.07,5.07,0,0,1,77.83,235c-.23-.21-.37.15-.55.09s-.72.23-.57-.4c.05-.24-.19-.35-.39-.42a10.92,10.92,0,0,1-3-1.61c-.4-.3-.83-.13-1.19-.37a12.38,12.38,0,0,1-1.43-.91,2.33,2.33,0,0,0-2.13-.69c-.43.08-1-.45-1.49-.7-.34-.18-.64-.48-1-.44s-.75,0-.3-.48c.17-.2,0-.4.09-.59a5.68,5.68,0,0,0,2.62.59,1.58,1.58,0,0,1-.28.43c-.24.25.07.42.23.57s.34.21.36,0,.35-.85-.33-1c1.13-.08,2.27-.18,3.41-.24.23,0,.41.11.45.42a.43.43,0,0,0,.47.34c.34-.06.19-.28.1-.47s0-.2.13-.21.11,0,.15,0c.85-.32,1.74,0,2.66-.28a24.85,24.85,0,0,1,2.83-.58,1.86,1.86,0,0,1,1.69.25c.31.28.57,0,.56-.22,0-.63.41-.52.67-.41.87.37,1.79.12,2.67.34.29.08.5-.63,1-.18.8.77,2.24,1,2.51,2.11.2.81.67.62,1.08.88a3.23,3.23,0,0,1,1.57,1.64,1.56,1.56,0,0,0,1.56.64c1.2-.25,2.49-.19,3.57-.92a1.85,1.85,0,0,1,.9-.19c.44,0,.86-.13,1-.68.08-.25.26-.56.67-.26.1.08.35,0,.52,0a.21.21,0,0,0,.21-.27.2.2,0,0,0-.21-.19c-.73,0-1.31-.57-2.07-.55-.27,0-.71-.05-.69-.63,0-.24-.7.07-.74-.45.28-.07.68.43.85-.17a3.13,3.13,0,0,1,.8.67c.1.16,0,.44.34.38a.71.71,0,0,0,.55-.48.73.73,0,0,0-.09-.73c-.24-.39.65-.41.24-.79-.25-.22-.62.08-.88-.14a.59.59,0,0,1-.19-.23,3.8,3.8,0,0,0-.64-1.55,16.74,16.74,0,0,1-1.12-1.64c-.41-.59-.61-1.29-1-1.87-.09-.12-.12-.26.1-.22.37.06.34-.19.28-.38a.42.42,0,0,0-.57-.19c-.25.4-.38.14-.53,0l-.88-1.06c.19-.21.66,0,.62-.45,0-.21-.2-.2-.33-.26-.43-.18-.35.24-.45.49-.35-.53-.67-1-1-1.46-.09-.15-.28-.4.17-.32.2,0,.15-.16.14-.28s0-.36-.24-.34c-.66.07-.71-.47-.92-.86a3.39,3.39,0,0,1-.6-2,18.21,18.21,0,0,0,0-2.22c.12-1.24.33-2.46.5-3.69,0-.1,0-.26,0-.3.9-.66.67-1.76,1-2.64.22-.66.82-1.19.73-2a.4.4,0,0,1,.56-.35c.21.07.35.05.41-.19a.3.3,0,0,0-.22-.43c-.27-.06-.46-.29-.34-.48s.09-.63.52-.5c.23.08.26-.08.32-.23s-.06-.33-.25-.38c-.44-.1-.36-.43-.34-.73,0-.47.4-.26.64-.3a.53.53,0,0,0,0-.16c-.09-.27-.53-.57-.14-.8s.57.36.61.53c.18.67.73,1.28.27,2.09-.22.39.34.56.58.42.56-.31.7,0,.95.4a14.34,14.34,0,0,0,1.66,2.15c.19.19.21.5.34.75a18,18,0,0,0,2.1,3.34.58.58,0,0,1,.1.2c-1,.66,0,.59.27.82a5.61,5.61,0,0,1,1.27,2.17c.07.17-.06.19-.17.27-.28.2-.3.43.11.46s.54.08.53.41,0,.6-.45.59c-.09,0-.23,0-.21.18a.33.33,0,0,0,.31.3c.3,0,.44.09.37.41s.12.59-.36.61c-.32,0-.34.31-.14.41a.49.49,0,0,1,.14.73c-.42.68-.79,1.45-1.63,1.76-.25.09-.39.07-.49-.18s-.31-.18-.51-.1-.32.23-.22.48a2.22,2.22,0,0,1,0,.37c.17,1-.18,1.32-1.12,1-.34-.12-.56-.21-.78.16s-.54.23-.83.12-.69-.48-.42.31c.07.21.38.78-.2,1-.11.05-.07.4.06.39,1,0,.74,1,1.16,1.48a1,1,0,0,1,.21,1.13c-.13.24.11.33.27.37s.43.08.43.26c0,1,1,1.46,1.39,2.24a10,10,0,0,0,1.67,1.73,2.87,2.87,0,0,0,2.28.63c.27,0,.62-.09.45.41-.06.17,0,.31.22.29a.71.71,0,0,0,.4-.15c.16-.13-.5-.45.13-.4.34,0,.63-.07.81.35s.39.37.68.07.64-.31.94.12a.43.43,0,0,0,.79-.1c.17-.42.38-.42.77-.34,1.43.27,2.87.49,4.31.73a7.09,7.09,0,0,0,1.22-.1l.46,0c1.61.08,3.21.06,4.82.07.24,0,.43,0,.53.24s.35.44.53.31.11-.46-.08-.73c.58.07,1.07-.5,1.66-.14,0,0,.11-.06.15-.11.38-.51.71-.53,1.11-.05.06.07.13.12,0,.24-.39.5-.38.5.22.82Zm-30-21.09c-.59.16-.57.68-.66,1.1-.05.21.23.24.4.29s.24-.09.21-.23c0-.31.09-.24.29-.17.58.2.91-.32,1.35-.51,1-.45-.05-.88,0-1.32,0-.24-.23-.49-.22-.73,0-.53-.44-.8-.56-1.24a.39.39,0,0,0-.3-.2c-.19,0-.16.22-.22.35-.23.55-.35,1.31-.77,1.58-.64.4-.15.49,0,.7S92.61,210.59,92.7,210.86Zm-7,20.26c.3-.15.44-.52.7-.39.43.22.34-.17.43-.31s.26-.36,0-.47-.47-.33-.63-.1c-.36.51-.39-.24-.65-.14-.06,0-.12-.17-.07-.26s.39.07.57-.07.32.25.5-.18c-.46.18-.86-.85-1.27.13a.22.22,0,0,1-.19.08c-.39-.27-1,.13-1.31-.41-.07-.11-.3-.1-.42-.19s-.4-.2-.51.12-.36.53,0,.73a1.09,1.09,0,0,0,1,.12c.47-.2.68,0,.22.69,1-.84.62.07.92.22-.27,0-.42.07-.58.08s-.53-.05-.63.31c0,.15,0,.25.13.31a.51.51,0,0,0,.73-.18c.21-.28.49-.18.7.1a1,1,0,0,1,.15.9C86.46,231.61,86.47,231.55,85.72,231.12Zm7.62-17.72c.06.27.23.39.28.6.14.52-.75.87-.18,1.49.12.13-.06.22.42.37.93.3.61-.65,1-.94.13-.11-.5-.11-.75-.31C94.46,213.9,94.39,213.4,93.34,213.4Zm-1.44.79c-.51.69.37.71.39,1.12,0,.25.24.24.42.26s.22-.07.21-.23c0-.61-.06-1.23-.17-1.83,0-.27-.36-.36-.64-.29s-.34.18-.21.32C92.19,213.85,92.1,214.06,91.9,214.19Zm2.27-10.4c-.11.28-.67,0-.5.26.35.51.32,1.23.91,1.59.19.12.37,0,.33-.11C94.71,205,94.45,204.42,94.17,203.79Zm-5.11,29.84c0,.74,1.4.23.93,1.27.14-.25.67-.07.56-.37s0-1.12-.82-.79C89.49,233.84,89.31,233.58,89.06,233.63Zm-4-1.48a6.21,6.21,0,0,0-.34.61c-.22.51-.21.93.48.56S85,232.57,85.11,232.15Zm27-.6c-.2.42,0,.7.27.72s.64.25.8-.17c.05-.14.14-.36-.18-.39A9,9,0,0,1,112.14,231.55Zm-16-18.76c.06.12-.42.27.1.46A.65.65,0,0,0,97,213c.14-.36-.36-.44-.57-.61S96.23,212.61,96.1,212.79ZM82.68,233.6c-.17,0-.38-.27-.46.1s-.13.52.22.64.45-.09.58-.34C83.26,233.54,82.72,233.8,82.68,233.6ZM97,214.93c.33,0,.12-.64.59-.45a.57.57,0,0,0,.15-.24c0-.19-.15-.14-.26-.18-.31-.09-.71-.07-.85.15S97,214.64,97,214.93Zm-10.66,17a1.2,1.2,0,0,0,1.3.25c.15,0,.28-.12.24-.25s-.18-.16-.3-.2C87.17,231.57,86.92,232,86.35,231.9Zm22.69-.66a.83.83,0,0,0-1-.61.25.25,0,0,0-.16.37C108.17,231.37,108.6,231.21,109,231.24Zm-30.49,1.57a1.21,1.21,0,0,0-.08-.52c-.09-.45-.71-.49-.75-.08C77.67,232.78,78.36,232.47,78.55,232.81Zm16-15.45a.39.39,0,0,0-.35-.47c-.37-.06-.45.37-.73.46l.13.27C93.86,217.37,94.31,217.68,94.54,217.36ZM79.45,230.91c.07-.18-.15-.2-.3-.28a.36.36,0,0,0-.56.19c-.11.26.09.3.25.38S79.27,231.23,79.45,230.91Zm18-15.69c-.39,0-.19.46-.49.47s-.23.25-.17.39.32.24.53.18.2-.27.07-.41S97.47,215.46,97.42,215.22Zm-17.56,14a.32.32,0,0,0-.49.21c-.09.3.18.32.35.41s.32,0,.41-.2S80.05,229.29,79.86,229.22Zm15-16.62c-.12.29.18.23.3.29s.42.19.49-.15-.08-.38-.31-.46S95,212.43,94.82,212.6Zm.33-8.19c-.07.23.07.34.29.42s.4,0,.47-.24-.17-.32-.35-.4S95.21,204.13,95.15,204.41Zm.19,11.06c-.17-.09-.4-.06-.37,0a2.16,2.16,0,0,0,.44.85c.17.17.16-.4.45-.24C95.89,215.68,95.48,215.66,95.34,215.47Zm-11,18.71c-.29-.13-.47-.06-.59.19s.07.29.24.34.45.06.57-.2S84.42,234.25,84.33,234.18Zm-9-1.69c-.48-.27-.68-.7-1.14-.57a.24.24,0,0,0-.14.32C74.29,232.75,74.74,232.39,75.31,232.49Z"/><path class="cls-1" d="M83.74,238.82c.1-.52-.41-.28-.48-.27-.6,0,0-.5-.32-.63-.1,0,.1-.06.16,0a.44.44,0,0,1,.21.07c.19.1.48.12.55,0,.53-.84,1.66-.33,2.26-1.05.2-.24.55.15.77.25a1.19,1.19,0,0,0,1.46-.18c.2-.18.41-.23.59-.07s0,.4-.09.58a3,3,0,0,1-2.77,1.38c-.51,0-1-.07-1.53-.13a.47.47,0,0,0-.52.19Zm2.13-1.09c-.36,0-.77-.29-1,.23-.08.18,0,.21.14.26C85.52,238.47,85.62,238,85.87,237.73Zm1.59.1c-.42,0-.82-.13-1,.33-.08.24.15.18.26.23C87.22,238.6,87.31,238.24,87.46,237.83Z"/><path class="cls-1" d="M77.94,235.64a6.7,6.7,0,0,1,1.82.69c.28.15.28.3.27.71,0,.14.24.29.37.42s.13.23.26,0c.34-.54.66,0,1,.06s.19.81.8.41c.09-.06,0,.33,0,.5L80,237.77c0-.24-.24-.27-.38-.38s-.22-.14,0-.43.18-.44-.09-.57-.43-.16-.64.12c-.09.12.14.51-.23.36-.16-.06-.44-.17-.33-.47S77.74,236,77.94,235.64Z"/><path class="cls-1" d="M24.39,153.4l-.13.81c1.15-.22.42.57.5.92s.37.26.59.31.58.06.67-.32c.06-.22.18-.47-.16-.59s-.74-.34-.41-.63.58-.7.29-1.11c-.15-.2-.66-.39-.81-.29A1.13,1.13,0,0,0,24.39,153.4Z"/><path class="cls-1" d="M39.34,130.72c-.67,0-.63.68-.83,1s.11.71.52.78c.81.12.63-.72.9-1.08S39.57,131,39.34,130.72Z"/><path class="cls-1" d="M36,138.93a2.12,2.12,0,0,1-1.13-.74.47.47,0,0,0-.81,0c-.14.2-.27.33-.08.62C34.5,139.72,35.11,139.26,36,138.93Z"/><path class="cls-1" d="M12.26,155.08c-.51.18-1.23,0-1.42.76-.08.31.06.5.42.43.51-.09,1.1,0,1.34-.64C12.7,155.34,12.62,155.12,12.26,155.08Z"/><path class="cls-1" d="M30.63,140.09c.39-.27.49-.88,1.15-.74.22.05.36-.35.27-.41-.55-.34,0-.41.11-.59s.46-.51.67-.78.49-.62.79-.63c1.39,0,1.62-1.33,2.33-2.08.28-.3.44-.71,1-.6.32.06.32-.19.27-.44s-.12-.76.32-1a.36.36,0,0,0,.12-.4c-.21-.85.69-1.25.79-2,0-.16.28-.08.37,0s.41.46.13.62-.22.5-.23.76.19.68-.28.87c-.12.06-.15.3,0,.47a.57.57,0,0,1,0,.74.79.79,0,0,0-.2,1c.21.44.11.81-.51.51a.39.39,0,0,0,.23.53c.83.29.67.91.55,1.52,0,.14-.13.26,0,.38.94.68.4,1.74.62,2.6.08.31-.71,0-.61.49.05.24.58.3.39.74-.3.72.17,1.66-.61,2.26a.19.19,0,0,0,0,.13c.49.24.37.64.23,1a7.13,7.13,0,0,1-1.4,2.11,1,1,0,0,1-.86.23c-.46-.24-.63,0-.81.29-.08.15-.31.23-.23.43s.3,0,.46.05a2.4,2.4,0,0,0,.28,0,.37.37,0,0,1-.27.34c-1.27.31-2.44.93-3.73,1.18-.23,0-.22.1-.32-.17a.37.37,0,0,0-.71,0,3.81,3.81,0,0,1-2.9,2.42c-.14,0-.2.26-.4.26.14.34.62.06.64.43s-.35.58-.62.75-.49.21-.43.58a.39.39,0,0,1-.34.41c-.59.1-.61.56-.67,1-.14,1.15-.28,2.3-.41,3.45,0,.16.07.3-.11.45s-.24.38.12.56a.47.47,0,0,1-.17.86c-.37,0-.19.3-.23.42-.1.29.2.14.31.16a1.44,1.44,0,0,0,.47-.06c-.2.86.38,1.57.53,2.38.08.44-.67.3-.3.72.24.26.82,0,.82.3,0,1.25,1.05,2,1.41,3a12,12,0,0,0,.9,2.38c.07.1.14.28.09.34-.55.8.25,1,.61,1.36a3.52,3.52,0,0,1,.56,1l.37.72c.13.26.34.1.52.08s.2-.23.14-.34c-.35-.71.08-1.34.19-2,.08-.42.4-.72.91-.36,0-.27,0-.46-.14-.6a4.27,4.27,0,0,1-1.44-2.9,2.4,2.4,0,0,0-.26-1.19c-.1-.15-.47-.76.34-.62.1,0,.26-.34,0-.54-.83-.67-.81-.8.13-1.2.06,0,.11-.09.19-.16-.79-.09-.6-.65-.58-1.12,0-.15.05-.17.29-.12s.37.22.45-.11a.29.29,0,0,0-.24-.39c-.43-.06-.39-.31-.33-.64s.28-.32.53-.26.29,0,.33-.19,0-.36-.21-.39-.45-.17-.37-.54.22-.46.56-.38.38-.09.4-.31-.36,0-.43-.29a6.08,6.08,0,0,0,1.7-1.69s0-.06,0-.07c1-.33,1-1.42,1.57-2.05s1.12-1.5,2.17-1.55c.17,0,.2-.11.23-.22s0-.25-.09-.32c-.75-.33-.27-.74,0-1.1s.39-.38.54-.59.33-.32.56-.19a.47.47,0,0,1,.28.59,10.32,10.32,0,0,1-.37,1.11,2.93,2.93,0,0,0-.19,1.15c0,.33.22.84-.48.93-.27,0-.2.43.12.5.73.16.87.83,1.19,1.35,0,0,.25.41-.23.27-.27-.08-.18.29,0,.44a1.67,1.67,0,0,1,.55,1.74c0,.13,0,.28.07.33,1,.46.44,1.31.47,2,.09,1.69-.75,3.2-1.14,4.81-.09.37-.17.38-.78.26.3,1.21-.76,1.58-1.38,2.19a9.81,9.81,0,0,1-2.59,1.64A1.93,1.93,0,0,0,33.15,172c-.27.06-.51-.41-.71-.07s.05.44.33.56c.49.2.25.75.19,1-.41,1.24.21,2.43.1,3.65,0,.32.5.57.83.74a.92.92,0,0,1,.56,1c-.06.5.61.69.45,1.26a1.54,1.54,0,0,1-1.21-.44,1.54,1.54,0,0,0-.47-.31c-.29-.08-.24-.1-.2-.46a.55.55,0,0,0-.28-.56,9.59,9.59,0,0,1-1.87-2.05A18.13,18.13,0,0,1,29,173a10,10,0,0,1-.65-1.49c0-.1-.06-.28,0-.33.53-.49.14-.58-.27-.74a1.69,1.69,0,0,1-.86-1c-.34-.87-1.19-1-1.85-1.48-.5-.33-1.22-.36-1.37-1.12-.68.1-1.05-.7-1.82-.51-2.32.56-4.1-.42-5.63-2.09a14,14,0,0,0-1.84-1.69c-.39-.29-.88-.85-.85-1,.14-.73-.51-.74-.76-1.08s-.41-.83-.66-1.22.4-.64.3-1-.68,0-.71-.57a32.59,32.59,0,0,1-.09-4.42c0-.37.26-.28.44-.34s.18-.14.2-.27,0-.21-.15-.19c-.56.11-.46-.32-.54-.62s-.57-.87-.35-1.3c.43-.85,0-1.58-.12-2.37-.06-.37-.26-.84.3-1.09a.19.19,0,0,0,0-.35c-.08,0-.37,0-.14-.21s.24-.3.41,0c.34.49.76.91.56,1.65-.09.29.28.74.27,1.15,0,.67.64.74,1,1.05s.51.39.11.83c.89-.32,1.3.21,1.81.64s1.28.32,1.83.81a9.44,9.44,0,0,1,1.08.94c.55.65,1.15,1.27,1.68,1.92A7.88,7.88,0,0,1,21.47,159c.07.38-.59.2-.49.61s.73,0,.66.4c-.17.78.41,1.38.4,2.11a.73.73,0,0,0,.22.68.52.52,0,0,1-.2.88c-.36.13-.27.36,0,.5a9.44,9.44,0,0,1,3.06,1.75c.11.11.24.22.38.14s.09-.28.07-.45c-.06-.48-.59-.95-.05-1.47.14-.13,0-.32-.2-.36-.47-.07-.16-.43-.24-.65-.12-.37.2-.22.35-.24s.2-.12.21-.25-.07-.32-.23-.33c-.52,0-.49-.37-.58-.75a4,4,0,0,1-.18-2.08,4.77,4.77,0,0,0-.21-1.33c-.17-1-.51-2,0-3-.52-.69,0-1.08.4-1.54a.19.19,0,0,0-.16-.32c-.38,0-.33-.35-.32-.55s.24-.33.47-.37.15-.08.21-.06c.41.11.5-.25.45-.44-.09-.34-.4,0-.62-.08s-.23.55-.44.15c-.12-.22.05-.58.08-.88.3.09.54-.65.92,0,.23.39.55-.11.84-.14,0,.42.23.83,0,1.25a.22.22,0,0,0,.16.34c.3,0,.7.14.85-.2.36-.85,1.16-1.4,1.47-2.31a1.35,1.35,0,0,1,1.31-.94c.66,0,.54-.76.95-1,.09-.06-.08-.12-.15-.17-.74-.54-.75-.87-.06-1.57a.29.29,0,0,0,.06-.34c-.3-.06-.34.49-.75.28-.21-.1-.63.25-.69-.27-.05-.34-.25-.74.28-.92.16,0,.35-.23.09-.35-.75-.34-.4-1-.33-1.44s0-1.05.73-1.15c.08,0,.33-.19.06-.44s-.14-.8.39-.85c.26,0,.56,0,.59-.3S30.84,140.34,30.63,140.09Z"/><path class="cls-1" d="M24.39,153.4l-.13.81c1.15-.22.42.57.5.92s.37.26.59.31.58.06.67-.32c.06-.22.18-.47-.16-.59s-.74-.34-.41-.63.58-.7.29-1.11c-.15-.2-.66-.39-.81-.29A1.13,1.13,0,0,0,24.39,153.4Z"/><path class="cls-1" d="M39.34,130.72c-.67,0-.63.68-.83,1s.11.71.52.78c.81.12.63-.72.9-1.08S39.57,131,39.34,130.72Z"/><path class="cls-1" d="M36,138.93a2.12,2.12,0,0,1-1.13-.74.47.47,0,0,0-.81,0c-.14.2-.27.33-.08.62C34.5,139.72,35.11,139.26,36,138.93Z"/><path class="cls-1" d="M12.26,155.08c-.51.18-1.23,0-1.42.76-.08.31.06.5.42.43.51-.09,1.1,0,1.34-.64C12.7,155.34,12.62,155.12,12.26,155.08Z"/><path class="cls-1" d="M50.27,187c0-.36-.29-.89.24-1,.28,0,.63.2.86-.16-.53-.52-.53-.73.3-1.84.23-.31.38-1.09,1.09-.34a2.63,2.63,0,0,1,.93-2.32.38.38,0,0,1,.42.07c.18.11.27.33.14.47-.59.62-.09,1.54-.63,2.19-.17.21.07.55.33.59.8.13.94.9,1.38,1.36a7.08,7.08,0,0,1,1.4,3.15c.32.08,0-.33.25-.31a.37.37,0,0,1,.33.36,28.13,28.13,0,0,1,.64,4c0,1.14-.55,2.24-.59,3.41,0,.23-.21.23-.41.13s-.36.08-.3.29a1.74,1.74,0,0,1-1.43,2.22c-.28,0-.34.21-.29.33.25.56-.2.81-.5,1a1.43,1.43,0,0,0-.46,1.68c.22,1.09,1.26,1.74,1.5,2.83,0,.11.24.19.37.25,1.14.56,2,1.49,3.09,2.12.23.13.46.18.43.53s.3.33.45.32c.49,0,.84.41,1.21.46.77.11.68.78,1,1.16.18.21-.09.22-.18.31a.37.37,0,0,1-.62-.1c-.16-.76-.52-.75-1.09-.42-.16.09-.39-.05-.36-.41s-.37-.67-.83-.41c-.21.12-.35.15-.49-.11-.25-.47-.75-.6-1.19-.84-1.42-.75-2.94-1.29-4.29-2.18-.12-.07-.34-.09-.26-.3.21-.5-.16-.68-.46-.64-.52.07,0,.47-.13.75-.67-.22-1.25-.65-1.88-.83-1-.29-1.81-1-2.87-1-.12,0-.25-.09-.37-.1-.49,0-.46-1.17-.83-.7s-.7.44-1.15.37-.94-.16-1.41-.19a2,2,0,0,0-1.51.62c-.35.3-.69.54-1.14.18-.29-.24-.41,0-.36.21.16.65-.34.45-.63.53s-.46.11-.45-.21a.6.6,0,0,1,.52-.67,1.26,1.26,0,0,0,.6-.34c-.84.19-1.69.35-2.53.47a6.35,6.35,0,0,1-2.38,0c-.2,0-.27.12-.41.11-.31,0-.69.23-.82-.36-.05-.21-.5-.83-.65.06,0,.09,0,.08-.24.06A7.55,7.55,0,0,1,31.1,203c-.3-.16-.63-.12-.71,0s.21.33.4.46a8.61,8.61,0,0,0,1.19.81c.21.11.33.23.61.12s.72-.14.53.43c-.11.35.2.43.36.6s.18,0,.24-.08c.25-.31-.1-.43-.23-.68a3.93,3.93,0,0,1,1.12.12,5.71,5.71,0,0,0,3.4,0,.62.62,0,0,1,.67.2c0,.06.14.57-.4.47-.31-.07-.16.58-.65.61s-.6.25-.86-.22-.4-.37-.52.09-.31.2-.44.13a2.93,2.93,0,0,0-2.08-.2,2.27,2.27,0,0,1-1.53-.43c-.61-.36-1.4-.43-1.84-1.05-.28-.4-.72-.14-1.09-.33a16.53,16.53,0,0,1-2.34-2,7.11,7.11,0,0,1-1.1-1c-.1-.11-.31-.24-.16-.46.41-.64-.18-.67-.49-.66-.5,0-.92,0-1.11-.55-.1-.25-.21-.18-.38-.11a.39.39,0,0,1-.53-.15.29.29,0,0,1,0-.35.38.38,0,0,1,.54-.11,1.08,1.08,0,0,0,1.08.09.22.22,0,0,1,.22.06c.33.74,1.08.33,1.58.58a1.26,1.26,0,0,1,.63.42.37.37,0,0,0,.53.07c.17-.14.23-.27,0-.46s.07-.24.16-.23c1,.1,1.91-.28,2.88-.22.41,0,.74-.4,1.11-.59.81-.42,1.65,0,2.45-.28.25-.08.31.64.71.74.37-.37-.08-.57-.2-.83.62-.17,1.2-.52,1.7.19.15.21.43.17.39-.12-.06-.47.18-.32.42-.29a8,8,0,0,0,1.39.31c.25,0,.41.2.52.41s.23.82.87.5c.22-.1.36.41.47.67s-.05.33,0,.36a3.62,3.62,0,0,1,1.55,1.66s.17.08.19.05c.78-.74,1.65-.21,2.42-.07.93.16,1.81.55,2.75.72a.51.51,0,0,1,.39.3c.16.29.34.9.8.17.2-.32.5.14.82.06-.19-.94.22-.77.7-.34.22-.14-.13-.4.25-.53.6-.21.74.4,1.19.49-.2.11-.49-.1-.5.25s.21.34.36.47.27.09.34-.11,0-.37.26-.14.44.08.46.43c0,.59.13.65.66.45.18-.08.2,0,.27.09s.31.2.31,0,.32-.48.08-.5c-.65-.07-.5-.67-.82-1,.21-.12.49.23.58-.15s-.06-.42-.31-.53c-.45-.21-.35.3-.58.45a3.38,3.38,0,0,1-.82-1.66c-.25-.8-.47-1.63-.67-2.42-.28-1.1-1.09-1.8-1.45-2.78-.07-.18-.15-.41,0-.51.39-.39,0-.56-.12-.9a5,5,0,0,1-.75-3.08c.15-.81,0-1.74.82-2.3a.31.31,0,0,0,0-.3c-.36-.54.11-.75.42-1l1,.8C51.25,187.36,50.8,187.14,50.27,187Zm-15,15.94c.13-.29.42-.73.24-.82a1.83,1.83,0,0,0-1.19-.07C34.47,202.55,34.89,202.69,35.28,202.93Zm4.35-1.36c-.17-.12-.28,0-.39.22s-.06.45.18.62.42,0,.4-.09S40.09,201.77,39.63,201.57Zm-8.34-1.19c.28-.32,0-.63,0-.91s-.38-.37-.59-.2-.08.39.14.55A3.29,3.29,0,0,1,31.29,200.38Zm22.1-12.86c0,.48.29.69.6.95C54.31,187.81,54,187.6,53.39,187.52ZM35.7,202.8a1,1,0,0,0,.49,1c.09.06.21-.07.21-.15C36.45,203.21,36.08,203.07,35.7,202.8Z"/><path class="cls-1" d="M28.65,91.51A2,2,0,0,1,30.19,94c0,.11-.17.22-.14.29.13.35,0,.88.42,1s.42-.36.61-.57a6,6,0,0,1,1.43-1.46,1.18,1.18,0,0,0,.49-.92,1.16,1.16,0,0,1,.34-.83c.66-.45.46-1,.22-1.57a7.76,7.76,0,0,1-.27-4.79c.15-.67.61-.47,1.11-.53-.86-.82,0-1.25.28-1.81s.59.22,1,0c-.4-.5-.19-.95.15-1.38,0,0,.06-.14.08-.14,1.11.14,1.17-1.2,2.11-1.47s1.11-1.34,1.63-2c.2-.26.31-.58.48-.85s.28-.37.54-.29a.36.36,0,0,1,.3.44c0,.22,0,.54-.39.51-.17,0-.33,0-.29.26s.15.38.3.32c.82-.3.66.43.68.73a8.27,8.27,0,0,0,.86,2.64,2.3,2.3,0,0,1,.09,1.61c-.22-.2-.49-.48-.72-.13s.08.4.34.54c.55.28.56.7.11,1.12a.32.32,0,0,0,.08.58c.36.16.26.43.17.62a6.07,6.07,0,0,0-.36,1.84c-.16.8-.39,1.53-1.26,1.84-.35.13.15.36-.1.67a4.54,4.54,0,0,1-1.84,1.26,8.85,8.85,0,0,1-2.82.94c-.62.06-1.16.52-1.77,0-.16-.15-.23.08-.24.2A1.33,1.33,0,0,1,32.27,94c-.23,0-.39.06-.41.3,0,.44.45.2.6.44-.51.56-1.05,1.1-1.5,1.69-.31.4,0,.87.08,1.3.1,1.08.15,1.08-.71,1.92-.09.09-.1.2,0,.27l.78.49c-.32.27-.81.21-1.06.56h0a9.67,9.67,0,0,0-.16-2.4A.51.51,0,0,1,30,98c.13-.11.23-.33.08-.44-1.07-.76-.4-2-.77-2.91-.19-.45.38-.2.5-.35s-.07-.3-.22-.33c-.35-.08-.61-.13-.21-.56.17-.17.47-.65-.2-.75-.22,0-.13-.17,0-.29s.14-.2,0-.29-.2.07-.27.07c-.52,0-.16-.42-.3-.61Zm11.06-3.63a.65.65,0,0,0-.81-.07c.34.35.76.65.63,1.26a1.53,1.53,0,0,0,.66-1c.1-.31-.13-.19-.27-.17,0-.4.41-.52.64-.7A1.13,1.13,0,0,0,41,85.75a4,4,0,0,1,0-1.91,6.59,6.59,0,0,0-.07-2.5c-.53.39-.17,1.14-.76,1.41s-.45.42,0,.62.6.71.33.89c-.67.45-.2.69.18,1.07-1.13,0-1.14.56-1.11,1.36A6.13,6.13,0,0,1,39.71,87.88Zm-3.29,1.85c0-.12,0-.2,0-.28-.12-.57-.12-.56.49-.66a.33.33,0,0,0,.19-.14c.07-.11.06-.19-.08-.25a1.24,1.24,0,0,1-.73-1.19c0-.21-.08-.41-.31-.42s-.17.27-.27.35c-.56.5-.22.86.15,1.22.16.16.43.24.15.56s-.45.07-.64-.07a1.76,1.76,0,0,1-.72-1.35c0-.21.17-.65-.23-.67s-.23.51-.45.73c-.07.07,0,.24.07.37.2.4.78.8,0,1.25-.24.14,0,.36.27.5C35,90.08,35.71,89.53,36.42,89.73ZM38,84c.53-.09.59-.56.8-.9a.36.36,0,0,0-.2-.54c-.14-.06-.46-.06-.44,0C38.38,83.07,37.61,83.49,38,84Zm-1.25,1.83c-.35-.09-.65.24-1,0-.12-.1-.27-.1-.3.1s-.08.39.12.42C36.07,86.38,36.62,86.54,36.76,85.81Zm-6.39,9.92c-.17,0-.48,0-.54.37,0,.14,0,.31.16.27s.58.13.67-.27C30.7,95.91,30.65,95.78,30.37,95.73Z"/><path class="cls-1" d="M27.94,118.32a.64.64,0,0,0,.18-.37c-.95-.63-.23-1.16.06-1.74.08-.15-.24-.25-.41-.33h0c1.67.31,1.73.35.8,1.69-.35.49.9.89-.05,1.24.72.65-1,1.69.38,2.33.17.08,0,1-.1,1.49-.15,1.28-.81,2.47-.81,3.8a.64.64,0,0,1-.65.67c-.42,0-.52.24-.77.61.93-.15,1,.33.89,1-.2.92-.39,1.83-.6,2.79-.6-.21-.06-.84-.64-1-.43.13.44,1.26-.74,1,.52-.4.44-1,.64-1.53.05-.14.14-.37.09-.41-1.51-1.23-.26-2.68-.37-4,.56,0,1.06,0,1.19-.79m-.9-.32c.46,0,.44-.46.55-.73m1.05-.4c.36,0,.66-.25.61-.55"/><path class="cls-1" d="M26.3,90.53c.17-1-1.33-1.52-.79-2.63.56.54.76,1.64,1.95,1.17.18-.08.23.18.23.36s.12.46-.27.38a.84.84,0,0,0-1.11.72Z"/><path class="cls-1" d="M19.29,79.31c-.21.29-.29.75-.65.51s-1.24-.22-1.35-.89a.52.52,0,0,1,.81-.44C18.49,78.76,19.14,78.74,19.29,79.31Z"/><path class="cls-1" d="M155.48,110.78c-.82-.23-1.45.72-2.34.34-.31-.13-.51.35-.59.64s.23.31.44.33c1.17.12,1,.16,1.4,1.29.44,1.42.12,2.82.22,4.22a.82.82,0,0,1-.25.74.21.21,0,0,0-.06.32c.58.7.06,1.46.11,2.18,0,.37-.15.67-.86.66.73.32.68.71.67,1.16,0,2.87-.4,5.72-.53,8.59a17.37,17.37,0,0,1-.2,2.47,26.88,26.88,0,0,0-.32,2.7c0,.29-.09.4-.4.27-.12-.06-.33-.07-.37.11s.16.2.3.24.19.07.24.14a4.58,4.58,0,0,1-.27,2.43c-.27.22-.46.3,0,.57.33.18.27.69-.13,1-.13.09-.35.17-.16.38.65.74.08,1.58.22,2.36,0,.18-.19.26-.34.35s-.23.18-.22.26c0,.26.19.06.31.07s.18.25.16.39c-.26,1.32-.19,2.67-.4,4-.13.89-.08,1.87-.13,2.81-.1,1.78-.39,3.55-.34,5.35,0,0,0,.05,0,.07-.56,1.25,0,2.58-.26,3.87a33,33,0,0,0-.34,4.1c0,1.42-.23,2.84-.36,4.25-.05.47-.08,1-.87,1,.74.31.88.79.48,1.3-.21.27-.34.41.05.6.12.05.08.21.06.33-.26,1.43.09,2.9-.26,4.3s0,2.74-.48,4.09c-.18.59.08,1.33-.05,2-.25,1.37-.19,2.78-.36,4.17a21.2,21.2,0,0,0-.1,2.12c0,.12,0,.26,0,.36-.39,1,0,2-.15,2.94s-.19,2-.27,3a1,1,0,0,1-.39.91c-.22.15-.24.25,0,.5s0,.54-.31.62-.42-.12-.48-.41a13,13,0,0,1-.1-2.85c0-.56.63-.19.73-.63-.11-.22-.66.06-.62-.44a1.13,1.13,0,0,1,.31-.8.62.62,0,0,0,.13-.23c-.82-.67-.13-1.54-.28-2.3s0-1.6-.14-2.4a.94.94,0,0,1,.17-1,.28.28,0,0,0,0-.4,2,2,0,0,1-.23-1.91,19.73,19.73,0,0,0,.22-2.2c.33-1.36.09-2.77.47-4.08a26.88,26.88,0,0,0,.32-3.2c.09-.49.56-.61.73-.93s-.48-.46-.37-1a31.26,31.26,0,0,0,.33-4c.17-1.9.27-3.8.47-5.7.18-1.73.26-3.46.39-5.2,0,0,0-.05,0-.07-.29-.52.7-.84.25-1.31a1.48,1.48,0,0,1-.25-1.44,14,14,0,0,0,0-3.1c0-.7.17-1.4.24-2.11a.7.7,0,0,1,.18-.46c.2-.19.42-.32,0-.57-.24-.16-.14-.58-.08-.84.26-1.11.13-2.24.31-3.36a11.25,11.25,0,0,0,.06-1.76,4.81,4.81,0,0,1,.21-1.23c.15-.57-.26-1.28.38-1.8-.59-.42-.4-.84,0-1.3.22-.28-.36-.34-.24-.68.43-1.19.13-2.46.38-3.67.14-.64-.14-1.39.47-1.92-.41-1,0-2.12-.11-3.19-.05-.39-.23-1,.5-1.2a.18.18,0,0,0,0-.34c-.46-.13-.38-.47-.29-.77a3.23,3.23,0,0,0,0-1.24c0-.5.05-.8.71-.72-1.27-.79-.5-1.88-.41-2.74a14.32,14.32,0,0,0,0-2.07,13.35,13.35,0,0,1,.2-2.76,5.85,5.85,0,0,0,0-1.51,2.74,2.74,0,0,1,.35-1.65c-.86-.2-1.69.06-2.55-.17.35-.24.68-.11,1-.17.48-.11.83-.38.82-.89s-.5-.58-.92-.61a11.47,11.47,0,0,1-2.32-.19c-.4-.11-1,.32-1.57.44-.23,0-.16.34-.11.57.23,1,.16,1.1-.88,1.09a16,16,0,0,0-1.86-.15c-.83.13-1.67,0-2.47.18-1.08.22-2.16-.06-3.18.17.29.07.72-.14.93.38.08.19.4.07.55-.14s.52-.27.89-.11a4.08,4.08,0,0,1-1.23.73c-.33.1-.62.62-.73,1s.52.45.89.85c-.86-.2-1.08.62-1.74.64.19.48.65.23.9.45-.05.54-.46.65-.9.79s-.92.32-.42.94c.18.22-.06.31-.22.32a.69.69,0,0,0-.66.43c.32.19,1,0,.74.77-.27,0-.14-.2-.23-.29a.42.42,0,0,0-.53-.08c-.22.19,0,.43.14.48.6.29.59.58.17,1-.08.09.15.47.24.71-.51.25-.65-.68-1.19-.37,0,.11.06.16.11.25.16.3.95.23.49.94-.2.31-.09.8-.5,1.08a1.16,1.16,0,0,0-.52,1.21c0,.16.1.31-.05.48a1.92,1.92,0,0,0,0,2.4c.11.19.07.19-.07.31a8,8,0,0,0-.73.8c-.18.19-.27.38,0,.51s.37.18.24.36c-.5.68-.08,1.48-.35,2.2-.1.26-.45.61.06,1,.19.13-.21.42-.42.45s-.6.31-.75-.14c0-.12,0-.22-.24-.26,0,.5-.2.79-.75.72a.22.22,0,0,0-.22.25c0,.17.15.17.28.15s.46-.23.42.21c0,.28.27.63-.19.83-.16.07-.46.1-.34.37a.42.42,0,0,0,.59.13c.54-.34.85-.06,1.15.33-.12.21-.33.09-.47.16-.3.14-.31-.58-.55-.23a1.8,1.8,0,0,0-.42,1.35c.07.36.11.68-.2.94s-.18.34,0,.39c1,.28.26.76,0,1s-.64.44,0,.73a.69.69,0,0,1,.28.62c-.57.42,0,.86-.07,1.25a4.12,4.12,0,0,0-.07,1.52c.12,1-.41,2-.06,3,.15.42-.4.63-.59,1,.29.23.38-.27.67-.14-.27.9.09,1.91-.45,2.78a.26.26,0,0,0,.07.33c.27.27.1.65.18.89.28.88-.4,1.66-.11,2.51.11.31-.15.59-.45.77s-.53.36,0,.49c.23.06.29.26.31.46.09.71.43,1.42,0,2.13a.32.32,0,0,0,0,.35c.43.58.21,1-.52,1.33,1,.18.83.73.79,1.35-.13,2.17.2,4.33.2,6.49a46.87,46.87,0,0,1,.06,5.56,4,4,0,0,0,.44,1.67c.16.46.49.92-.28,1.2-.23.09,0,.38.13.43.53.15.43.46.22.77s-.28.51.12.67c.15.06.28.22.15.35-.47.5-.3,1-.06,1.51a.47.47,0,0,1-.3.71c-.36.13-.37.29,0,.47a.59.59,0,0,1,.26.82c-.12.31,0,.68-.13.92a3.53,3.53,0,0,0-.23,2,7.85,7.85,0,0,0,.06.92,3.76,3.76,0,0,1-.25,2.36c0,.13-.1.3,0,.35.71.4.14.88.07,1.3,0,.22-.16.38-.06.64a.44.44,0,0,1-.35.61c-.21.07-.56.1-.47.44s.37.16.58.19l.28.07c-.39.36-1,.56-.87,1.16.3,1-.24,1.83-.27,2.75,0,.17,0,.64-.39.21a.34.34,0,0,0-.47.07c-.19.21.08.26.17.38s.25.38,0,.6a4.22,4.22,0,0,0-.95,1.57.46.46,0,0,1-.44.33c-.25,0-2.19,0-2.4,0-.46-.13-.51-.8-1.1-.76.13-.32.65-.34.5-.71s-.47-.19-.73-.23c-.64-.09-.81-.38-.65-1,0-.11.08-.27,0-.35-.62-.93-.28-1.89-.15-2.85,0,0,0-.12,0-.14-.63-.66-.42-1.56-.46-2.29-.08-1.45-.87-2.77-.69-4.27.06-.44-.11-.73.46-.93.25-.09-.05-.49-.3-.57s-.42-.25-.24-.53a.81.81,0,0,0,0-.84,3.42,3.42,0,0,1-.34-1.74c0-.33-.28-.48-.27-.88,0-.92.38-1.87-.16-2.8-.21-.36,0-.89-.09-1.34a8.66,8.66,0,0,0-.43-1.39c-.11-.48-.05-.51.34-.51.21,0,.47,0,.48-.23s-.31-.25-.49-.25c-.56,0-.75-.47-1.11-.74.27-.23.22-1,.89-.56,0,0,.15-.05.17-.1s-.06-.21-.16-.29-.59-.21-.42-.64.48-.76-.3-1.15c-.5-.24-.63.11-.74.18-.34.21.08.37.2.45.38.24.36.43,0,.67a3,3,0,0,0-.39.33c.56.22.64.68.76,1.12-.37.19-.36.44-.36.87,0,.76.19,1.66-.59,2.24-.14.11-.23.25-.11.37.62.63.09,1.39.23,2.08.09.41-.25.59-.84.46a2.81,2.81,0,0,1,.63,2.76c0,.11,0,.24-.12.32-.39.2-.4.21-.12.52.12.13.27.26.25.44-.13,1.09.36,2.11.31,3.19,0,.07,0,.2,0,.21-.6.31-.33.66-.15,1.11s-.09.92,0,1.43a5.41,5.41,0,0,1-.23,2.22c-.09.29-.31.43,0,.72s-.07.26-.2.3-.47.08-.73.13c0,.51.6.56.73,1s-.25.58-.61.82c.21-.67.28-1.21-.47-1.45-.09,0-.15-.25-.16-.39,0-.55-.22-.9-.87-.77l.36-.67c.24-.48-.09-.65-.45-.69s-.63-.42-.76-.79c0-.12,0-.38.06-.41,1.07-.44.06-.89,0-1.38.76,0,.75-.2.26-.67a.88.88,0,0,1-.26-.95.67.67,0,0,0,0-.57c-.11-.2-.17-.51-.51-.4s-.23.35-.18.57c.13.6,0,1.22,0,1.82s.09.81-.65.64a1.17,1.17,0,0,1,.6,1.61,7.08,7.08,0,0,0,.12,1.89,45.21,45.21,0,0,1,.14,5.58c0,.35.06.94-.41,1s-.54-.53-.68-.91a6.82,6.82,0,0,1-.19-.78c-.11-.42-.22-.83.55-.89-.68-.47-.95-1-.58-1.63.13-.24-.24-.45-.23-.75s-.18-.86.53-.59c0-.33-.22-.33-.35-.45-.38-.35-.61-.73-.21-1.22a.54.54,0,0,1,.12-.09c-.56-.51-.16-1.22-.37-1.8,0-.09-.15-.19-.14-.31a25,25,0,0,0-.17-3.87,16.67,16.67,0,0,0-.46-3.34,3.81,3.81,0,0,1-.07-2.84.64.64,0,0,0,0-.64c-.45-.68-.18-1.4-.16-2.1,0-.19,0-.41.24-.49s.22-.17.1-.28c-.83-.74-.34-1.72-.43-2.58-.24-2.41-.42-4.84-.51-7.26a4.85,4.85,0,0,1,0-2.27c.12-.29-.23-.62-.13-1,0-.18-.15-.45.2-.54.15,0,.19-.17.07-.27-.67-.55-.53-1.36-.53-2a49.18,49.18,0,0,0-.4-5.71,5.23,5.23,0,0,0-.48-2.43c-.34-.49.46-.31.44-.72-.64-.25-.73-.7-.39-1.34.17-.3-.14-.76,0-1,.43-.89-.22-1.7-.07-2.56s-.11-1.76.1-2.64c0-.19-.17-.43-.22-.66-.16-.68-.15-.69.53-.72-1.29-.86-.67-2.23-.77-3.33-.16-1.79-.09-3.62-.23-5.43s0-3.45-.22-5.12,0-3.32-.31-5a2.92,2.92,0,0,1,0-.51c0-2.09-.19-4.17-.27-6.24a10.58,10.58,0,0,1-.2-2.69c0-.11,0-.33,0-.33-1.16-.2-.13-1.38-.8-1.8-.06,0,0-.22.12-.23.56,0,1.18-.28,1.68.13.34.28.51.49.64-.13,0-.12.3-.19.47-.29-1.36-.19-2.57-.91-4-1a3.44,3.44,0,0,1,2.21-.4c.81.09,1.59-.06,2.39,0q4.83.15,9.68.18c1.88,0,3.75,0,5.63-.11,2.21-.06,4.41-.1,6.62,0,1.41,0,2.81-.13,4.22,0,.22,0,.61-.16.6.29s-.36.38-.66.38h-3.69c-.42,0-.89.13-1.2-.34a.23.23,0,0,0-.34,0c-.36.49-.75.44-1.2.14a.37.37,0,0,0-.34,0,1.1,1.1,0,0,1-1.18.09.25.25,0,0,0-.38.21c0,.21.16.18.32.16a79.33,79.33,0,0,1,8.16-.21c.3,0,.64,0,.81-.26.37-.55.91-.47,1.45-.48a42.44,42.44,0,0,0,4.78-.12c.71-.1,1.43.28,2.17.24.31,0,.82.31.8-.41,0-.14.2-.29.39-.28a22.42,22.42,0,0,1,4.41.15,1.72,1.72,0,0,1,.32.18ZM115.54,163.7a1.33,1.33,0,0,1,.76,1.4c-.06.54.19,1.05.1,1.59a.92.92,0,0,0,.39.84.47.47,0,0,0,.55.08c.19-.12.08-.31,0-.47s-.17-.37-.11-.63a9.35,9.35,0,0,0,.44-2.44c-.07-1.57.31-3.11.26-4.66,0-.3.47-.46.28-.71a3.87,3.87,0,0,1-.49-1.75c-.1-.44-.28-.8.08-1.29.19-.26-.56-.72-.43-1.25a1.3,1.3,0,0,0-.32-1.27.38.38,0,0,1,.11-.58c.11-.06.34.19.44,0s-.29-.21-.31-.42a1.49,1.49,0,0,1-.08-.5,10,10,0,0,0,.28-3.06,11.34,11.34,0,0,1,.07-2.53c.09-.64,0-1.36.09-1.93.16-.73,0-1.44,0-2.16s.38-1.52-.22-2.18a.17.17,0,0,1,0-.14,11,11,0,0,0,.08-2.23c0-.57-.17-1.06.79-1.06-.71-.3-.78-.48-.92-.93s.63-.55.44-.81-.64-.73-.48-.89c.57-.54-.09-1,0-1.39a6.14,6.14,0,0,0-.13-1.92c-.14-1.83-.26-3.65-.42-5.47,0-.53-.08-1,.88-.93a1.31,1.31,0,0,1-.87-1.19,12.34,12.34,0,0,0-.46-3,.7.7,0,0,1,0-.43c.11-.23.3-.06.45,0s.23.1.36,0c-.08-.55-.79-.35-1-.84s0-.81.77-.85a5.92,5.92,0,0,1-1.78-1.79.81.81,0,0,1-.14-.82c.1-.33.42-.3.68-.32s.61,0,.92,0c-.3.12-.41-.3-.64-.26-1.15.24-2.29.53-3.48-.35.15.44.29.65.59.68.49,0,.77.25.78.78s-.39.54-.89.49c.7.37,1,.74.27,1.26,0,0-.08.16,0,.18.65.74-.16,1.63.26,2.4.06.12.06.3-.19.26s-.28.19-.27.34c.06,1.09-.15,2.22.51,3.22.24.36.25.95,0,1.09-.5.24-.3.39-.09.61a1.27,1.27,0,0,1,.25.75c.21,1.78.21,3.56.33,5.34.23,3.4.44,6.81.51,10.21,0,2.2.48,4.39.24,6.6.68,1.28,0,2.77.65,4.06a1.42,1.42,0,0,1,0,.51.74.74,0,0,0,.25.6c.63.41.31.61-.14.83-.14.06-.37,0-.43.28a.91.91,0,0,1,.54.86,19,19,0,0,0,.12,3.92c.18,1.23-.2,2.49.23,3.7C116.2,163.41,115.94,163.6,115.54,163.7Zm.86,8.75a6.5,6.5,0,0,1,.23,1.78c0,.17.06.37.32.28a1.48,1.48,0,0,0,.67-1.47c-.21-.63.07-1.35-.35-1.95,0-.05,0-.19.1-.26.24-.29.11-.49-.12-.69s-.53-.51,0-.77c.35-.16.17-.52.06-.79s-.14-.4-.38-.4a.37.37,0,0,0-.34.41,8.53,8.53,0,0,0,0,2.14,1.9,1.9,0,0,1-.07,1.27C116.49,172.16,116.44,172.32,116.4,172.45Zm14.7-60.68c-.52-.31-1,0-1.48,0-.3,0-.48-.35-.79-.21-.79.35-1.63,0-2.43.16-.31.08-.38-.45-.44-.32-.22.48-.8.31-1.06.64a.39.39,0,0,0,.39.23A28.3,28.3,0,0,0,131.1,111.77Zm-1.35,3c0-.15-.06-.17-.14-.17a6.39,6.39,0,0,0-2.05,0c-.66.22-1.21-.58-1.84,0-.16.14-.57,0-.71-.33-.08-.21-.31-.45-.43-.09s-.46.31-.72.32a47,47,0,0,0-5.3.15C122.29,114.83,126,114.62,129.75,114.79Z"/><path class="cls-1" d="M137.46,82.58a.61.61,0,0,1,.55-.32,1.22,1.22,0,0,0,1.15-.58c-.6.08-.63-.37-.65-.79-.07-1.41-.21-2.82-.15-4.22a8.15,8.15,0,0,0-.13-2.83c-.11-.35.17-.57.43-.81-.4,0-.84.21-1-.26s.3-.84.64-1.1a11.68,11.68,0,0,0-2-2.19c-.13-.09-.14-.3-.11-.48h.14a6,6,0,0,1,2.51,1.34c.22.22.61.38.45.83,0,.14.11.18.23.24.69.35.73.65.16,1.2.8.34.8.35.34,1.28-.1.19-.05.28.14.31a.39.39,0,0,1,.35.48c-.24,1.82.3,3.59.3,5.4a4.74,4.74,0,0,0,.11,1.63c.1.3.33.91-.42,1-.14,0,0,.13,0,.21.22,1.52.14,3.07.5,4.58a3.07,3.07,0,0,1-.31,1.4c-.14.46-.12.65.47.76a10.23,10.23,0,0,1,8.21,6.59c.62,1.57.54,3.3.87,4.94.14.72.2,1.45.29,2.18,0,.37.13.76-.39,1,.33,0,.56,0,.67.29l.16.42a29.45,29.45,0,0,0,1.67,3.88c.14.25.27.5.07.75a.65.65,0,0,1-.74.19c-.48-.15-.86.24-1.33.27-1.61.13-1.82.06-2.37-1.47a2,2,0,0,0-.52-.77c-.09-.08-.23-.16-.25-.26a2.07,2.07,0,0,0-.66-1.15c-.38-.37-.42-1-.86-1.41-.16-.14.08-.3.13-.45.1-.33-.12-.48-.36-.54-.43-.11-.2.1-.13.28s-.11.14-.21.13a6.13,6.13,0,0,1-2.49-.44,1.74,1.74,0,0,0-1.81.08c-.3.18-.64.43-.9-.11-.1-.2-.32-.11-.45,0s-.08.24.13.33c.44.18,0,.3-.08.35a13.11,13.11,0,0,0-1.54.68c-.51.35-.74.69-.34,1.3a.88.88,0,0,1-.15,1,.3.3,0,0,1-.45.06.82.82,0,0,1-.39-.93c.16-.82-.25-1.22-1.09-1.45-1.18-.32-2.35-.66-3.55-.91-.43-.09-1,.12-1.19-.51-.07-.2-.33-.09-.48.09s-.46.36-.65.19c-.66-.61-1.44-.33-2.17-.39a7.73,7.73,0,0,1-2.29-.37,1,1,0,0,0-1,0c-.33.24-.59.32-.84-.1a.26.26,0,0,0-.44-.06,6.93,6.93,0,0,1-3,2,.46.46,0,0,0-.31.58,9.5,9.5,0,0,1-.07,1.31.56.56,0,0,1-.75.64,2.87,2.87,0,0,0-1.13,0,3.61,3.61,0,0,1-1.82,0c-.76-.26-1.4.31-2.14.34a2.44,2.44,0,0,1-1.49-.15c-.13-.08-.19,0-.18.08,0,.6-.59.48-.83.79s-.44,0-.57-.15.07-.3.19-.42c.38-.38.68-1,1-1.17.66-.32.62-.84.88-1.31a2.76,2.76,0,0,0,.32-1.91c-.12-.62.16-1.21,0-1.83-.06-.31-.68-.79.2-1,.2,0,0-.35-.16-.36-.67,0-.47-.54-.45-.89.06-.82.17-1.64.26-2.46a.94.94,0,0,1,.25-.68c.14-.12.23-.29.08-.44-.81-.83-.21-1.75-.19-2.63,0-.13.16-.27,0-.38s-.28,0-.38.13a7.1,7.1,0,0,0-1.48,1.92c-.16.32-.38.63-.57.94s-.28.41-.58.32c-.15,0-.32-.1-.27-.29s.16-.64.51-.65.61-.09.22-.49c-.14-.14,0-.39.11-.47.89-.64,1.1-1.9,2.16-2.38,0,0,.06,0,.06,0,0-.67,1,.63.94-.5,0-.35.8-.63,1.29-.86s1-.42,1.42-.62a1,1,0,0,1,.28-.09c.23,0,.53-.24.67.06s-.28.25-.38.4a7,7,0,0,1-2.08,2c-.23.14,0,.31.08.41a2.83,2.83,0,0,0,1,.4c1,.37,2.12.1,3.18.24a3.27,3.27,0,0,1,.44,0c.43.09.82.3.78.8s-.55,0-.87.41c1.58.5,2.79,1.78,4.62,1.52a8.77,8.77,0,0,1,2.26.23c.77.11,1.53.3,2.2-.35.21-.2.54-.24.62.25a.22.22,0,0,0,.43.08c.2-.68.77-.48,1.2-.54s.75.11,1.09,0,.26.67.67.45.45-.46.72-.6.5-.13.56.24.31.29.47.08.37-.46.65-.39c.72.19.88-.31,1-.79s.37-.44.65-.45.33.25.38.51.12.62.74.65,1.52-.08,2,.63c.14.18.43.1.63.07a13.09,13.09,0,0,0,2-.14.71.71,0,0,1,.77.32,3.11,3.11,0,0,1,0,2.85c.48,0,.65.19.63.72a11.45,11.45,0,0,0,.26,2.32c.08.43.15.81-.27,1.16a3,3,0,0,1,1.51,0c.18.08.27-.06.36-.25a1.62,1.62,0,0,1,.66-.84.51.51,0,0,0,.28-.61c-.06-.36-.36-.26-.69-.29.64-.38.66-.8.13-1.2-.29-.22-.25-.37,0-.55a1.63,1.63,0,0,0,.61-.7c-1.13.16-.72-.73-.69-1.13.06-.81-.48-1.14-1-1.53-.12-.1-.32,0-.25-.33a3.75,3.75,0,0,0-.95-3.14A9.55,9.55,0,0,0,141,90.6a6.85,6.85,0,0,0-2.14-1.08c-.3,0-.71-.27-.3-.73.06-.07.12-.24,0-.24-.42,0-.5-.87-1.1-.38-.16.13-.48.07-.72.07-3.62,0-7.24,0-10.85,0a9.58,9.58,0,0,1-2,.09c-1-.23-1.75.33-2.64.22-.22,0-.53,0-.51.27a.48.48,0,0,0,.5.52,1.33,1.33,0,0,1,.94.17,22.4,22.4,0,0,1-3.29.18c-.42,0-.32-.61-.63-.8.28-.32,0-.58-.06-.87-.28-.79-.07-1.08.91-1-.93-.47-.73-1.21-.71-1.88,0-1,0-2.05-.08-3.07-.09-2.56.11-5.13.24-7.69,0-.57.32-1.09.32-1.72S119,71.12,120,71c.05,0,.13-.12.11-.15-.18-.4.08-.6.36-.77a4.75,4.75,0,0,1,2.35-.68c-.46.43-.9.84-1.33,1.27-.16.16-.39.35-.22.64s.42.21.69.24c.89.09,1.81-.21,2.62.64a2.23,2.23,0,0,0,1.81.66c.61-.22,1.24-.09,1.86-.41a7.22,7.22,0,0,1,2.18-.59,12.78,12.78,0,0,0,2.67-.41c.61-.23,1.07.27,1.43.57a2.26,2.26,0,0,0,1.76.5c.5,0,.87-.08.67.75A5.53,5.53,0,0,0,137,74.9c.26,2.15.11,4.32.38,6.46.05.41-.42.86.09,1.22-.13.51-.51,1-.26,1.54s.22.95-.55,1.24c.5.12.8.24.68.67s-.48.28-.74.29c-1.23,0-2.46.06-3.69,0-.61,0-1.32.33-1.85-.33-.14-.18-.34.05-.49.18s-.78.33-.9,0c-.25-.56-.38-.24-.6,0s-.62.32-.82,0-.39-.2-.63,0-.68.26-.93-.19-.5-.38-.54-.11c-.08.53-.43.5-.81.53a7.06,7.06,0,0,1-1.47.13c.16.39.68,0,.64.44,0,.13-.15.26,0,.36s.31,0,.4-.18a.31.31,0,0,1,.37-.17c1.57.24,3.13-.24,4.7-.1a5.08,5.08,0,0,0,1,0,12,12,0,0,1,5.36.37.38.38,0,0,0,.35,0c.41-.31.65-.29.85.26.12.35.58.3.85.17s0-.33-.11-.51,0-.44.17-.58a.59.59,0,0,0,.14-.73c-.08-.2-.16-.46,0-.63a.46.46,0,0,0-.09-.75c-.56-.38-.24-.8-.12-1.21,0-.14.32-.18.16-.45Zm-16.91-10c-.32-.34-.64-.48-.87-.08-.46.79-.09,1.8-.63,2.59.43.45.2,1,.15,1.46,0,.16,0,.4.18.42s.34-.19.32-.4c-.1-1,.2-2,0-2.92C119.58,72.94,119.74,72.56,120.55,72.55Z"/><path class="cls-1" d="M128.46,210a20.42,20.42,0,0,0-2.93-.21c-1.93-.18-3.84-.43-5.74-.79-.51-.1-1-.48-1.52-.39-.13,0-.38,0-.34-.29s.26-.17.4-.14a35.32,35.32,0,0,0,5.27.95c.78.09,1.56.16,2.34.23.35,0,.68,0,.67-.47s-.42-.28-.73-.31a1.25,1.25,0,0,0,.05-1.45c-.14-.2-.32-.58.21-.72.31-.09.13-.32,0-.47a2.77,2.77,0,0,0-1.56-1.05,35.7,35.7,0,0,0-3.7-.62,10.1,10.1,0,0,1-3.33-.77c-1.11.64-1.28-.72-2-.94a.85.85,0,0,1-.49-.62c-.13-.48,0-.65.52-.58.27,0,.48.26.77.21s.54.06.68-.18-.34-.25-.24-.56c.75-.1,1.34.43,2.18.48-.41.28-.65,0-.9,0s-.45-.12-.51.12.21.29.39.35a16.42,16.42,0,0,0,2.6.53c1.26.14,2.5.49,3.78.55.46,0,.88.3,1.35,0,.17-.11.43,0,.56.26s.22.29.41.21.12-.21.11-.33a.36.36,0,0,0-.38-.36c-1-.1-1.9-.26-2.86-.28-.72,0-1.36-.41-2.09-.31a.21.21,0,0,1-.25-.21c0-.2.21-.18.35-.17.73.06,1.47.12,2.2.2,1.64.19,3.29,0,4.93.09a16.88,16.88,0,0,1,3.52.28c-.17.3-.36.24-.52.25a1.54,1.54,0,0,0-.85.21c-.23.17.4.45,0,.7-.07,0,.27.19.41,0,.37-.35.68-.53,1.08,0,.13.16.38,0,.51-.12s.34-.39.47-.29c.69.53,1.4,0,2.08,0a26,26,0,0,0,2.59-.24,30.32,30.32,0,0,0,4.32-.87c.26-.06.56-.21.73.09s-.21.34-.29.53a1.36,1.36,0,0,1-1.13.84c-1.72.21-3.31.94-5,1.22-.4.07-.94.47-1.23-.25-.06-.14-.26,0-.28.08-.14.73-.91.85-1.28,1.35-.2.28-.43.43,0,.76s0,1.42-.63,1.75l.69.08c0,.23-.2.26-.31.36s-.46.08-.42.34.35.24.55.25a23.06,23.06,0,0,0,3.8-.36,30.18,30.18,0,0,0,5.89-1.4c0,.49-.36.56-.62.64a31.78,31.78,0,0,1-6.39,1.37c-1.48.16-3,.27-4.46.4Z"/><path class="cls-1" d="M144.63,148.79c.68-.24.74.1.72.59,0,.68-.15,1.35-.24,2a16.62,16.62,0,0,0-.07,1.75c0,.57,0,1.13,0,1.7a1.38,1.38,0,0,1-.92,1.53c.76,0,.78.3.78.68,0,1.23-.2,2.44-.24,3.66a15.74,15.74,0,0,0-.07,2.17.82.82,0,0,1-.5,1c.68.38.59,1-.24,1.72.39.06.65.17.62.64s-.35.56-.56.79c0,.34.48,0,.52.38.07.52-.6,1-.37,1.27a.85.85,0,0,1,0,1.21.94.94,0,0,0-.1.17c.84.69,0,1.51.16,2.28a15.47,15.47,0,0,1-.16,4.4c-.14,1,0,2.08-.1,3.12,0,0,0,.1,0,.14-.45.86,0,1.77-.14,2.64-.06.37.07.77-.26,1.11s.14.51.12.81c-.1,1.49-.16,3-.24,4.49a5.7,5.7,0,0,1-.06.58,7.42,7.42,0,0,1-.16,1.74c-.17.44.14,1,.08,1.51-.14,1.28,0,2.58-.08,3.88a13.68,13.68,0,0,1-.18,1.68c0,.28-.1.61-.44.71a.73.73,0,0,1-.82-.36,4.61,4.61,0,0,1-.7-2.87c0-1.24.12-2.48,0-3.73a20.49,20.49,0,0,1,.19-2.72,20.75,20.75,0,0,1,.24-2.61c.15-.88-.35-1.75,0-2.6.47-1.11,0-2.29.24-3.35.31-1.33-.16-2.74.58-4,.21-.37-.15-1.17-.14-1.77,0-1.31.11-2.63.17-3.94,0-.39.53-.23.6-.54-.1-.29-.53.17-.56-.25a1.24,1.24,0,0,1,.62-1.26c-.82-.09-.53-.56-.47-.94a.42.42,0,0,1,.14-.25c.5-.43-.36-.57-.22-1,.08-.26.83-.51.23-1a.77.77,0,0,1-.05-.75c.48-.42.25-.83.1-1.27,0-.07-.06-.18,0-.21.52-.51.1-1.08.11-1.61,0-1,0-1.93,0-2.9a3.92,3.92,0,0,1,.29-2.06c0-.07.09-.17.06-.21-.54-.87.09-1.32.74-1.84-.68.33-.87,0-.7-.46.27-.74-.19-1.61.44-2.27a.23.23,0,0,0,0-.2,4.85,4.85,0,0,1-.31-2.84c0-.91,0-1.85,0-2.77a16.48,16.48,0,0,1,.19-3.21c.12-.57-.07-1.2,0-1.82,0-.42-.18-.89.27-1.22a.16.16,0,0,0,.06-.13c-.45-1.76,0-3.53,0-5.3a16.75,16.75,0,0,1,.15-5.28,4.89,4.89,0,0,0-.25-2.14c-.1-.49-.07-.82.52-.86l-.77-.74c-.07-.07-.16-.17-.07-.24.57-.41.23-.81,0-1.2a.56.56,0,0,1,0-.62c.23-.34.52-.58.13-1.08-.1-.12.34-.79.38-1.26.07-.78.47-1.8.13-2.28s.1-1.47-.72-1.85a.46.46,0,0,1-.06-.66c.32-.42,0-.68-.3-.78s-.47-.51-.82-.58c.16-.25-.18-.36-.17-.53s.28-.16.37-.11c.74.44,1.43,0,2.13-.11s1.47,0,2.2-.06c.39,0,.53.19.51.55-.1,2.2-.14,4.41-.3,6.61-.2,2.91-.43,5.81-.57,8.73,0,.55.17,1.19-.8,1.33.56.1.72.36.65.78-.21,1.33-.16,2.68-.26,4-.18,2.49-.21,5-.33,7.49-.07,1.29-.23,2.58-.27,3.87C145.34,148.31,144.83,148.34,144.63,148.79Z"/><path class="cls-1" d="M105.89,129.15c0-1.07-.2-2.12-.25-3.2-.06-1.24-.26-2.47-.27-3.72,0-2.32-.34-4.62-.55-6.92a1.15,1.15,0,0,1,0-.37c0-.25-.19-.68.26-.7s.53.43.53.75c0,1.51.4,3,.34,4.47,0,.66.43,1.38-.22,2,0,0,0,.15,0,.19.57.55.39,1.3.44,1.94.15,2,.34,3.94.42,5.91.11,2.47.4,4.92.53,7.39.06,1.13.09,2.28.24,3.42.08.56-.32,1.15.15,1.7a.33.33,0,0,1-.18.48c-.27.06-.29-.18-.34-.37a14.48,14.48,0,0,1-.27-2.63c-.26-2.65-.38-5.32-.65-8A20.31,20.31,0,0,0,105.89,129.15Z"/><path class="cls-1" d="M110.43,97.59c-.21,1.68-.45,3.35-.62,5a12.65,12.65,0,0,1-.42,3.25,5.09,5.09,0,0,1-1.32,2.25.46.46,0,0,0-.22.5c0,.2.05.39-.19.48a.46.46,0,0,1-.49,0c-.24-.19-.09-.41,0-.6a5,5,0,0,1,.48-1,10.74,10.74,0,0,0,1.43-5,26.73,26.73,0,0,1,.5-3.62,2.18,2.18,0,0,0,.11-1.23.39.39,0,1,1,.75,0Z"/><path class="cls-1" d="M108.83,158.63c.18,2.18.4,4.36.5,6.54a4.35,4.35,0,0,1,.06,2c-.1.26.33.57.22.94,0,.15,0,.38-.21.41s-.31-.18-.32-.39c-.1-1.19-.21-2.38-.31-3.58-.07-.92-.17-1.85-.19-2.77,0-1.53-.48-3-.42-4.55,0-.18-.15-.42.19-.44s.34.14.37.37c0,.49.12,1,.18,1.46Z"/><path class="cls-1" d="M109.8,173.7a1.05,1.05,0,0,1,.39.83q.25,4.2.71,8.39c.14,1.26.15,2.54.18,3.81a10,10,0,0,0,.14,1.46c0,.15,0,.38-.2.4s-.3-.16-.31-.34a3.64,3.64,0,0,1,0-.66,46.62,46.62,0,0,0-.43-6.89c-.21-2-.4-4.08-.6-6.11A1.47,1.47,0,0,1,109.8,173.7Z"/><path class="cls-1" d="M144.63,201.65c.76-.58,1.49-1.15,2.24-1.7.24-.17.66-.59.76-.39s.46.72.3,1.17a1.16,1.16,0,0,1-.92.92A3.73,3.73,0,0,1,144.63,201.65Z"/><path class="cls-1" d="M107.88,154.1c.18-1-.22-2-.13-2.91,0-.18-.07-.46.2-.47s.3.23.31.42c.14,1.61.25,3.22.39,4.82,0,.32-.16.38-.39.4s-.22-.21-.22-.35A7.87,7.87,0,0,0,107.88,154.1Z"/><path class="cls-1" d="M111.73,196.7a2.17,2.17,0,0,1-.4-1.58c-.06-1.56-.53-3.1-.25-4.67,0-.33-.33-.55-.24-.9,0-.13,0-.33.16-.36s.2.16.24.29a8.77,8.77,0,0,1,.19,2c.15,1.27.21,2.54.34,3.81A4.4,4.4,0,0,1,111.73,196.7Z"/><path class="cls-1" d="M107.83,145.83c0,.24,0,.46,0,.68s.12.5-.17.54-.37-.26-.39-.5c0-.59-.07-1.17-.1-1.75a4,4,0,0,0-.14-1.28c-.07-.21-.11-.46.22-.49s.4.16.39.42C107.63,144.26,107.93,145,107.83,145.83Z"/><path class="cls-1" d="M26.82,131.07c.93-.38-.33-.72,0-1.24.87-1.37.81-1.41-.87-1.64.18.07.5.16.43.31-.27.59-1,1.15,0,1.73a.64.64,0,0,1-.16.38,3.45,3.45,0,0,0-1.17,2.93,6.08,6.08,0,0,1,.2,1.23,5.38,5.38,0,0,1-.05,1.06.2.2,0,0,1,0,.17,3.18,3.18,0,0,0-.08.33c-.05.22-.12.44-.19.66l.66,0c-.08.7-.51.83-1,.83l-.11.23c0,1.27-.95,2.68.53,3.78.05,0,0,.27-.07.41-.18.53-.08,1.14-.58,1.56,1.2.25.28-.84.7-1,.59.09.08.74.69.93.16-1,.31-1.89.47-2.81.11-.65,0-1.13-.93-.94.23-.38.32-.62.74-.63a.65.65,0,0,0,.62-.71c-.06-1.33.55-2.54.64-3.83,0-.51.2-1.41,0-1.49C25.88,132.81,27.57,131.7,26.82,131.07Zm-.59,4.49c-.86.08-.71-.67-.95-1.15.43.46,1.36-.27,1.53.57C26.87,135.28,26.59,135.52,26.23,135.56Z"/><path class="cls-1" d="M21.58,139.71a2.43,2.43,0,0,1-.77-1.89,3.45,3.45,0,0,0-.48-3.1.43.43,0,0,1-.07-.43,3.34,3.34,0,0,0-.68-2.6c-.35-.61-1.16-.75-1.43-1.44,0-.08-.31-.48-.59-.06-.16.24-.41.13-.42-.16a1.09,1.09,0,0,0-.61-.89c-1.22-.49-2.29-1.37-3.66-1.49-.06,0-.16,0-.16-.07,0-.73-.83-.7-1.13-1.18a.68.68,0,0,0-.84-.25c-.11,0-.39,0-.27-.22.28-.44-.18-.58-.31-.83a.54.54,0,0,0-.72-.22c-.2.15,0,.48.11.69s.36.21.17.39-.06.42,0,.66.52.59.38,1-.13.56.32.55c.12,0,.23,0,.23.17s-.08.2-.12.2c-.43,0-.25.19-.17.39a4.6,4.6,0,0,1,.18.8c.19.78-.12,1.7.65,2.32a.27.27,0,0,1,0,.23c-.44.25-.13.61,0,.83a26.06,26.06,0,0,0,1.53,3.26c.61,1.08,1.62,1.7,2.3,2.65l.15.18c.34-.38.34,0,.32.17s.12.29.25.38a8,8,0,0,1,1.23.86c.09.09.4.27.54-.1s.34-.15.44,0c.47.58,1,.18,1.6.17-.19-.17-.24-.25-.31-.28-.41-.15-.13-.49-.16-.72s.3-.17.48-.25.35.15.43.32c.36.75,1.15,1,1.76,1.34s1,.74,1.53,1.07l1.12-.67C23.47,140.83,22.44,140.4,21.58,139.71ZM13,132.57c.15-.2.36-.17.56-.07s.27.17.17.35-.35.15-.52.23C13.31,132.82,12.73,132.84,13,132.57Zm5.24,6.83c-.23.27-.27-.09-.4-.18-.41-.3-.94-.38-1.35-.71s-.79-.3-.89-.81c0-.08-.28-.35-.47-.14s-.33.1-.49,0-.09-.18-.06-.29c.07-.26.31,0,.43-.14-.66-.83-1.56-1.47-1.46-2.67.12,0,.32.17.52.28.14-.22-.12-.48.15-.6s.33,0,.35.07.18.57.07.74c-.25.38,0,.58.23.69.45.23.82.62,1.4.64s.51.57.59.88A3.2,3.2,0,0,0,18,139C18.08,139.11,18.35,139.22,18.19,139.4Zm-.73-3.05a1.53,1.53,0,0,0-.84-.7.28.28,0,0,1-.21-.35c0-.25.17-.12.32-.12s.41-.14.25-.42c0,0,0-.09-.06-.12-.24-.25-.52-.59-.15-.83s.64,0,.74.43c0,.17.11.25.31.12a.3.3,0,0,1,.43.24c0,.13.11.4-.24.37-.11,0-.12.07,0,.29a2.24,2.24,0,0,1,.39,1.17C18.31,136.62,17.62,136.6,17.46,136.35Z"/><path class="cls-1" d="M25,122.13c-.24-.5.22-.43.44-.51a.52.52,0,0,1,.26,0c-.05-.13-.1-.26-.16-.39a2.2,2.2,0,0,1-.16-1.13c-.73-.08-.47-.56-.51-1s.13-.85-.19-1.2,0-.32.06-.48c.76-1.15.76-1.16-.44-1.62a1.27,1.27,0,0,1-.22-.13.56.56,0,0,1,.65-.34c.59.07.39-.34.24-.51a12.32,12.32,0,0,0-2-2,20.72,20.72,0,0,1-3.28-2.47c.38.72-.13.93-.58,1.18l.07.18c.49.25.14.61.14.94-.8-.09-1.21-1.51-2.25-.63.2.25.4.51.61.76s.19.4.37.36c.42-.11.41-.14.5.22a1.92,1.92,0,0,0,1.4,1.68c.62.15.81.81,1.29,1.16s-.48.53-.55,1.18c.55-.54,1.17-.34,1.64-.66s.74-.07,1.09.06c.15.06.14.19,0,.3-.29.31-.6.08-.9,0-.05,0-.1.06-.19.12.43.31.61,1,1.19,1s.57.32.72.6,0,.31-.14.28c-.35-.11-.57.33-1.05.06s-.81-.79-1.47-1c.07.4.19.73-.25,1a2.55,2.55,0,0,1,2.3,2.11c-1.94-.22-3.64-1.32-5.56-1.63a7.66,7.66,0,0,0,1,.72,2.29,2.29,0,0,0,1.11.47c.14,0,.28,0,.25.19-.2.9.48.67.9.67s.51.23.49.51c0,.44-.07.44.32.44.57,0,1.15,0,1.72,0,.38,0,.77,0,.94.45l.76.59.06-.15-.06-.07c-.53-.34-.11-.67.26-1.31C25,123.1,25.1,122.4,25,122.13Z"/><path class="cls-1" d="M17.05,112.1l.61.76c-.27.49-1.22.35-1.1,1.19-.37-.47-.76.13-1.11,0s-.36-.08-.46.12-.15.45,0,.53c.9.39.51,1.26.76,1.89h0c-.55-.1-.91-.31-1-1-.07-.93-1-1.56-.82-2.66a26.72,26.72,0,0,1,1-4c.09-.3.45-.3.87-.33-.38.63,0,1.59-1.19,1.68a1.27,1.27,0,0,0,1.5.52c.75-.34-.56-.93.15-1.42.69.56.26,1.63.92,2.16-.33.42-.52-.3-.81,0C16.46,112,16.94,111.85,17.05,112.1Z"/><path class="cls-1" d="M17.78,110c.23-.72.39-1.29-.21-1.75-.29-.23-.07-.52,0-.78s.31-.57-.22-.63c-.13,0-.35-.12-.21-.3s.21-.15.43,0c.76.54.74,1.46,1.15,2.16.06.1.05.26.13.34s.58.25.56.65c-.37-.27-.75.71-1.11,0Z"/><path class="cls-1" d="M15.76,116.57c.4,1.09,1.48,1.65,2.15,2.79A4.9,4.9,0,0,1,16.19,118c-.3-.29-.24-.9-.87-.91-.22,0-.15-.2.46-.52Z"/><path class="cls-1" d="M15.58,108.06l.89-1.09c-.2.63.62.52.44,1C16.64,108.62,16.05,108,15.58,108.06Z"/><path class="cls-1" d="M37.28,187.89l.1,0c.9-.27,1.25.39,1.77.91.92.93,2.21,1.44,3.09,2.45.39.45.85.84,1.27,1.26a1.21,1.21,0,0,1,.49.75c0,.29.24.58.73.37.23-.1.42.26.58.46a19,19,0,0,0,1.8,1.9c-.6.49-.67.46-1.08-.16-.14-.22-.29-.67-.76-.2-.14.14-.51-.18-.59-.43-.13-.44-.43-.53-.83-.64-.62-.17-.92-.77-1.47-1.09a24.9,24.9,0,0,1-2-1.56,1,1,0,0,0-1-.3c-.39.12-.69-.29-1.08-.34a7.62,7.62,0,0,0-1.66-.21c-.29,0-.69,0-.86-.39,0-.06-.42-.64-.68,0-.08.17-.29,0-.44-.06-.69-.15-1.34-.43-2-.56a4,4,0,0,1-2.4-.75c-.16-.15-.32-.41-.6-.16s-.55.17-.42.43-.05.69.45.7a1.92,1.92,0,0,1,.44.17c-.68.25-1.06.86-1.79.41-.16-.1-.46-.19-.47.19s-.41.36-.54.3a10.31,10.31,0,0,0-1.65-.45c-.18,0-.36,0-.42-.31s-.19-.58-.4,0c-.08-.05-.16-.08-.23-.13-1.1-.75-2.43-1-3.5-1.93a30,30,0,0,1-2.89-2.86c-.18-.19-.64-.46-.27-.88,0,0,0-.22-.1-.24-1.07-.36-1.08-1.44-1.58-2.19a6.33,6.33,0,0,0-.5-.77c-.16-.18-.43-.33,0-.47.05,0,.08-.18.05-.26s-.18-.14-.31-.09c-.48.18-.55,0-.55-.46s-.55-.54-.78-.88-.45-.31-.26-.68-.2-.24-.33-.35-.53-.45-.38-.69a.62.62,0,0,1,.86,0c.24.21.79.19.65.76-.05.23.28.21.38.12a.79.79,0,0,1,1,0c.51.38,1.37.05,1.67.81,0,0,.13,0,.19,0,1.52-.39,3,.14,4.51.21a1.18,1.18,0,0,1,1,.7c.12.3.44.32.52,0,.14-.54.58-.23.65-.15.56.62,1.48.46,2.1,1a3.75,3.75,0,0,1,1.72,2.48.48.48,0,0,0,.23.42A3.82,3.82,0,0,1,30.39,187c0,.52.93,1.49,1.55,1.7,1.19.41,2.46.48,3.67.79a.84.84,0,0,0,.56,0,1.19,1.19,0,0,1,1.46.25c.51.45.57-.37.92-.22a.48.48,0,0,0-.31-.63A1.77,1.77,0,0,1,37.28,187.89Zm-13.46.53c-.08.17-.43,0-.41.3,0,.13,0,.25.18.28s.4.14.53-.18.5-.11.55,0c.31.51.84.37,1.27.52s1.17.08,1.73.24c.17,0,.35.41.5,0s-.23-.26-.4-.32a3.61,3.61,0,0,1-1.94-1.52c-.21-.3-.46-.87-1-.71a3.84,3.84,0,0,1-1.76-.15c-.27,0-.63-.14-.51-.64.05-.21-.19-.52-.35-.75s-.3,0-.41.06.14.41.07.69c-.26,0-.54-.15-.67-.1C21.58,187.45,22.79,187.79,23.82,188.42Zm3.45-2a2.51,2.51,0,0,0-.86-1.08c-.23-.18-.25-.27-.13-.3.39-.1.21-.35.12-.49a.34.34,0,0,0-.55-.08c-.17.2-.27.15-.38,0-.27-.4-.73-.49-1-.18s.13.64.48.82c.05,0,.07.07.11.1.28.24.22.44-.11.54-.15.05-.36,0-.3.24a.34.34,0,0,0,.36.29,1.74,1.74,0,0,1,1.18.42C26.49,186.87,27.24,186.64,27.27,186.4Zm-6.78-2.3c-.25,0-.49,0-.58.28s.49.12.43.46c.15-.15.43-.17.47-.44S20.67,184.14,20.49,184.1Z"/><path class="cls-1" d="M38.92,187.75c-.09-.24-.17-.64-.42-.61-.53.06-.64-.27-.59-.56a1.18,1.18,0,0,0-.24-.85c-.28-.52-.6-1-.83-1.57-.54-1.21-1.62-2.07-2.23-3.22-.33-.62-.47-1.31-1.32-1.37.17.42.33.84.47,1.27a.45.45,0,0,1,.15.44A21.68,21.68,0,0,1,34.6,184a3.25,3.25,0,0,1,.23.29c.51.67.9,1.44,1.47,2.06.43.46.54,1.13,1.08,1.46.35.22.61.39.6.85,0,.26.26.68.44.58.58-.31.59.16.67.41.2.71.26.75,1,.45A16.15,16.15,0,0,1,38.92,187.75Z"/><path class="cls-1" d="M51.56,201.42c-.13-.22-.29-.59-.53-.51-.51.16-.69-.15-.69-.44a1.22,1.22,0,0,0-.41-.79c-.38-.46-.79-.89-1.14-1.38-.77-1.09-2-1.72-2.83-2.73-.45-.55-.73-1.2-1.58-1.09.26.38.5.76.73,1.15a.49.49,0,0,1,.23.41,20,20,0,0,1,1.22,2.51l.29.23a21.77,21.77,0,0,0,1.86,1.74c.51.37.75,1,1.35,1.23.39.14.68.26.76.71,0,.26.39.62.55.49.51-.42.61,0,.73.27.35.66.42.69,1.06.26A17.73,17.73,0,0,1,51.56,201.42Z"/><path class="cls-1" d="M27.78,119.75c.54-.75,1.43-1.11,1.93-1.93a1.37,1.37,0,0,1,1.48-.62c.64.15.68-.62,1.14-.79.1,0,0-.14-.11-.2-.6-.68-.54-1,.29-1.53a.31.31,0,0,0,.13-.32c-.28-.12-.44.4-.79.11-.18-.15-.66.1-.61-.42,0-.34-.08-.76.47-.82.17,0,.4-.16.17-.33-.65-.49-.18-1,0-1.46s.26-1,1-1c.07,0,.36-.12.15-.42s0-.8.57-.74c.25,0,.55.12.64-.16s-.36-.23-.51-.52c.43-.17.66-.74,1.28-.46.2.1.42-.26.34-.34-.45-.45.05-.41.24-.55a9.68,9.68,0,0,0,.82-.61c.27-.23.61-.49.91-.44,1.36.26,1.86-.94,2.71-1.51.34-.23.59-.59,1.09-.37.31.14.35-.12.36-.36,0-.39,0-.77.53-.9.15,0,.2-.22.2-.36,0-.87,1-1.06,1.2-1.75.06-.15.29,0,.35.1s.31.54,0,.63-.32.44-.38.69,0,.7-.47.79c-.12,0-.2.26-.1.45a.57.57,0,0,1-.2.71.79.79,0,0,0-.43,1c.11.47-.07.81-.61.39a.4.4,0,0,0,.11.57c.75.45.46,1,.21,1.59-.06.13-.18.22,0,.38.76.86,0,1.77,0,2.66,0,.32-.7-.12-.7.34,0,.25.49.41.22.8-.46.64-.2,1.65-1.09,2.06a.31.31,0,0,0-.07.12c.42.34.22.7,0,1A7.17,7.17,0,0,1,38.38,117a1,1,0,0,1-.88,0c-.39-.34-.61-.17-.85.11-.11.12-.36.15-.32.36s.28.1.43.15l.27.1a.36.36,0,0,1-.34.26c-1.3,0-2.57.37-3.87.34-.24,0-.24,0-.28-.24a.37.37,0,0,0-.7-.13,3.78,3.78,0,0,1-3.34,1.72c-.14,0-.25.21-.44.16.06.37.58.2.53.57s-.47.48-.77.58"/><path class="cls-1" d="M81,222.34a.45.45,0,0,1-.47-.1c-.67-.94-1.75-1.38-2.25-2.52-.08-.19-.28-.73-.68-.56-.24.1-.47.06-.53-.18s.33-.19.46-.42a2.1,2.1,0,0,1-.27-1.83,9.86,9.86,0,0,0,.55-2.85c0-.84.4-1.8-.5-2.45.43-.32.47-.38.3-.7-.73-1.39-1.14-3-2.2-4.15-.41-.45-.62-1.39-1.46-1.09-.1,0-.18-.07-.24-.18a1.45,1.45,0,0,0-1.37-.88c-.16,0-.44-.22-.24-.34.37-.21,0-.32,0-.34-.5-.15-1-.54-1.51-.18-.24.16-.51-.07-.37-.27.36-.52-.08-.73-.27-1a3.07,3.07,0,0,1-.58-.94c-.13-.36-.29-.69-.45-1a.38.38,0,0,0-.51-.23c-.22.05-.26.24-.22.5s0,.52,0,.77,0,1,.69.75c.13-.05.2,0,.25.16s.09.19,0,.31c-.59.72-.38,1.63-.35,2.51s.68,1.61.31,2.49c0,0,0,0,0,.06a6.41,6.41,0,0,1,0,2.31c.21.16.24-.34.43-.07a.31.31,0,0,1,0,.48c-.24.16-.26.34-.1.63s.32.33.54.14.27,0,.36.15a.22.22,0,0,1-.08.34c-.19.12-.35.22-.16.54s.29.46.58.23c.13-.1.28-.07.37.12s-.06.28-.19.37-.19.16-.1.27c.26.35.49.87,1,.42a.82.82,0,0,1,0,.24c-.32.9-.25,1,.65.93.26,0,.38.34.31.39-.56.43,0,.62.18.66.38.1.58.43.86.68a3.5,3.5,0,0,0,2.58,1.11c.19,0,.29.13.44.33-.51.08-.52.5-.31.85.32.54.45,1.27,1.08,1.54a.22.22,0,0,1,.12.33c-.09.13-.12.38-.36.28l-.64-.26a3,3,0,0,0-.94-.36c-.44,0-1,.37-1.18-.57,0-.07-.16-.15-.25-.18a10,10,0,0,1-2-1.09c-.84-.51-1.88-.31-2.63-1.2-.19-.23-.36.35-.66.31-.47,0,.06-.44-.25-.7-.58-.47-1.34-.6-1.74-1.34a1.71,1.71,0,0,1-.24.36c-.08.05-.16.35-.28.08,0-.11-.31-.18-.12-.45s-.07-.81-.41-.71-.42-.1-.41-.32-.12-.27-.2-.39c-.61-.9-1.22-1.8-1.82-2.71a1.14,1.14,0,0,1-.28-.91,2.62,2.62,0,0,1-.69-.68,4,4,0,0,1-1.38-.72,3.78,3.78,0,0,1-.4-.4l-.13,0a.18.18,0,0,1-.2,0c-.61-.21-.31.47-.53.6.15.24.27.61.47.68.37.15,0-.34.17-.39s.16-.53.42-.35a.35.35,0,0,1,0,.6s-.05.13-.08.18a.52.52,0,0,0-.06.58c.12.14.28.41.52.18s.27,0,.28.12c.07.56,0,1.2.69,1.35a4.55,4.55,0,0,0,1.81,2.16c.32.27.78.52.92.8a3.93,3.93,0,0,0,1.36,1.36c.28.21.47.47.79.15.1-.1.24,0,.33.08a.26.26,0,0,1,0,.32c-.08.11-.36.21-.07.39s.22.57.53.31c.16-.12.34-.06.34.12,0,.72.58.71.91,1,.11.11.27.17.23.36s-.18.16-.31.15a6.77,6.77,0,0,0-2.85.77c-.27.1-.46,0-.33-.33a.51.51,0,0,0-.41-.75c-.28,0-.38-.15-.54-.35-.42-.52-1.12-.56-1.49-1.23-.17-.3-.36.35-.63.15s.19-.53-.08-.75A6.5,6.5,0,0,0,60,215.25c-.69-.12-1.42-.16-2.12-.26a6.93,6.93,0,0,0-1.21,0c-.62,0-1,.6-1.56.62s-1.12-.08-1.45.73c0-.58-.26-.53-.56-.52s-.81.38-1.21-.1c-.24-.29-.72-.37-.85-.63-.33-.66-.82-.68-1.32-.81-.25-.07-.22.17-.21.3,0,.32.12.08.2,0s.25.15.22.24c-.18.54.22.74.48,1,.54.48,1.23.72,1.49,1.6.13.44.65.45,1,.69s.43.53.69.09c.06-.09.15-.06.21,0a.29.29,0,0,1,0,.32c-.08.16-.26.24,0,.52a29.46,29.46,0,0,0,2.7,3.08c.36.39.55-.2.76-.06s-.1.73.39.87.74.35,1.12.43.73-.34,1.09.27c.08.14.71.21,1.12.17a10.42,10.42,0,0,1,2.09,0,4.18,4.18,0,0,0,4.56-2.19c.35-.64,1-.32,1.38-.83.54.44,1,0,1.48-.11.64-.12,1.26-.54,2-.16a1.26,1.26,0,0,0,1.11.16c.33-.15.62-.35.6.34,0,.07.12.18.2.23a9.55,9.55,0,0,0,1.28.64,15.59,15.59,0,0,0,3.13,1.13,7.35,7.35,0,0,0,2.33.22.46.46,0,0,1,.5.22c.19.28.18.32.39.19a1.31,1.31,0,0,1,.47-.09,2,2,0,0,0,.59-.15A3.73,3.73,0,0,1,81,222.34Z"/><path class="cls-1" d="M30.43,109.87c.58-.24-.21-.46,0-.79.54-.87.51-.9-.54-1,.11,0,.31.1.26.19-.16.38-.59.74,0,1.11a.33.33,0,0,1-.1.24,2.21,2.21,0,0,0-.72,1.86,3.8,3.8,0,0,1,.09,1.47s0,0,0,.11a1.18,1.18,0,0,0,0,.2c0,.14-.08.28-.12.42l.41,0c-.05.44-.32.52-.64.53a.91.91,0,0,1-.07.14c0,.81-.58,1.71.33,2.41,0,0,0,.17,0,.26-.11.34,0,.73-.36,1,.75.17.17-.53.44-.62.36.06,0,.47.42.59.11-.62.2-1.2.3-1.79.07-.41,0-.72-.58-.59.14-.25.2-.4.46-.41a.41.41,0,0,0,.39-.45,20,20,0,0,1,.4-2.44c0-.33.12-.9,0-1C29.84,111,30.89,110.27,30.43,109.87Zm-.37,2.86c-.54.06-.45-.43-.59-.73.27.29.84-.17,1,.37C30.46,112.56,30.28,112.71,30.06,112.73Z"/><path class="cls-1" d="M30.43,101.87c.58-.24-.21-.46,0-.79.54-.87.51-.9-.54-1,.11,0,.31.1.26.19-.16.38-.59.74,0,1.11a.33.33,0,0,1-.1.24,2.21,2.21,0,0,0-.72,1.86,3.8,3.8,0,0,1,.09,1.47s0,0,0,.11a1.18,1.18,0,0,0,0,.2c0,.14-.08.28-.12.42l.41,0c-.05.44-.32.52-.64.53a.91.91,0,0,1-.07.14c0,.81-.58,1.71.33,2.41,0,0,0,.17,0,.26-.11.34,0,.73-.36,1,.75.17.17-.53.44-.62.36.06,0,.47.42.59.11-.62.2-1.2.3-1.79.07-.41,0-.72-.58-.59.14-.25.2-.4.46-.41a.41.41,0,0,0,.39-.45,20,20,0,0,1,.4-2.44c0-.33.12-.9,0-1C29.84,103,30.89,102.27,30.43,101.87Zm-.37,2.86c-.54.06-.45-.43-.59-.73.27.29.84-.17,1,.37C30.46,104.56,30.28,104.71,30.06,104.73Z"/><path class="cls-1" d="M96,229A8,8,0,0,1,93,227.62c-.06.16-.1.38-.27.43-.45.14-.12-.44-.51-.55-.72-.2-1.47,0-2.13-.53a1.42,1.42,0,0,1-.08.42c0,.08,0,.39-.22.19s-.35,0-.28-.36-.4-.72-.67-.49-.42.08-.5-.13-.22-.2-.34-.28l-2.76-1.75c-.28-.18-.57-.37-.62-.72a2.76,2.76,0,0,1-.9-.35,4,4,0,0,1-1.55-.1,3.89,3.89,0,0,1-.53-.21l-.13,0c0,.06-.07.1-.17.11-.64.05-.1.56-.25.77.24.15.49.44.71.43.39,0-.1-.33,0-.43s-.08-.55.24-.48a.34.34,0,0,1,.23.55s0,.13,0,.2a.51.51,0,0,0,.18.55c.16.08.42.26.54,0s.24-.13.31,0c.28.49.46,1.12,1.17,1A4.55,4.55,0,0,0,87,227.08a4.3,4.3,0,0,1,1.16.36,3.88,3.88,0,0,0,1.79.7c.33.08.62.25.78-.17.05-.14.21-.13.34-.06a.24.24,0,0,1,.15.28c0,.13-.24.34.1.38s.42.44.61.07c.09-.17.29-.18.35,0,.29.66.82.41,1.24.56.15,0,.32,0,.35.24s-.1.22-.22.26a.83.83,0,0,0-.16.09c.88,0,1.76,0,2.63-.06a1.4,1.4,0,0,1,1-.3,1.59,1.59,0,0,0,.89-.14A17.61,17.61,0,0,1,96,229Z"/><path class="cls-1" d="M231.76,63.06a3.7,3.7,0,0,1,.38,1.8c-.06,1.08.6,2,.93,3a9.08,9.08,0,0,0,1.17,1.76A13.5,13.5,0,0,1,236.35,74c.14.5.38,1-.14,1.51.92.63.06,1.44.22,2.16s-.24.48-.58.3c-.53-.13-.17-.57-.28-.86-.76.09-1.06.68-1.45,1.27.63,0,1.3.31,1.73-.43a.66.66,0,0,0,.23.62c.51.37.33.83.07,1.17s-.29.33,0,.64.56.94-.32,1c-.22,0-.24.1-.28.23-.09.29.16.27.3.31l1.91.47A4.81,4.81,0,0,0,236.36,84c-.11.17-.15.44-.4.39-.61-.13-.57.32-.75.67s.2.84-.25,1.13c-.12.09-.17.36-.38.17s-.13-.28.07-.41a.62.62,0,0,0,.11-.95c-.28-.34-.22-.54-.12-.93s.73-1,.09-1.5c-.45-.35-.65-.89-1.15-1.21a1.11,1.11,0,0,1-.37-1.79c.07-.08.12-.26.08-.32s-.26-.23-.34-.2c-.86.32-1.34-.23-1.87-.75a10.13,10.13,0,0,1-1.19-2c-.72-1-.33-2.34-.69-3.48a.42.42,0,0,1,.33-.59c.41-.11.48-.27.09-.55-.58-.42-.53-.8.16-1.09.37-.15.4-.28.09-.52-.46-.35-.46-.78,0-1.13.22-.14.34-.31.15-.46-.43-.33-.1-.57.07-.78a4,4,0,0,0,.67-1.44c.11-.39.07-.62.53-.35a.24.24,0,0,0,.34-.18.23.23,0,0,0-.22-.3c-.57-.09-.52-.44-.48-.89.05-.61.39-.18.6-.22s.24,0,.28-.11,0-.34-.15-.36c-.65-.06-.36-.44-.28-.76Zm1.42,11.32a1.13,1.13,0,0,0-.74-.42c-.14,0-.28,0-.35.17s0,.29.16.32c.93.19,1.24.71,1.07,1.66-.08.4.63.27.75.68A3.09,3.09,0,0,0,233.18,74.38Zm-1.39,3.4c.15,0,.3.23.46.06s.07-.33,0-.48a5.62,5.62,0,0,1-.29-.61c-.07-.28-.55-.62.09-.85a.2.2,0,0,0,0-.3.21.21,0,0,0-.36,0c-.21.33-.65.6-.27,1.08C231.55,77.08,231.08,77.63,231.79,77.78Z"/><path class="cls-1" d="M136.35,231.68c.61-.31.61-.31.22-.81-.09-.12,0-.18,0-.24.41-.48.74-.47,1.11,0,0,.05.13.13.16.12.59-.36,1.07.21,1.65.14-.19.26-.28.58-.08.73s.42-.07.54-.32.29-.23.52-.23c1.61,0,3.22,0,4.83-.07l.46,0a6.12,6.12,0,0,0,1.21.11c1.44-.24,2.88-.46,4.31-.73.39-.08.6-.08.77.34a.43.43,0,0,0,.79.1c.3-.43.54-.53.94-.12s.54.27.69-.08.46-.32.8-.34c.63,0,0,.27.14.4a.61.61,0,0,0,.4.14c.25,0,.27-.11.22-.28-.17-.5.17-.42.45-.41a2.84,2.84,0,0,0,2.28-.64,9.58,9.58,0,0,0,1.66-1.72c.42-.78,1.39-1.21,1.4-2.24,0-.18.24-.22.42-.26s.4-.14.28-.37a1,1,0,0,1,.2-1.14c.43-.46.11-1.51,1.16-1.47.14,0,.17-.34.06-.39-.58-.25-.27-.82-.19-1,.27-.79-.13-.43-.42-.31s-.63.23-.83-.12-.44-.29-.78-.16c-.95.35-1.29,0-1.12-1a2.11,2.11,0,0,1,0-.36c.1-.25,0-.39-.22-.49s-.4-.19-.51.11-.24.27-.49.18c-.84-.32-1.2-1.08-1.63-1.76a.49.49,0,0,1,.15-.73c.2-.11.17-.4-.14-.41-.48,0-.31-.37-.37-.61s.08-.41.37-.41a.33.33,0,0,0,.31-.31c0-.14-.12-.17-.21-.17-.42,0-.44-.32-.45-.59s.24-.39.54-.41.38-.26.1-.46c-.11-.08-.23-.1-.16-.27a5.5,5.5,0,0,1,1.26-2.18c.25-.22,1.28-.16.28-.81a.45.45,0,0,1,.09-.2,17.54,17.54,0,0,0,2.1-3.34c.13-.25.16-.57.35-.75a14.79,14.79,0,0,0,1.65-2.15c.25-.36.4-.71,1-.4.24.13.79,0,.57-.42-.45-.81.1-1.42.27-2.09,0-.17.22-.75.61-.53s0,.53-.13.8c0,0,0,.09,0,.16.24,0,.61-.17.64.3,0,.3.11.63-.33.73-.19,0-.35.13-.25.38s.08.3.31.23c.43-.13.41.32.52.5s-.06.42-.34.48-.27.21-.22.43.2.26.41.18a.41.41,0,0,1,.56.36c-.08.78.51,1.3.73,2,.29.88.06,2,1,2.64.05,0,0,.2,0,.3.18,1.23.39,2.45.5,3.69a20.47,20.47,0,0,0,0,2.22,3.39,3.39,0,0,1-.6,2c-.21.39-.26.93-.91.86-.2,0-.23.18-.24.34s-.07.31.13.28c.45-.08.26.16.17.31-.3.48-.61.94-1,1.46-.11-.24,0-.66-.45-.48-.14.06-.32.05-.34.26,0,.48.43.24.62.45l-.87,1.06c-.16.19-.28.45-.53,0a.43.43,0,0,0-.58.19c-.06.19-.09.44.28.38s.2.09.11.22c-.41.58-.6,1.27-1,1.87s-.74,1.2-1.13,1.64a3.64,3.64,0,0,0-.63,1.55,1,1,0,0,1-.19.23c-.27.22-.64-.08-.88.14-.42.38.48.4.23.79a.75.75,0,0,0-.09.73.71.71,0,0,0,.56.48c.37.06.24-.22.34-.38a2.89,2.89,0,0,1,.79-.67c.18.6.57.1.85.17,0,.52-.75.21-.74.45,0,.57-.42.63-.69.63-.76,0-1.34.54-2.07.55-.12,0-.18.08-.21.19s.06.24.21.26.42.12.53,0c.4-.31.59,0,.66.26.16.55.57.63,1,.68a1.87,1.87,0,0,1,.9.19c1.08.73,2.36.67,3.56.92a1.57,1.57,0,0,0,1.56-.64,3.27,3.27,0,0,1,1.58-1.65c.41-.26.87-.06,1.07-.88.27-1.14,1.72-1.33,2.52-2.1.46-.45.66.26,1,.18.87-.22,1.8,0,2.66-.34.27-.11.71-.22.68.41,0,.24.24.5.56.22a1.85,1.85,0,0,1,1.69-.25,22.7,22.7,0,0,1,2.82.58c.92.28,1.81,0,2.67.27,0,0,.1,0,.15,0s.19.08.13.2-.25.42.09.48a.43.43,0,0,0,.47-.34c0-.31.22-.43.45-.42,1.14.06,2.28.15,3.42.24-.68.12-.38.63-.34,1s.25.12.36,0,.47-.32.23-.57a1.86,1.86,0,0,1-.28-.43,5.68,5.68,0,0,0,2.62-.59c.13.18-.08.39.1.58.45.49.18.53-.31.49s-.71.26-1.05.44c-.5.25-1.06.78-1.49.7a2.32,2.32,0,0,0-2.13.68,15,15,0,0,1-1.42.92c-.36.24-.8.07-1.19.36a11,11,0,0,1-3,1.62c-.21.07-.45.18-.39.41.14.64-.36.33-.58.41s-.32-.3-.54-.09a5,5,0,0,1,1.88-1.75c.43,0,.53-.26.51-.61s-.38-.18-.39-.17c-.5.51-1.33.6-1.67,1.32-.18.38-.4.76-.85.21-.2-.25-.45,0-.63.07s0,.25.08.37a.44.44,0,0,1-.24.65c-1.18.45-2.35.91-3.56,1.24s-2.16-.71-3.33-.29a3.6,3.6,0,0,1-.89-.23c-.15,0-.44-.08-.32-.33s.35-.39,0-.57a.57.57,0,0,0-.76.2c-.24.34-.47.39-.83.12a.92.92,0,0,0-1.21.23c-.32.31.1.62.31.89.08.1.31.15.13.41a3.4,3.4,0,0,1-1.39-.84c.18-.11.52-.12.43-.44s-.4-.26-.59-.17a.6.6,0,0,1-.86-.41c-.39-1.15-1.47-1.06-2.31-1.4-1.2-.5-2.7-.18-3.64-1.37a.19.19,0,0,0-.15,0c-.61.41-.92-.07-1.27-.42a.62.62,0,0,0-.48-.23,20.21,20.21,0,0,1-4.91.34c-.14,0-.3,0-.32.15-.06.36-.35.23-.47.18-1.08-.39-2.14,0-3.2.09-2.34.15-4.64.95-7,.53-.09,0-.19.06-.29.09-1,.29-2,.58-2.91-.16-.1-.08-.39-.09-.42,0-.38.64-.87.18-1.29.14a5.9,5.9,0,0,1-2-.85ZM167,210.51c.17-.21.65-.3,0-.7-.42-.27-.54-1-.77-1.58-.06-.14,0-.34-.22-.35a.42.42,0,0,0-.31.2c-.11.44-.58.71-.55,1.24,0,.24-.23.49-.23.73,0,.44-1.07.87,0,1.32.44.19.77.71,1.35.51.19-.07.33-.15.28.17,0,.14,0,.27.22.22s.44-.07.4-.28c-.09-.42-.08-1-.67-1.1C166.55,210.61,166.84,210.66,167,210.51Zm6.6,21.73a1,1,0,0,1,.14-.9c.21-.28.5-.38.7-.1a.52.52,0,0,0,.74.18c.15-.06.16-.16.12-.31-.09-.36-.38-.28-.63-.31s-.31,0-.57-.08c.29-.16,0-1.07.92-.22-.47-.71-.26-.89.21-.69a1.14,1.14,0,0,0,1-.12c.39-.2.13-.48,0-.73s-.27-.32-.52-.12-.35.08-.41.19c-.33.54-.92.14-1.32.41a.22.22,0,0,1-.19-.08c-.4-1-.8,0-1.27-.14.18.44.37.08.5.19s.42-.17.57.07,0,.28-.07.26c-.25-.1-.29.64-.65.14-.16-.23-.44,0-.63.1s-.06.33,0,.47,0,.52.43.31c.26-.13.4.24.71.39C172.69,231.58,172.7,231.64,173.57,232.24Zm-8.47-17.6c-.25.2-.87.2-.75.31.34.28,0,1.24,1,.94.47-.15.3-.24.42-.37.57-.62-.32-1-.19-1.49.05-.21.22-.33.28-.6C164.77,213.43,164.71,213.92,165.1,214.64Zm2.16-1.07c.14-.14-.06-.29-.21-.33s-.59,0-.64.3c-.1.6-.11,1.22-.16,1.83,0,.16,0,.24.21.23s.4,0,.41-.26c0-.41.9-.43.39-1.12C167.07,214.09,167,213.88,167.26,213.57Zm-3-8c0,.11.14.23.34.11.59-.36.55-1.08.91-1.59.16-.24-.39,0-.51-.27C164.72,204.45,164.45,205,164.25,205.56Zm5.18,28.21c-.82-.33-.69.45-.82.78s.42.13.56.38c-.46-1,1-.54.93-1.28C169.86,233.61,169.68,233.86,169.43,233.77Zm4.48-.42c.69.37.7-.06.49-.56-.09-.21-.23-.41-.34-.61C174.15,232.6,173.21,233,173.91,233.35Zm-27.78-1.61c-.32,0-.22.25-.17.38.15.43.55.2.79.18s.47-.3.27-.72A9,9,0,0,1,146.13,231.74Zm16.57-19.29c-.21.17-.71.24-.56.61a.65.65,0,0,0,.82.22c.52-.19,0-.35.11-.46C162.93,212.64,163,212.22,162.7,212.45ZM176.14,234c.13.26.24.47.58.35s.28-.38.23-.64-.3-.13-.47-.1C176.45,233.83,175.91,233.57,176.14,234Zm-13.62-19.78c-.13-.22-.53-.25-.85-.15-.11,0-.28,0-.25.18s.13.25.15.24c.46-.19.26.41.58.45C162.19,214.67,162.75,214.6,162.52,214.24Zm9,17.49c-.11,0-.28.11-.3.2s.09.22.24.24c.39.06.79.26,1.3-.24C172.24,232,172,231.6,171.57,231.73Zm-20.28-.7a.25.25,0,0,0-.17-.37.82.82,0,0,0-1,.61C150.56,231.24,151,231.4,151.29,231Zm30.15,1.21c0-.41-.66-.37-.74.08a1.08,1.08,0,0,0-.08.52C180.8,232.5,181.49,232.8,181.44,232.24Zm-15.86-14.6.12-.26c-.28-.1-.35-.52-.72-.46a.39.39,0,0,0-.36.47C164.85,217.71,165.3,217.39,165.58,217.64Zm14.75,13.59c.15-.08.36-.12.24-.38a.36.36,0,0,0-.56-.19c-.15.08-.37.1-.29.28S180.06,231.37,180.33,231.23Zm-18.52-15.35c-.14.14-.22.33.06.41a.42.42,0,0,0,.54-.18c.05-.14.14-.38-.18-.39s-.1-.46-.49-.47C161.7,215.49,162.05,215.65,161.81,215.88ZM179,229.67c.09.19.19.31.41.19s.44-.1.35-.41-.25-.3-.49-.2S178.89,229.37,179,229.67Zm-15.16-17.36c-.24.08-.36.22-.31.46s.3.23.48.15.42,0,.31-.29S164.17,212.21,163.87,212.31Zm-.27-8.09c-.18.07-.43.09-.34.4s.22.31.46.23.36-.18.29-.41S163.79,204.15,163.6,204.22Zm-.3,11.9c.29-.16.28.41.45.23a2.27,2.27,0,0,0,.45-.84c0-.08-.21-.1-.37,0S163.27,215.71,163.3,216.12Zm11.31,18.41c.13.27.34.28.58.21s.38-.06.24-.34a.4.4,0,0,0-.59-.2C174.74,234.27,174.47,234.24,174.61,234.53Zm10.52-2.26A.23.23,0,0,0,185,232c-.46-.13-.66.3-1.14.57C184.42,232.42,184.87,232.78,185.13,232.27Z"/><path class="cls-1" d="M175.13,238.92c-.12-.19-.29-.2-.51-.18-.51.06-1,.1-1.53.13a2.93,2.93,0,0,1-2.77-1.38c-.13-.19-.31-.39-.1-.58a.4.4,0,0,1,.59.07,1.17,1.17,0,0,0,1.46.17c.23-.1.58-.49.77-.25.6.73,1.73.22,2.26,1.06.08.13.37.11.56,0a.54.54,0,0,1,.21-.08c.05,0,.25,0,.16.05-.29.14.28.68-.33.64-.07,0-.57-.25-.48.26Zm-1-.67c.1-.05.22-.08.14-.26-.24-.52-.66-.22-1-.23C173.55,238,173.65,238.5,174.17,238.25Zm-1.75.17c.11,0,.35,0,.26-.23-.16-.47-.56-.33-1-.33C171.85,238.27,171.94,238.62,172.42,238.42Z"/><path class="cls-1" d="M181.23,235.66a6.6,6.6,0,0,0-1.82.7c-.28.15-.29.29-.28.71,0,.14-.23.29-.37.42s-.13.22-.26,0c-.33-.54-.66,0-1,.06s-.2.8-.8.41c-.09-.06,0,.32,0,.5l2.45-.68c0-.24.24-.28.39-.38s.21-.14,0-.44-.19-.43.09-.56.42-.17.63.12c.09.12-.14.51.24.36.15-.06.43-.17.32-.47S181.42,236.06,181.23,235.66Z"/><path class="cls-1" d="M234.23,152.53c-.14-.1-.66.09-.8.29-.3.41-.13.74.29,1.11s-.1.52-.41.63-.23.37-.17.59c.1.37.38.38.67.32s.52,0,.59-.31-.65-1.14.5-.92l-.13-.81A1.1,1.1,0,0,0,234.23,152.53Z"/><path class="cls-1" d="M219.24,131.49c.26.36.09,1.2.89,1.07.42-.06.7-.45.52-.77s-.16-1-.83-1C219.59,131,219,131.11,219.24,131.49Z"/><path class="cls-1" d="M225.23,138.88c.19-.29.06-.42-.08-.62a.47.47,0,0,0-.81,0,2.06,2.06,0,0,1-1.12.73C224.05,139.29,224.67,139.75,225.23,138.88Z"/><path class="cls-1" d="M246.57,155.66c.23.63.83.55,1.33.64s.5-.13.42-.44c-.19-.76-.9-.57-1.42-.75C246.54,155.14,246.46,155.36,246.57,155.66Z"/><path class="cls-1" d="M227.92,140.51c0,.29.34.28.6.3.52.05.74.51.38.84s0,.44.06.45c.71.09.67.74.73,1.15s.42,1.1-.33,1.44c-.26.12-.07.3.09.35.53.18.33.58.29.92-.07.52-.48.17-.7.27-.4.2-.44-.34-.74-.28a.29.29,0,0,0,.06.34c.69.7.68,1-.06,1.56-.07.06-.25.12-.15.18.41.26.28,1,.94,1a1.38,1.38,0,0,1,1.32.93c.31.91,1.1,1.47,1.47,2.32.14.34.54.24.84.2a.22.22,0,0,0,.17-.34c-.28-.42-.09-.83,0-1.25.3,0,.62.52.84.14.38-.64.62.1.92,0,0,.3.2.66.09.88-.22.4-.29-.22-.45-.15s-.52-.26-.61.08c0,.19,0,.55.44.43.06,0,.14.05.21.07.23,0,.47.14.48.37s.06.53-.33.55a.19.19,0,0,0-.15.32c.36.46.91.85.39,1.54.53,1,.18,2,0,3a4.43,4.43,0,0,0-.22,1.33,4,4,0,0,1-.18,2.08c-.09.38-.06.73-.57.75-.17,0-.24.17-.23.33a.22.22,0,0,0,.21.25c.15,0,.46-.13.34.24-.07.22.23.58-.24.65-.22,0-.33.23-.2.36.54.52,0,1,0,1.47,0,.17-.11.35.07.45s.28,0,.38-.14a9.38,9.38,0,0,1,3.07-1.75c.3-.14.39-.37,0-.5a.51.51,0,0,1-.2-.88.76.76,0,0,0,.22-.69c0-.72.56-1.32.4-2.11-.08-.35.57,0,.66-.39s-.57-.24-.5-.61a7.82,7.82,0,0,1,1.23-3.58c.52-.65,1.13-1.26,1.67-1.91a9.76,9.76,0,0,1,1.09-1c.54-.48,1.32-.37,1.82-.8s.93-1,1.81-.64c-.4-.44-.16-.6.11-.83s1-.38,1-1.05c0-.42.36-.86.28-1.15-.2-.74.22-1.16.55-1.65.17-.26.31-.06.41,0s-.05.16-.14.21a.19.19,0,0,0,0,.35c.56.25.36.71.3,1.09-.12.79-.54,1.52-.11,2.37.21.42-.25.86-.36,1.29s0,.74-.54.63c-.11,0-.16.07-.15.19s.05.23.2.27.41,0,.44.34a31,31,0,0,1-.09,4.42c0,.58-.63.31-.71.57s.63.46.31,1-.4.85-.67,1.22-.89.34-.75,1.08c0,.17-.47.72-.86,1a15.41,15.41,0,0,0-1.84,1.68c-1.52,1.68-3.31,2.66-5.62,2.1-.78-.19-1.15.61-1.82.51-.15.76-.87.79-1.37,1.12-.66.43-1.51.61-1.86,1.47a1.65,1.65,0,0,1-.86,1c-.4.16-.8.25-.27.74.06.05,0,.22,0,.32a10.74,10.74,0,0,1-.64,1.5,19.72,19.72,0,0,1-1.91,3.36,9.35,9.35,0,0,1-1.88,2,.56.56,0,0,0-.27.57c0,.35.08.37-.2.46a1.42,1.42,0,0,0-.48.31,1.57,1.57,0,0,1-1.21.43c-.16-.56.52-.75.46-1.25a.9.9,0,0,1,.55-1c.34-.17.86-.42.83-.74-.1-1.22.51-2.41.11-3.65-.07-.21-.3-.76.18-1,.28-.11.46-.33.33-.55s-.43.13-.71.06a1.94,1.94,0,0,0-1.13-1.55,9.48,9.48,0,0,1-2.58-1.63c-.62-.61-1.68-1-1.39-2.19-.6.12-.69.11-.78-.26-.39-1.61-1.22-3.12-1.14-4.82,0-.65-.49-1.5.47-2,.12,0,.1-.2.08-.33a1.65,1.65,0,0,1,.54-1.74c.14-.15.23-.52,0-.44-.48.14-.25-.23-.22-.27.31-.52.45-1.19,1.18-1.35.33-.08.4-.47.13-.5-.7-.09-.48-.6-.48-.93a2.93,2.93,0,0,0-.2-1.15,9,9,0,0,1-.36-1.11.46.46,0,0,1,.27-.59c.23-.13.41,0,.56.19s.41.36.54.59.7.76,0,1.1c-.15.07-.14.19-.1.31s.06.22.23.23c1.06,0,1.55.88,2.18,1.54s.59,1.73,1.57,2.06a.49.49,0,0,1,0,.07A6.17,6.17,0,0,0,227,159c-.07.29-.46-.05-.43.3a.31.31,0,0,0,.41.31c.33-.08.48,0,.55.38s0,.49-.37.54-.25.2-.21.39.16.23.33.19.47-.12.54.26.09.57-.33.64a.29.29,0,0,0-.25.39c.08.33.27.15.45.11s.28,0,.29.12c0,.46.21,1-.57,1.12.08.07.12.14.18.16.95.4,1,.52.13,1.2-.24.2-.09.56,0,.54.81-.14.43.47.33.62a2.39,2.39,0,0,0-.25,1.19,4.38,4.38,0,0,1-1.44,2.9c-.19.14-.16.33-.15.59.52-.35.83-.06.91.37.12.66.54,1.29.19,2-.05.11-.07.31.15.34s.38.18.51-.09.26-.47.37-.71a3.89,3.89,0,0,1,.56-1c.36-.38,1.17-.56.61-1.36,0-.07,0-.25.09-.34a12,12,0,0,0,.9-2.38c.36-1,1.43-1.75,1.42-3,0-.32.58,0,.81-.31s-.38-.27-.3-.71c.16-.81.73-1.52.54-2.39a1.48,1.48,0,0,0,.47.07c.11,0,.4.13.3-.17,0-.11.14-.37-.23-.41a.47.47,0,0,1-.16-.86c.35-.19.29-.41.12-.56s-.1-.29-.12-.45c-.13-1.15-.26-2.3-.41-3.45-.05-.42-.07-.88-.66-1a.4.4,0,0,1-.35-.42c.06-.37-.18-.43-.42-.58s-.65-.33-.63-.74.51-.09.64-.43c-.19,0-.25-.22-.39-.26a3.83,3.83,0,0,1-2.9-2.42.38.38,0,0,0-.72,0c-.1.27-.09.21-.32.17-1.29-.25-2.46-.87-3.73-1.18a.37.37,0,0,1-.27-.34,2.58,2.58,0,0,0,.29,0c.15,0,.35.18.45-.06s-.15-.28-.23-.42c-.18-.32-.35-.54-.81-.29a1,1,0,0,1-.85-.23,7.36,7.36,0,0,1-1.41-2.11c-.14-.36-.25-.76.24-1a.34.34,0,0,0,0-.14c-.78-.59-.3-1.53-.61-2.25-.18-.44.34-.5.39-.74.1-.45-.69-.18-.61-.49.22-.86-.32-1.92.63-2.6.17-.12.07-.24,0-.38-.12-.61-.28-1.24.56-1.52a.39.39,0,0,0,.23-.53c-.63.3-.73-.07-.52-.51a.79.79,0,0,0-.2-1,.59.59,0,0,1,0-.75c.14-.16.12-.41,0-.46-.47-.2-.27-.55-.28-.87s.15-.55-.23-.76,0-.44.13-.62.34-.19.36,0c.1.73,1,1.13.8,2a.35.35,0,0,0,.12.41c.44.23.39.6.32,1s-.06.5.27.44c.54-.11.7.3,1,.59.72.76.94,2.05,2.33,2.09.3,0,.58.34.8.63a9.72,9.72,0,0,0,.66.78c.16.17.66.25.12.59-.1.06,0,.46.26.41.67-.14.77.47,1.16.73C228.32,140.37,227.89,140.13,227.92,140.51Z"/><path class="cls-1" d="M234.23,152.53c-.14-.1-.66.09-.8.29-.3.41-.13.74.29,1.11s-.1.52-.41.63-.23.37-.17.59c.1.37.38.38.67.32s.52,0,.59-.31-.65-1.14.5-.92l-.13-.81A1.1,1.1,0,0,0,234.23,152.53Z"/><path class="cls-1" d="M219.24,131.49c.26.36.09,1.2.89,1.07.42-.06.7-.45.52-.77s-.16-1-.83-1C219.59,131,219,131.11,219.24,131.49Z"/><path class="cls-1" d="M225.23,138.88c.19-.29.06-.42-.08-.62a.47.47,0,0,0-.81,0,2.06,2.06,0,0,1-1.12.73C224.05,139.29,224.67,139.75,225.23,138.88Z"/><path class="cls-1" d="M246.57,155.66c.23.63.83.55,1.33.64s.5-.13.42-.44c-.19-.76-.9-.57-1.42-.75C246.54,155.14,246.46,155.36,246.57,155.66Z"/><path class="cls-1" d="M208.07,188.15l1-.8c.31.27.77.47.41,1,0,.07,0,.26,0,.29.84.57.68,1.5.83,2.3a5,5,0,0,1-.76,3.09c-.16.33-.5.51-.11.9.09.1,0,.33,0,.51-.36,1-1.18,1.68-1.46,2.77-.2.8-.42,1.63-.67,2.43a3.3,3.3,0,0,1-.82,1.66c-.22-.15-.12-.67-.58-.45-.24.11-.38.25-.31.53s.38,0,.58.15c-.32.28-.17.89-.82.95-.23,0,.09.31.09.5s.19.18.3,0,.09-.17.28-.1c.52.21.63.14.66-.44,0-.35.31-.28.45-.43s.23,0,.27.14.19.24.33.11.36-.22.36-.47-.3-.14-.49-.25c.45-.09.58-.7,1.19-.49.37.13,0,.38.24.53.48-.43.9-.6.7.33.33.09.62-.37.82-.05.46.73.65.11.8-.17a.54.54,0,0,1,.39-.3c.94-.17,1.83-.56,2.75-.72s1.64-.67,2.42.07c0,0,.18,0,.2-.05a3.54,3.54,0,0,1,1.54-1.66c.06,0,0-.25,0-.36.1-.27.25-.77.46-.67.65.31.68-.17.87-.5s.28-.42.53-.41a9.19,9.19,0,0,0,1.38-.31c.25,0,.48-.18.42.29,0,.29.25.33.4.11.49-.7,1.08-.35,1.69-.18-.12.26-.57.45-.2.83.41-.1.46-.83.71-.74.8.27,1.64-.14,2.46.28.37.19.69.61,1.1.59,1-.06,1.91.32,2.89.21.08,0,.41.07.15.24s-.21.32,0,.46a.36.36,0,0,0,.52-.07,1.4,1.4,0,0,1,.63-.43c.51-.24,1.25.17,1.59-.58a.22.22,0,0,1,.21,0,1.07,1.07,0,0,0,1.08-.09.4.4,0,0,1,.55.1.32.32,0,0,1,0,.36.41.41,0,0,1-.54.15c-.17-.08-.28-.15-.38.11-.19.51-.61.54-1.1.54-.31,0-.91,0-.49.67.14.22-.06.34-.16.46a7.6,7.6,0,0,1-1.1,1,17.11,17.11,0,0,1-2.34,2c-.38.19-.82-.08-1.1.32-.44.63-1.23.7-1.84,1.06a2.25,2.25,0,0,1-1.53.43,2.85,2.85,0,0,0-2.07.2c-.14.07-.34.26-.44-.13s-.29-.5-.52-.09-.52.24-.86.22-.35-.68-.66-.62c-.54.11-.44-.4-.4-.46a.63.63,0,0,1,.68-.2,5.68,5.68,0,0,0,3.39,0,4,4,0,0,1,1.13-.12c-.14.25-.49.37-.24.68.07.09.15.18.24.07s.48-.24.36-.6c-.18-.56.38-.48.53-.42s.4,0,.61-.12a10,10,0,0,0,1.19-.81c.19-.13.52-.24.4-.46s-.4-.19-.71,0a7.72,7.72,0,0,1-2.52.88c-.2,0-.23,0-.24-.06-.15-.89-.61-.27-.65-.06-.13.59-.52.35-.83.36-.13,0-.21-.16-.4-.12a6.15,6.15,0,0,1-2.38,0c-.85-.13-1.69-.29-2.53-.47a1.32,1.32,0,0,0,.59.34.61.61,0,0,1,.53.67c0,.31-.26.26-.46.2s-.79.13-.63-.52c.05-.22-.06-.45-.35-.22-.45.36-.8.12-1.14-.17a2.13,2.13,0,0,0-1.51-.63c-.48,0-.95.14-1.42.2s-.74.16-1.15-.37-.34.66-.83.7c-.12,0-.24.09-.37.09-1.05.06-1.89.74-2.87,1-.62.19-1.21.62-1.88.84-.08-.28.4-.68-.13-.75-.29,0-.67.14-.46.64.09.21-.14.22-.26.3-1.34.89-2.87,1.43-4.28,2.18-.44.23-.94.36-1.19.84-.14.26-.29.23-.5.11-.45-.26-.86-.08-.82.41s-.2.49-.36.4c-.58-.32-.93-.33-1.1.42a.37.37,0,0,1-.62.11c-.08-.09-.36-.1-.17-.32.33-.37.24-1,1-1.15.36-.06.71-.46,1.2-.46.15,0,.47-.05.45-.32s.2-.4.43-.53c1.08-.63,2-1.57,3.09-2.12.14-.06.35-.15.37-.25.24-1.09,1.28-1.74,1.5-2.83.13-.64.19-1.22-.46-1.69-.3-.21-.74-.46-.5-1,.06-.12,0-.31-.29-.33a1.74,1.74,0,0,1-1.43-2.22c.07-.21.05-.47-.29-.29s-.41.1-.42-.13c0-1.17-.62-2.28-.59-3.41a29.4,29.4,0,0,1,.65-4c0-.19.11-.34.33-.36s-.08.39.24.31a7.31,7.31,0,0,1,1.4-3.15c.44-.47.59-1.23,1.38-1.36.27,0,.51-.38.34-.59-.54-.65-.05-1.57-.63-2.2-.13-.13,0-.35.13-.46a.4.4,0,0,1,.43-.07,2.6,2.6,0,0,1,.92,2.31c.72-.74.86,0,1.1.35.82,1.11.82,1.31.3,1.84.23.36.57.11.85.16.54.09.26.62.25,1C208.36,187.17,207.91,187.39,208.07,188.15Zm16.76,13.92a1.84,1.84,0,0,0-1.19.07c-.17.09.11.53.25.82C224.27,202.72,224.7,202.58,224.83,202.07Zm-5.49.28c0,.12.2.25.41.09s.32-.34.18-.62-.22-.34-.39-.22C219.08,201.8,219.37,202.11,219.34,202.35Zm9-2.5c.22-.17.36-.37.14-.55s-.54,0-.58.2-.31.59,0,.91A4.52,4.52,0,0,1,228.35,199.85ZM205.18,188.5c.3-.26.59-.47.59-.95C205.16,187.63,204.85,187.83,205.18,188.5Zm17.58,15.2c0,.09.12.22.21.16a.94.94,0,0,0,.49-1C223.08,203.1,222.71,203.24,222.76,203.7Z"/><path class="cls-1" d="M230.51,91.53c-.13.2.22.64-.3.62-.07,0-.17-.15-.27-.07s0,.2,0,.29.19.25,0,.29c-.67.1-.36.58-.2.75.4.43.14.48-.21.56-.15,0-.26.1-.21.32s.68-.09.5.36c-.38.94.29,2.15-.78,2.91-.15.11,0,.33.08.43a.51.51,0,0,1,.14.6,9.76,9.76,0,0,0-.17,2.41h0c-.25-.35-.73-.29-1.06-.56l.79-.49a.16.16,0,0,0,0-.27c-.86-.84-.8-.84-.7-1.92,0-.43.38-.9.08-1.3-.46-.6-1-1.13-1.5-1.69.15-.24.62,0,.59-.44,0-.25-.18-.3-.41-.3a1.34,1.34,0,0,1-1.51-1.37c0-.12-.08-.35-.23-.21-.62.56-1.16.1-1.77,0a8.77,8.77,0,0,1-2.82-.94,4.57,4.57,0,0,1-1.85-1.26c-.25-.31.26-.54-.1-.67-.87-.31-1.09-1-1.25-1.85a6.53,6.53,0,0,0-.36-1.84c-.1-.18-.2-.45.17-.61a.33.33,0,0,0,.08-.59c-.46-.41-.45-.83.1-1.12.26-.13.49-.31.34-.53s-.49-.07-.71.13a2.3,2.3,0,0,1,.09-1.61,8.51,8.51,0,0,0,.85-2.64c0-.3-.14-1,.69-.73.15.06.27-.14.29-.33s-.11-.26-.29-.25c-.39,0-.35-.29-.39-.51a.38.38,0,0,1,.3-.44c.26-.08.43.09.55.28a8.92,8.92,0,0,0,.47.86c.53.71.8,1.81,1.63,2s1,1.62,2.12,1.48c0,0,0,.09.08.14.34.43.54.88.14,1.38.39.19.64-.66,1,0s1.14,1,.27,1.81c.51.06,1-.14,1.12.53A7.77,7.77,0,0,1,225.6,90c-.24.59-.43,1.12.22,1.57a1.06,1.06,0,0,1,.34.82,1.18,1.18,0,0,0,.49.93,5.67,5.67,0,0,1,1.43,1.46c.19.21.31.67.61.57s.3-.67.43-1c0-.07-.13-.18-.14-.29a2,2,0,0,1,1.53-2.48Zm-10.92-4.81c0-.8,0-1.39-1.11-1.36.38-.38.86-.62.18-1.08-.26-.17-.08-.72.33-.89s.54-.38,0-.61-.24-1-.76-1.41a6.21,6.21,0,0,0-.07,2.5,4.09,4.09,0,0,1,0,1.91,1.14,1.14,0,0,0,.42,1.47c.24.18.63.3.65.7-.15,0-.38-.14-.28.17a1.54,1.54,0,0,0,.67,1c-.14-.61.28-.91.62-1.26a.63.63,0,0,0-.8.07A5.42,5.42,0,0,1,219.59,86.72Zm5.26,3c.27-.14.51-.36.28-.5-.79-.46-.21-.85,0-1.25.06-.13.14-.3.07-.37-.22-.22,0-.76-.45-.74s-.21.47-.23.68a1.79,1.79,0,0,1-.73,1.35c-.19.14-.34.42-.64.07s0-.4.16-.56c.36-.37.71-.73.14-1.22-.09-.09-.06-.36-.27-.35s-.29.21-.3.41a1.26,1.26,0,0,1-.74,1.2c-.14,0-.15.14-.08.24a.31.31,0,0,0,.19.15c.62.09.62.09.5.66a1.21,1.21,0,0,0,0,.27C223.45,89.56,224.14,90.1,224.85,89.71ZM221,82.57c0-.06-.3-.06-.44,0a.35.35,0,0,0-.19.54c.2.34.26.81.79.89C221.56,83.52,220.78,83.1,221,82.57Zm2.56,3.77c.2,0,.14-.27.11-.43s-.18-.19-.3-.09c-.31.25-.61-.07-1,0C222.55,86.57,223.09,86.4,223.55,86.34Zm4.95,9.79c.1.4.44.21.67.27s.18-.13.16-.27c-.05-.38-.36-.32-.53-.37S228.46,95.94,228.5,96.13Z"/><path class="cls-1" d="M232.14,124.74c.12.76.62.82,1.18.79-.1,1.34,1.14,2.79-.36,4-.06,0,0,.27.09.41.2.52.12,1.13.64,1.53-1.19.31-.32-.82-.75-1-.58.11,0,.75-.64,1-.2-1-.4-1.87-.59-2.79-.14-.64-.05-1.12.88-1-.24-.37-.35-.61-.77-.61a.65.65,0,0,1-.65-.68c0-1.32-.65-2.51-.81-3.8-.06-.51-.26-1.4-.09-1.48,1.39-.64-.35-1.68.38-2.34-1-.35.29-.74-.05-1.24-.93-1.34-.87-1.37.8-1.68h0c-.17.08-.48.18-.41.33.29.58,1,1.11.07,1.74a.63.63,0,0,0,.17.36m1.27,5.35c.1.26.09.75.54.73m-2.2-1.68c-.05.3.25.53.6.55"/><path class="cls-1" d="M232.86,90.55c-.17-1,1.34-1.51.79-2.62-.56.54-.76,1.63-2,1.16-.18-.07-.23.19-.22.36s-.13.47.26.38a.86.86,0,0,1,1.12.73Z"/><path class="cls-1" d="M239.88,79.34c.2.29.29.75.65.51s1.24-.22,1.34-.89a.51.51,0,0,0-.8-.44C240.68,78.79,240,78.77,239.88,79.34Z"/><path class="cls-1" d="M231.86,133.42c-.17.07,0,1,0,1.49.1,1.29.7,2.5.64,3.83a.65.65,0,0,0,.62.7c.42,0,.52.26.74.64-.92-.19-1,.29-.93.94.16.92.31,1.84.48,2.81.61-.19.1-.84.68-.93.42.14-.5,1.23.7,1-.5-.41-.4-1-.57-1.55-.05-.14-.13-.38-.07-.42,1.47-1.09.5-2.5.53-3.77l-.12-.23c-.5,0-.93-.13-1-.83l.66-.06a4.81,4.81,0,0,1-.18-.65c0-.12-.05-.23-.08-.33a.2.2,0,0,1,0-.17,5.45,5.45,0,0,1-.06-1.07,7.17,7.17,0,0,1,.2-1.23,3.44,3.44,0,0,0-1.17-2.92.64.64,0,0,1-.16-.38c1-.59.28-1.14,0-1.73-.07-.16.24-.25.42-.31-1.68.23-1.74.27-.87,1.64.32.51-.94.85,0,1.24C231.59,131.73,233.28,132.84,231.86,133.42Zm.49,1.59c.17-.84,1.1-.11,1.53-.57-.23.48-.09,1.23-.95,1.15C232.58,135.55,232.29,135.31,232.35,135Z"/><path class="cls-1" d="M234.79,141.48l1.13.67c.52-.33,1-.76,1.52-1.07s1.41-.6,1.76-1.34c.08-.18.14-.44.44-.32s.5,0,.47.25.26.56-.15.72c-.07,0-.12.1-.31.27.63,0,1.13.42,1.59-.17.11-.13.33-.29.45,0s.44.19.54.1a7.45,7.45,0,0,1,1.22-.86c.14-.09.29-.14.25-.38s0-.56.32-.17c0-.06.11-.12.15-.18.68-1,1.7-1.57,2.31-2.65A28.57,28.57,0,0,0,248,133.1c.09-.21.39-.57,0-.83,0,0,0-.19,0-.22.76-.62.45-1.55.64-2.32a4.6,4.6,0,0,1,.18-.8c.08-.2.26-.41-.17-.39,0,0-.11-.13-.11-.21s.11-.16.22-.16c.45,0,.45-.18.32-.55s.29-.62.38-1,.28-.39,0-.65.09-.26.17-.39.3-.54.1-.69a.52.52,0,0,0-.71.22c-.14.25-.59.39-.31.83.11.18-.17.26-.28.21a.68.68,0,0,0-.83.26c-.31.48-1.12.45-1.14,1.18,0,0-.1.07-.15.07-1.37.11-2.44,1-3.66,1.49a1,1,0,0,0-.61.89c0,.28-.27.4-.43.16-.28-.42-.55,0-.58.06-.28.69-1.08.82-1.44,1.43a3.41,3.41,0,0,0-.68,2.61.43.43,0,0,1-.06.42,3.46,3.46,0,0,0-.49,3.1,2.4,2.4,0,0,1-.77,1.89C236.72,140.43,235.7,140.86,234.79,141.48ZM246,133.11c-.18-.08-.42,0-.53-.23s.05-.26.18-.35a.41.41,0,0,1,.56.07C246.43,132.87,245.86,132.84,246,133.11Zm-4.81,5.94a3.23,3.23,0,0,0,1.15-1.86c.08-.31.12-.87.59-.88s.95-.42,1.4-.64c.22-.11.49-.31.24-.7-.11-.16,0-.5.06-.74s.23-.12.35-.07,0,.39.15.61c.21-.11.4-.28.53-.28.09,1.19-.81,1.84-1.46,2.67.11.13.35-.12.43.14,0,.11,0,.22-.07.29s-.29.23-.49,0-.45,0-.46.14c-.11.51-.58.55-.9.81s-.93.4-1.35.7c-.12.09-.17.45-.4.19S241.09,139.14,241.2,139.05Zm-.45-2.59a2.43,2.43,0,0,1,.39-1.17c.14-.22.12-.3,0-.29-.36,0-.28-.24-.25-.38a.3.3,0,0,1,.43-.23c.2.12.27.05.31-.12.1-.41.46-.63.75-.44s.08.59-.16.84c0,0,0,.08-.05.11-.16.29-.06.44.25.43.14,0,.28-.14.32.12a.3.3,0,0,1-.21.35,1.51,1.51,0,0,0-.85.7C241.54,136.63,240.85,136.65,240.75,136.46Z"/><path class="cls-1" d="M234.19,122.15c.24-.49-.22-.42-.43-.5a.54.54,0,0,0-.27,0l.16-.39a2.24,2.24,0,0,0,.17-1.14c.73-.07.47-.56.5-1s-.12-.85.2-1.2,0-.32-.07-.48c-.76-1.16-.76-1.16.45-1.62a1.2,1.2,0,0,0,.21-.13.55.55,0,0,0-.64-.34c-.59.07-.39-.35-.24-.51a12.28,12.28,0,0,1,2-2,20.87,20.87,0,0,0,3.28-2.47c-.37.72.14.93.59,1.18l-.07.18c-.49.25-.14.61-.14.94.79-.09,1.21-1.51,2.25-.63-.21.25-.41.5-.61.76s-.2.4-.38.36c-.41-.11-.41-.14-.49.22a1.92,1.92,0,0,1-1.4,1.68c-.63.15-.81.81-1.29,1.16s.47.53.54,1.18c-.54-.55-1.17-.34-1.64-.66s-.74-.07-1.09.06c-.14,0-.14.19,0,.3.29.31.59.08.9,0,0,0,.09.06.18.11-.43.32-.61,1-1.19,1s-.56.33-.72.61c-.07.13,0,.31.15.28.34-.11.56.33,1,.06s.81-.8,1.48-1c-.08.39-.2.73.24,1a2.54,2.54,0,0,0-2.3,2.11c1.94-.22,3.64-1.32,5.57-1.64a7.49,7.49,0,0,1-1,.73,2.25,2.25,0,0,1-1.12.46c-.14,0-.28,0-.24.2.19.89-.49.67-.91.66s-.51.23-.49.51c0,.45.08.45-.32.44-.57,0-1.14,0-1.72,0-.37,0-.77,0-.93.45l-.77.59s0-.11-.05-.16l.05-.07c.54-.33.11-.66-.26-1.3C234.17,123.13,234.06,122.43,234.19,122.15Z"/><path class="cls-1" d="M242.12,112.13l-.61.76c.26.48,1.21.34,1.09,1.19.37-.47.77.13,1.12,0s.36-.07.46.13.14.45,0,.52c-.89.4-.5,1.27-.75,1.9h0c.55-.1.91-.31,1-1,.08-.92,1-1.55.83-2.65a28.05,28.05,0,0,0-1-4c-.09-.3-.45-.3-.86-.33.38.63,0,1.59,1.18,1.68a1.25,1.25,0,0,1-1.49.52c-.76-.35.55-.93-.16-1.42-.69.56-.26,1.63-.91,2.16.32.42.51-.3.81,0C242.71,112.05,242.23,111.88,242.12,112.13Z"/><path class="cls-1" d="M241.38,110c-.23-.72-.39-1.29.21-1.75.29-.23.07-.52,0-.79s-.32-.57.22-.62c.12,0,.34-.12.21-.3s-.21-.15-.43,0c-.77.54-.74,1.46-1.16,2.15-.06.11,0,.26-.12.35s-.58.25-.57.65c.37-.27.76.71,1.12,0Z"/><path class="cls-1" d="M243.41,116.6c-.41,1.09-1.49,1.65-2.16,2.79A4.83,4.83,0,0,0,243,118c.3-.28.24-.89.88-.9.21,0,.15-.2-.47-.52Z"/><path class="cls-1" d="M243.59,108.09,242.7,107c.2.62-.62.52-.44,1C242.53,108.65,243.12,108,243.59,108.09Z"/><path class="cls-1" d="M220.93,188.9a.49.49,0,0,0-.32.63c.35-.15.41.67.92.22a1.2,1.2,0,0,1,1.46-.25.84.84,0,0,0,.56,0c1.22-.31,2.48-.38,3.68-.79.62-.22,1.57-1.18,1.54-1.7a3.82,3.82,0,0,1,1.71-3.07.46.46,0,0,0,.23-.42,3.73,3.73,0,0,1,1.73-2.48c.61-.51,1.53-.35,2.09-1,.07-.08.51-.39.65.15.08.31.4.28.52,0a1.19,1.19,0,0,1,1-.7c1.5-.07,3-.6,4.51-.21.06,0,.18,0,.19,0,.3-.76,1.17-.43,1.68-.81a.77.77,0,0,1,1,0c.1.09.43.11.37-.12-.13-.57.42-.55.65-.76a.62.62,0,0,1,.86,0c.16.24-.16.51-.38.69s-.47.09-.33.34-.1.47-.26.69-.78.43-.78.88-.07.64-.55.46c-.12,0-.26,0-.31.09s0,.25.05.26c.47.14.19.29,0,.47a6.33,6.33,0,0,0-.5.77c-.49.74-.51,1.83-1.57,2.19a.31.31,0,0,0-.11.23c.38.43-.09.7-.26.89a31.34,31.34,0,0,1-2.9,2.86c-1.07.9-2.4,1.18-3.49,1.93a2.53,2.53,0,0,1-.23.12c-.22-.52-.37-.11-.41.06s-.24.27-.42.31a10.45,10.45,0,0,0-1.64.44c-.14.06-.54.14-.55-.29s-.31-.29-.47-.19c-.72.45-1.1-.16-1.78-.41a1.76,1.76,0,0,1,.44-.17c.5,0,.32-.47.44-.7s-.26-.3-.42-.44-.44,0-.59.17a4.14,4.14,0,0,1-2.41.75c-.71.13-1.36.41-2.05.56-.15,0-.36.23-.43.06-.27-.63-.66,0-.68,0-.17.42-.58.4-.86.38a8.2,8.2,0,0,0-1.66.22c-.4,0-.7.46-1.09.34a1.06,1.06,0,0,0-1,.3,23.29,23.29,0,0,1-2,1.56c-.54.31-.85.92-1.46,1.09-.41.11-.71.2-.84.64-.07.24-.44.57-.59.42-.46-.46-.61,0-.76.21-.41.62-.48.64-1.08.15a16,16,0,0,0,1.8-1.89c.16-.21.35-.56.59-.46.48.21.69-.08.73-.38a1.2,1.2,0,0,1,.48-.74c.42-.42.88-.81,1.27-1.26.88-1,2.17-1.52,3.1-2.45.52-.52.86-1.18,1.77-.92l.09,0A1.76,1.76,0,0,1,220.93,188.9Zm17-2.71c-.14-.05-.41.06-.68.09-.07-.27.32-.45.07-.69s-.33-.15-.4-.05-.41.53-.35.75c.12.5-.24.61-.52.64a3.8,3.8,0,0,1-1.75.15c-.52-.16-.77.41-1,.71a3.66,3.66,0,0,1-1.94,1.52c-.16.05-.49.07-.39.32s.33,0,.5,0c.56-.16,1.15,0,1.72-.24s1,0,1.27-.52c0-.08.44-.26.56,0s.32.22.52.18.18-.15.18-.28c0-.3-.33-.13-.4-.31C236.37,187.81,237.58,187.48,237.94,186.19Zm-5,.51a1.72,1.72,0,0,1,1.17-.42.33.33,0,0,0,.36-.29c.06-.28-.14-.2-.3-.24-.33-.1-.39-.3-.1-.55a.43.43,0,0,1,.1-.09c.35-.18.79-.43.48-.82s-.7-.22-1,.18c-.11.16-.2.21-.38,0a.34.34,0,0,0-.55.08c-.08.13-.27.39.12.49.12,0,.1.12-.12.3a2.55,2.55,0,0,0-.87,1.08C231.92,186.67,232.67,186.9,233,186.7Zm5.4-2.27c0,.27.32.29.48.43-.06-.33.55-.09.42-.45s-.33-.31-.58-.28S238.32,184.2,238.35,184.43Z"/><path class="cls-1" d="M220.24,187.78c.09-.24.17-.64.43-.61.52.06.64-.27.58-.56a1.27,1.27,0,0,1,.24-.86c.28-.52.6-1,.84-1.56.54-1.21,1.62-2.07,2.22-3.22.33-.63.47-1.31,1.33-1.37-.17.42-.33.84-.48,1.27a.47.47,0,0,0-.15.44,19.62,19.62,0,0,0-.68,2.69c-.09.09-.16.19-.24.28a23.42,23.42,0,0,1-1.47,2.07c-.42.46-.54,1.13-1.07,1.46-.36.22-.62.39-.61.85,0,.26-.25.68-.44.58-.58-.31-.59.16-.66.41-.21.71-.27.75-1,.45A15.64,15.64,0,0,0,220.24,187.78Z"/><path class="cls-1" d="M207.6,201.45c.14-.22.3-.59.54-.51.5.16.68-.15.69-.45a1.26,1.26,0,0,1,.4-.79c.38-.45.8-.89,1.14-1.37.77-1.09,2-1.72,2.83-2.73.45-.55.73-1.2,1.58-1.09-.25.38-.49.76-.73,1.15a.49.49,0,0,0-.23.4,22.46,22.46,0,0,0-1.22,2.52,3.11,3.11,0,0,0-.28.23,25.37,25.37,0,0,1-1.86,1.74c-.51.37-.76,1-1.35,1.23-.39.14-.69.26-.77.71-.05.26-.38.62-.54.48-.51-.41-.62.05-.74.28-.35.66-.41.69-1.06.26A16.71,16.71,0,0,0,207.6,201.45Z"/><path class="cls-1" d="M231.35,121.05c-.31-.1-.71-.18-.77-.59s.47-.2.52-.56c-.18,0-.29-.15-.43-.16a3.8,3.8,0,0,1-3.35-1.72.37.37,0,0,0-.7.13c0,.29,0,.23-.27.23-1.31,0-2.58-.3-3.88-.33a.38.38,0,0,1-.34-.27,2.29,2.29,0,0,0,.28-.09c.14-.06.38.1.43-.15s-.21-.24-.32-.36c-.25-.28-.46-.45-.85-.11a1,1,0,0,1-.88,0,7,7,0,0,1-1.82-1.74c-.22-.32-.42-.69,0-1,0,0,0-.11-.07-.12-.89-.41-.63-1.42-1.08-2.06-.28-.39.22-.56.22-.8,0-.46-.72,0-.71-.34,0-.89-.72-1.8,0-2.66.15-.16,0-.26,0-.38-.26-.57-.55-1.14.2-1.6a.38.38,0,0,0,.11-.56c-.54.42-.72.08-.61-.39a.79.79,0,0,0-.42-1,.57.57,0,0,1-.21-.72c.1-.19,0-.42-.1-.44-.5-.09-.38-.49-.46-.79s0-.56-.39-.69-.11-.42,0-.63.29-.25.35-.1c.25.69,1.22.88,1.2,1.75,0,.14.05.32.21.36.48.13.51.5.52.9,0,.24.06.49.36.36.51-.22.75.14,1.09.36.86.58,1.36,1.78,2.72,1.52.29,0,.63.21.9.44a9.68,9.68,0,0,0,.82.61c.19.14.69.1.24.55-.08.08.14.44.35.34.61-.28.84.29,1.28.46-.16.29-.63.16-.51.52s.38.19.64.16c.52-.06.83.33.56.74s.08.42.15.42c.71-.07.81.57,1,.95s.65,1,0,1.47c-.22.17,0,.31.17.33.55,0,.44.48.47.82.05.52-.42.27-.61.42-.35.28-.51-.24-.78-.11a.26.26,0,0,0,.13.31c.82.53.88.86.28,1.54-.06.06-.21.16-.11.2.46.17.5.94,1.14.79a1.39,1.39,0,0,1,1.49.62c.5.82,1.39,1.18,1.93,1.93"/><path class="cls-1" d="M178.17,222.37c.2,0,.38,0,.47-.1.67-.94,1.75-1.38,2.25-2.52.09-.2.28-.73.69-.56.23.1.47.06.52-.18s-.33-.2-.45-.42a2.13,2.13,0,0,0,.26-1.83,10.2,10.2,0,0,1-.54-2.85c0-.84-.4-1.8.49-2.46-.42-.31-.47-.37-.3-.69.73-1.39,1.14-3,2.21-4.16.41-.44.61-1.38,1.45-1.08.1,0,.19-.08.25-.19a1.45,1.45,0,0,1,1.36-.87c.17,0,.44-.22.24-.34-.37-.21,0-.32,0-.34.49-.15,1-.54,1.5-.18.24.16.52-.07.38-.27-.36-.52.07-.73.27-1a3,3,0,0,0,.57-.94c.13-.36.29-.69.45-1a.39.39,0,0,1,.52-.23c.21.05.25.24.21.49s0,.53,0,.77c-.09.4-.05,1-.69.76-.12-.05-.19,0-.24.16s-.1.19,0,.31c.59.72.38,1.63.36,2.51s-.69,1.61-.31,2.48a.19.19,0,0,1,0,.07,6.64,6.64,0,0,0,0,2.31c-.21.15-.24-.34-.43-.08a.32.32,0,0,0,.05.49c.25.16.26.34.1.63s-.31.33-.54.14-.27,0-.36.14a.23.23,0,0,0,.08.35c.19.12.35.22.17.53s-.29.47-.59.24c-.12-.1-.27-.07-.37.11s.06.29.2.38.19.16.1.27c-.27.35-.49.87-1,.42a.88.88,0,0,0,0,.24c.32.89.25,1-.64.93-.27,0-.39.33-.31.39.56.43,0,.62-.18.66-.39.1-.58.43-.86.67a3.48,3.48,0,0,1-2.58,1.11c-.2,0-.29.14-.45.33.52.09.53.51.32.86-.32.54-.46,1.27-1.09,1.54a.21.21,0,0,0-.11.33c.09.13.11.38.35.28s.44-.17.65-.27a3,3,0,0,1,.94-.35c.43,0,1,.36,1.17-.57,0-.07.16-.15.26-.18a10.41,10.41,0,0,0,1.95-1.09c.84-.51,1.89-.31,2.63-1.21.19-.22.36.36.66.32.47,0-.05-.44.25-.7.58-.47,1.34-.6,1.75-1.34.09.15.14.29.24.35s.16.36.27.09c.05-.12.31-.18.12-.45s.07-.82.41-.71.42-.1.41-.32.12-.27.2-.39c.61-.91,1.22-1.81,1.82-2.72a1.08,1.08,0,0,0,.29-.9,2.75,2.75,0,0,0,.68-.68,4,4,0,0,0,1.38-.72,3.78,3.78,0,0,0,.4-.4l.13,0a.19.19,0,0,0,.2,0c.61-.21.31.47.54.6-.16.24-.28.6-.48.68-.37.15,0-.34-.17-.39s-.15-.53-.41-.35a.35.35,0,0,0,0,.6s0,.12.09.18a.52.52,0,0,1,0,.58c-.11.14-.28.41-.52.17s-.26,0-.28.13c-.06.56,0,1.2-.69,1.35a4.55,4.55,0,0,1-1.81,2.16c-.31.27-.78.52-.92.8a3.93,3.93,0,0,1-1.36,1.36c-.27.2-.47.47-.78.15-.1-.11-.24,0-.33.08a.23.23,0,0,0,0,.32c.08.11.35.21.06.39s-.21.56-.53.31c-.16-.13-.34-.06-.34.12,0,.72-.58.71-.9,1-.12.11-.28.17-.23.36s.18.16.31.15a6.81,6.81,0,0,1,2.85.77c.26.09.45,0,.32-.34a.52.52,0,0,1,.41-.75c.28,0,.38-.14.54-.34.42-.52,1.12-.56,1.5-1.23.17-.3.36.35.62.15s-.19-.53.08-.75a6.55,6.55,0,0,1,2.86-1.73c.7-.12,1.42-.16,2.13-.26a8.08,8.08,0,0,1,1.21,0c.61,0,1,.6,1.55.63s1.12-.08,1.45.73c0-.58.26-.53.56-.52s.82.38,1.21-.1c.25-.3.73-.37.86-.63.32-.66.82-.68,1.31-.81.25-.07.22.16.22.3,0,.32-.13.08-.21,0s-.25.15-.22.24c.18.54-.22.74-.48,1-.54.48-1.23.72-1.48,1.6-.13.44-.66.45-1,.69s-.42.53-.69.09c-.05-.09-.14-.06-.2,0a.29.29,0,0,0,0,.32c.08.15.26.24.06.52a32,32,0,0,1-2.7,3.08c-.37.39-.56-.2-.76-.07s.09.74-.39.88-.74.35-1.13.43-.73-.34-1.09.27c-.08.14-.71.21-1.11.17a10.43,10.43,0,0,0-2.09,0,4.2,4.2,0,0,1-4.57-2.2c-.34-.63-1-.31-1.38-.82-.54.44-1,0-1.47-.11-.65-.12-1.26-.55-2-.16a1.28,1.28,0,0,1-1.12.16c-.33-.16-.62-.35-.59.34,0,.07-.12.18-.21.23a10.79,10.79,0,0,1-1.27.64,15.05,15.05,0,0,1-3.14,1.12,7.06,7.06,0,0,1-2.33.23.45.45,0,0,0-.49.21c-.19.28-.18.33-.4.2a1.08,1.08,0,0,0-.46-.09,2,2,0,0,1-.6-.15A3.79,3.79,0,0,0,178.17,222.37Z"/><path class="cls-1" d="M228.44,111.38c-.11.05,0,.62,0,1a19.69,19.69,0,0,1,.39,2.44.42.42,0,0,0,.39.45c.26,0,.32.16.46.4-.57-.12-.64.19-.57.6.09.59.19,1.17.29,1.79.38-.12.06-.54.42-.59s-.3.78.44.62c-.31-.27-.25-.66-.36-1,0-.09-.07-.24,0-.26.92-.7.31-1.6.33-2.41l-.07-.14c-.32,0-.58-.09-.64-.54l.41,0c0-.14-.08-.28-.11-.42s0-.15-.05-.21a.14.14,0,0,1,0-.11,3,3,0,0,1,0-.67,4.19,4.19,0,0,1,.12-.79,2.22,2.22,0,0,0-.73-1.86.45.45,0,0,1-.1-.24c.61-.38.17-.73,0-1.11,0-.1.15-.15.26-.2-1,.15-1.08.18-.54,1,.2.33-.58.55,0,.79C228.27,110.3,229.32,111,228.44,111.38Zm.3,1c.11-.53.69-.07,1-.36-.15.3-.06.78-.59.73C228.88,112.74,228.7,112.58,228.74,112.39Z"/><path class="cls-1" d="M228.44,103.38c-.11.05,0,.62,0,1a19.69,19.69,0,0,1,.39,2.44.42.42,0,0,0,.39.45c.26,0,.32.16.46.4-.57-.12-.64.19-.57.6.09.59.19,1.17.29,1.79.38-.12.06-.54.42-.59s-.3.78.44.62c-.31-.27-.25-.66-.36-1,0-.09-.07-.24,0-.26.92-.7.31-1.6.33-2.41l-.07-.14c-.32,0-.58-.09-.64-.54l.41,0c0-.14-.08-.28-.11-.42s0-.15-.05-.21a.14.14,0,0,1,0-.11,3,3,0,0,1,0-.67,4.19,4.19,0,0,1,.12-.79,2.22,2.22,0,0,0-.73-1.86.45.45,0,0,1-.1-.24c.61-.38.17-.73,0-1.11,0-.1.15-.15.26-.2-1,.15-1.08.18-.54,1,.2.33-.58.55,0,.79C228.27,102.3,229.32,103,228.44,103.38Zm.3,1c.11-.53.69-.07,1-.36-.15.3-.06.78-.59.73C228.88,104.74,228.7,104.58,228.74,104.39Z"/><path class="cls-1" d="M163.12,229a7.94,7.94,0,0,0,3.06-1.36c.06.15.11.37.27.42.45.14.13-.43.51-.54.72-.2,1.47,0,2.14-.53a1.16,1.16,0,0,0,.08.42c0,.08,0,.39.21.19s.36,0,.29-.36.4-.72.66-.49.43.08.5-.13.22-.2.35-.28c.92-.58,1.84-1.16,2.75-1.76.28-.18.57-.36.62-.71a2.68,2.68,0,0,0,.9-.35,4.27,4.27,0,0,0,1.56-.1c.17-.05.35-.14.52-.21l.13,0a.2.2,0,0,0,.18.11c.64.05.09.55.25.77-.24.15-.5.44-.71.43-.4,0,.1-.33,0-.43s.07-.55-.24-.48a.35.35,0,0,0-.24.55s0,.13,0,.19c0,.21,0,.46-.18.56s-.42.26-.55-.05-.23-.13-.31,0c-.28.49-.45,1.11-1.17,1a4.59,4.59,0,0,1-2.52,1.26,4,4,0,0,0-1.17.36,3.85,3.85,0,0,1-1.78.7c-.34.08-.62.25-.78-.18-.05-.13-.21-.12-.34-.05a.23.23,0,0,0-.15.28c0,.13.24.33-.11.38s-.42.43-.6.07c-.1-.17-.29-.18-.36,0-.29.66-.82.41-1.23.56-.16,0-.33,0-.36.24s.1.22.22.26l.17.08c-.88,0-1.76,0-2.64,0a1.37,1.37,0,0,0-.95-.3,1.57,1.57,0,0,1-.89-.14A17.43,17.43,0,0,0,163.12,229Z"/><path class="cls-1" d="M230.11,107.49c.33-.76,1-1.26,1.32-2.08a1.23,1.23,0,0,1,1.18-.85c.59,0,.48-.69.85-.93.08,0-.08-.11-.14-.15-.67-.48-.68-.78-.06-1.41a.26.26,0,0,0,.05-.31c-.26-.05-.3.44-.67.26-.19-.1-.56.22-.62-.25,0-.3-.22-.66.25-.82.15,0,.32-.22.08-.32-.67-.31-.36-.88-.3-1.29s0-1,.66-1a.22.22,0,0,0,0-.4c-.32-.3-.13-.71.35-.76.23,0,.5,0,.53-.27s-.36-.13-.56-.36c.35-.24.44-.78,1-.66.2,0,.32-.32.24-.37-.49-.31,0-.38.1-.53s.41-.46.6-.71.44-.56.71-.57c1.25,0,1.45-1.2,2.09-1.88.25-.27.4-.63.89-.54.29.06.28-.17.24-.39s-.11-.69.29-.9c.12-.06.13-.23.1-.36-.18-.76.63-1.12.71-1.78,0-.15.25-.08.33,0s.38.41.12.56-.2.44-.2.68.17.61-.25.79c-.11,0-.13.27,0,.41a.53.53,0,0,1,0,.68.7.7,0,0,0-.18.94c.19.39.1.73-.46.46a.35.35,0,0,0,.21.48c.75.25.61.81.5,1.36,0,.12-.12.23,0,.35.85.6.37,1.56.57,2.33.07.28-.64,0-.55.44,0,.22.52.27.36.67-.28.65.15,1.49-.55,2,0,0,0,.12,0,.12.44.21.34.57.21.9a6.53,6.53,0,0,1-1.25,1.9.82.82,0,0,1-.77.21c-.41-.22-.57,0-.73.27-.07.13-.28.2-.21.38s.27,0,.41,0l.26,0a.35.35,0,0,1-.24.3c-1.14.28-2.19.84-3.35,1.07-.21,0-.2.09-.29-.15a.34.34,0,0,0-.65,0,3.4,3.4,0,0,1-2.6,2.19c-.13,0-.18.24-.35.23.12.31.55.06.57.4s-.31.51-.56.66"/><path class="cls-1" d="M29.45,109.6c-.25-.15-.59-.29-.56-.66s.45-.09.57-.4c-.17,0-.23-.19-.35-.23a3.43,3.43,0,0,1-2.61-2.19.33.33,0,0,0-.64,0c-.09.24-.08.19-.29.15-1.16-.23-2.21-.79-3.35-1.07a.33.33,0,0,1-.24-.3l.25,0c.14,0,.33.16.42,0s-.14-.25-.21-.38c-.17-.29-.32-.49-.73-.27a.81.81,0,0,1-.77-.21,6.56,6.56,0,0,1-1.26-1.9c-.12-.33-.23-.69.21-.9a.21.21,0,0,0,0-.12c-.71-.54-.28-1.38-.55-2-.16-.4.31-.45.36-.67.09-.4-.63-.16-.55-.44.2-.77-.28-1.73.56-2.33.16-.12.07-.23.05-.35-.11-.55-.25-1.11.5-1.36a.36.36,0,0,0,.21-.48c-.56.27-.65-.07-.46-.46A.71.71,0,0,0,19.8,92a.53.53,0,0,1,0-.68c.13-.14.11-.37,0-.41-.42-.18-.24-.5-.25-.79s.14-.49-.2-.68,0-.4.12-.56.3-.17.32,0c.09.66.9,1,.72,1.78a.3.3,0,0,0,.1.36c.4.21.36.55.29.9s-.05.45.24.39c.49-.09.63.27.89.54.64.68.84,1.84,2.09,1.88.27,0,.52.32.71.57a8,8,0,0,0,.6.71c.14.15.59.22.1.53-.09,0,0,.41.24.37.59-.12.68.42,1,.66-.19.23-.58,0-.55.36s.3.25.53.27c.48,0,.67.46.35.76s0,.39.05.4c.63.09.6.67.66,1s.37,1-.31,1.29c-.23.1-.06.27.08.32.48.16.3.52.26.82-.06.47-.44.15-.63.25-.36.18-.4-.31-.67-.26a.29.29,0,0,0,0,.31c.62.63.61.93,0,1.41-.07,0-.22.1-.14.15.37.24.25.94.85.93a1.24,1.24,0,0,1,1.18.85c.28.82,1,1.32,1.32,2.08"/></g></g></svg>