<svg xmlns="http://www.w3.org/2000/svg" viewBox="0 0 182.03 182.03"><defs><style>.cls-1{fill:#fff;}</style></defs><title>the_classics</title><g id="Layer_2" data-name="Layer 2"><g id="Layer_1-2" data-name="Layer 1"><path class="cls-1" d="M91,182a91,91,0,1,1,91-91A91.12,91.12,0,0,1,91,182ZM91,3.6A87.42,87.42,0,1,0,178.44,91,87.51,87.51,0,0,0,91,3.6Z"/><path class="cls-1" d="M165.77,60A82.14,82.14,0,0,0,16.26,60L13,58.51a85.74,85.74,0,0,1,156,0Z"/><path class="cls-1" d="M90.71,67.23a4.89,4.89,0,0,0,.09-.59,8.36,8.36,0,0,1-1.12.27,12.3,12.3,0,0,1-3.19.1c-.45,0-1.08-.12-1.88-.26s-1.63-.21-2.2-.26-1.16-.07-1.77-.07a11,11,0,0,0-6.91,1.92,6.12,6.12,0,0,0-2.4,5.1,2.4,2.4,0,0,0,.61,1.82,2.54,2.54,0,0,0,1.55.55,3.56,3.56,0,0,1-.15-.56,5.75,5.75,0,0,1-.07-1,6.56,6.56,0,0,1,1.38-4.56,5.56,5.56,0,0,1,4.29-1.52h.77l-4,18.76h3.37L83,68.68l.34.08c1,.22,1.88.38,2.54.48.34,0,.66.08,1,.1l.35-1.63Z"/><path class="cls-1" d="M87.64,70.07h-.25l-3.6,16.87h3.37L89.05,78A4.63,4.63,0,0,1,90,76.18a2.08,2.08,0,0,1,1.59-.94,1.26,1.26,0,0,1,1.06.51A2.09,2.09,0,0,1,93,77a8,8,0,0,1-.12,1.25c-.08.49-.25,1.25-.52,2.35s-.43,1.91-.51,2.41a7,7,0,0,0-.13,1.22,2.78,2.78,0,0,0,.78,2.09,3.06,3.06,0,0,0,2.22.76,3.79,3.79,0,0,0,2.82-1.2,5.57,5.57,0,0,0,.7-.86,5.63,5.63,0,0,1-.19-.76l-.17.2a2.08,2.08,0,0,1-1.46.57,1.47,1.47,0,0,1-1.11-.4,1.62,1.62,0,0,1-.38-1.14,5.71,5.71,0,0,1,.12-1c.08-.41.24-1.09.49-2.07.3-1.21.5-2.12.6-2.7a9,9,0,0,0,.15-1.49,2.9,2.9,0,0,0-.72-2.13,2.79,2.79,0,0,0-2.07-.72,3.68,3.68,0,0,0-1.63.36,4.73,4.73,0,0,0-1.43,1.11l-.88,1L91.18,68a3.16,3.16,0,0,1-.67,1A3.91,3.91,0,0,1,87.64,70.07Z"/><path class="cls-1" d="M87.54,69.37h.1A3.2,3.2,0,0,0,90,68.58a2.45,2.45,0,0,0,.44-.6l-2.69.36Z"/><path class="cls-1" d="M87.64,69.72h-.17l-.08.35h.25a3.91,3.91,0,0,0,2.87-1,3.16,3.16,0,0,0,.67-1l0-.17-.37,0a2.6,2.6,0,0,1-.59.91A3.52,3.52,0,0,1,87.64,69.72Z"/><path class="cls-1" d="M87.64,69.37h-.1l-.07.35h.17a3.52,3.52,0,0,0,2.62-.89,2.6,2.6,0,0,0,.59-.91l-.4.06a2.45,2.45,0,0,1-.44.6A3.2,3.2,0,0,1,87.64,69.37Z"/><path class="cls-1" d="M100.27,82.33A13.83,13.83,0,0,1,99,85.13a3.19,3.19,0,0,0,.62,1,4.17,4.17,0,0,0,3.06,1,7.08,7.08,0,0,0,4-1.23,11.65,11.65,0,0,0,3.13-3.31h-.17a10.25,10.25,0,0,1-2.55,2.21,5.47,5.47,0,0,1-2.62.65,2.28,2.28,0,0,1-1.87-.67,3.21,3.21,0,0,1-.52-2.06c0-.12,0-.26,0-.43l.07-1h.31a6.87,6.87,0,0,0,4.37-1.8,5,5,0,0,0,1.81-3.83A2.22,2.22,0,0,0,108,73.8a3.28,3.28,0,0,0-2.11-.58,6,6,0,0,0-3.1.81,7.2,7.2,0,0,0-2.39,2.45,13.18,13.18,0,0,0-1.32,3.14,15,15,0,0,0-.43,2.25h1.78Zm2.1-2.19a14.21,14.21,0,0,1,1.5-4.23c.72-1.27,1.46-1.89,2.24-1.89a.93.93,0,0,1,.84.45,2.07,2.07,0,0,1,.22,1.06,5,5,0,0,1-1.32,3.39,4.46,4.46,0,0,1-3.11,1.64l-.46,0Z"/><path class="cls-1" d="M99.44,82.57H99c-.13.29-.26.55-.38.79a5.5,5.5,0,0,0,.1.85A14.06,14.06,0,0,0,99.44,82.57Z"/><path class="cls-1" d="M99.94,82.22a14.21,14.21,0,0,1-1.12,2.49,4.09,4.09,0,0,0,.16.42,13.83,13.83,0,0,0,1.29-2.8l.16-.46H98.65c0,.23,0,.45-.05.68l.15-.33Z"/><path class="cls-1" d="M99.44,82.57a14.06,14.06,0,0,1-.74,1.64,3.66,3.66,0,0,0,.12.5,14.21,14.21,0,0,0,1.12-2.49H98.75l-.15.33c0,.13,0,.27,0,.41s0,.27,0,.4c.12-.24.25-.5.38-.79Z"/><path class="cls-1" d="M61.45,107.53a7.57,7.57,0,0,1-1.67,1.19,7.07,7.07,0,0,1-3.23.79,3.44,3.44,0,0,1-2.86-1.17,5.75,5.75,0,0,1-.89-3.6,22.35,22.35,0,0,1,.34-3.81,24.81,24.81,0,0,1,1-3.84A14.15,14.15,0,0,1,56.3,92.8,3.65,3.65,0,0,1,59,91.16a1.92,1.92,0,0,1,2.08,2.08A3.8,3.8,0,0,1,60.68,95a3.08,3.08,0,0,1-.67.92,2.07,2.07,0,0,0,.32.19,1.86,1.86,0,0,0,.75.15,1.38,1.38,0,0,0,1.19-.53A2.84,2.84,0,0,0,62.71,94a3,3,0,0,0-1.1-2.54,5.19,5.19,0,0,0-3.28-.9,7.15,7.15,0,0,0-4.15,1.28A10.5,10.5,0,0,0,51,95.61a19.19,19.19,0,0,0-1.61,4.48,21.22,21.22,0,0,0-.59,4.82c0,2.34.46,4,1.37,5.08s2.41,1.54,4.49,1.54a8.67,8.67,0,0,0,4.64-1.38,7.62,7.62,0,0,0,2.12-1.9v0A5.44,5.44,0,0,1,61.45,107.53Z"/><path class="cls-1" d="M67,109.2a1.66,1.66,0,0,1-1.13-.33,1.39,1.39,0,0,1-.38-1.07,3.91,3.91,0,0,1,0-.49c0-.15,0-.31.09-.49L68.76,92l-3.45.46L62.4,106.09l.77.33-.12.32a8.21,8.21,0,0,1-.93,1.73,3.13,3.13,0,0,0,.71,2,2.49,2.49,0,0,0,2,.78A4.86,4.86,0,0,0,68.07,110a4.25,4.25,0,0,0,.48-.47,7.74,7.74,0,0,1-.24-.77A2.24,2.24,0,0,1,67,109.2Z"/><path class="cls-1" d="M62.26,106.79v0l0,0Z"/><path class="cls-1" d="M63.17,106.42l-.77-.33-.07.34h0l.39.17a7.67,7.67,0,0,1-.6,1.22c0,.13,0,.25,0,.37a2.44,2.44,0,0,0,0,.27,8.21,8.21,0,0,0,.93-1.73Z"/><path class="cls-1" d="M62.33,106.44c0,.12,0,.23-.07.35h0l0,0c0,.2-.07.39-.09.57s0,.29,0,.43a7.67,7.67,0,0,0,.6-1.22Z"/><path class="cls-1" d="M81.45,109.37a1.49,1.49,0,0,1-1.13-.41,1.62,1.62,0,0,1-.38-1.16,3.91,3.91,0,0,1,0-.49c0-.15,0-.31.09-.49l2-9.21H78.65l-1,4.56v-.09l-.92,4.35a3.86,3.86,0,0,1-1,1.95,2.36,2.36,0,0,1-1.68.82,1.51,1.51,0,0,1-1.41-.73,3.79,3.79,0,0,1-.35-1.83,12.64,12.64,0,0,1,1.23-5.31c.86-1.86,1.9-2.8,3.08-2.8a1.48,1.48,0,0,1,1.07.39v-.36a.88.88,0,0,0-.43-.77,2.94,2.94,0,0,0-1.52-.32,5.23,5.23,0,0,0-2.84.83,7.89,7.89,0,0,0-2.33,2.46,12.67,12.67,0,0,0-1.29,3,12.13,12.13,0,0,0-.47,3.23s0,.08,0,.12a5.42,5.42,0,0,0,.39-.91l.07-.24h1.94l-.16.46a10.66,10.66,0,0,1-1.69,3.17,3.43,3.43,0,0,0,.37.54,3,3,0,0,0,2.49,1.07,4,4,0,0,0,2.1-.6,6.13,6.13,0,0,0,1.83-1.86l.55-.81.09,1a2.53,2.53,0,0,0,.73,1.7,2.33,2.33,0,0,0,1.7.59A4.43,4.43,0,0,0,82.35,110c.14-.13.28-.28.42-.43a3.19,3.19,0,0,1-.21-.59A1.9,1.9,0,0,1,81.45,109.37Z"/><path class="cls-1" d="M69.8,106.7a4.39,4.39,0,0,1-.88,1.51,6.22,6.22,0,0,0,.15.68,10.22,10.22,0,0,0,1.17-2.19Z"/><path class="cls-1" d="M71.23,106H69.29l-.07.24a5.42,5.42,0,0,1-.39.91,5.35,5.35,0,0,0,0,.58,4.63,4.63,0,0,0,.69-1.39h1.19a10.28,10.28,0,0,1-1.53,2.94,3.78,3.78,0,0,0,.17.35,10.66,10.66,0,0,0,1.69-3.17Z"/><path class="cls-1" d="M69.55,106.35a4.63,4.63,0,0,1-.69,1.39,3.35,3.35,0,0,0,.06.47,4.39,4.39,0,0,0,.88-1.51h.44a10.22,10.22,0,0,1-1.17,2.19c0,.14.09.27.14.4a10.28,10.28,0,0,0,1.53-2.94Z"/><polygon class="cls-1" points="83.93 106 83.93 106 83.93 106 83.93 106"/><path class="cls-1" d="M92.23,106.25c0-.16,0-.31,0-.47,0-.32-.06-.88-.12-1.67-.11-1.39-.21-2.68-.28-3.82s-.13-2.24-.18-3.51l-3.6.49c-.54,1.72-1.09,3.24-1.63,4.5a40.62,40.62,0,0,1-1.81,3.74l-.06.09-.1.05A2,2,0,0,0,84,106l0,.05h1.44l-.16.46c-.12.32-.24.62-.36.91h.14a.76.76,0,0,0,.61-.3,1.09,1.09,0,0,0,.28-.74.69.69,0,0,0-.11-.4.75.75,0,0,0-.33-.27l-.34-.15.17-.33c.58-1.1,1-2.08,1.39-2.9s.64-1.64.88-2.4l.55-1.73.14,1.81c0,.78.11,1.5.17,2.18s.13,1.47.22,2.34c.06.66.1,1.12.12,1.39s0,.57,0,.83a3.1,3.1,0,0,1-.75,2.2,2.76,2.76,0,0,1-2.07.79,2,2,0,0,1-1.58-.59,1.46,1.46,0,0,1-.22-.33,8.47,8.47,0,0,1-.6.88,3.16,3.16,0,0,0,.53.64,4,4,0,0,0,2.78.94,6.76,6.76,0,0,0,2.37-.42,4.65,4.65,0,0,0,1.82-1.17l.08-.06.75-.48a4.26,4.26,0,0,1-.16-1.15A3.4,3.4,0,0,1,92.23,106.25Z"/><path class="cls-1" d="M84.34,106.7l0,.11a.49.49,0,0,0,0-.11Z"/><path class="cls-1" d="M83.93,107.37v-.47a5.26,5.26,0,0,1-.77,1.5,3.15,3.15,0,0,0,.11.55A9,9,0,0,0,84,107.8C83.94,107.66,83.93,107.52,83.93,107.37Z"/><path class="cls-1" d="M84.93,106.35a8.78,8.78,0,0,1-.33.87.21.21,0,0,0,.12.11.53.53,0,0,0,.19,0c.12-.29.24-.59.36-.91l.16-.46H84l.18.34Z"/><path class="cls-1" d="M84.05,108.36a9.19,9.19,0,0,1-.63,1,2.17,2.17,0,0,0,.19.33,8.47,8.47,0,0,0,.6-.88A1.82,1.82,0,0,1,84.05,108.36Z"/><path class="cls-1" d="M83.93,106.35V106h0a2,2,0,0,0-.42.54,2.72,2.72,0,0,0-.37,1.25,5.6,5.6,0,0,0,.6-1.45Z"/><path class="cls-1" d="M84.43,106.7a.49.49,0,0,1,0,.11l.21.41h0a8.78,8.78,0,0,0,.33-.87h-.76l.17.35Z"/><path class="cls-1" d="M84,107.8a9,9,0,0,1-.68,1.15,2.62,2.62,0,0,0,.15.39,9.19,9.19,0,0,0,.63-1A3.1,3.1,0,0,1,84,107.8Z"/><path class="cls-1" d="M83.93,106.35h-.19a5.6,5.6,0,0,1-.6,1.45c0,.06,0,.11,0,.17a3,3,0,0,0,0,.43,5.26,5.26,0,0,0,.77-1.5Z"/><path class="cls-1" d="M103.36,107.18l-.24.17c-.36.25-.74.49-1.12.72l-.72.44.2-.82c0-.14.06-.28.08-.44a4.7,4.7,0,0,0,0-.56c0-.28,0-.59,0-.91s-.06-.88-.12-1.67c-.11-1.39-.21-2.68-.28-3.82s-.13-2.24-.18-3.51l-3.6.49c-.54,1.72-1.09,3.24-1.63,4.5a40.62,40.62,0,0,1-1.81,3.74l-.06.09-.1.05a2,2,0,0,0-.46.31l.31.63a7.81,7.81,0,0,0,.65-.5l.1-.08h.83l0-.06a.75.75,0,0,0-.33-.27l-.34-.15.17-.33c.58-1.1,1-2.08,1.39-2.9s.64-1.64.88-2.4l.55-1.73.14,1.81c0,.78.11,1.5.17,2.18s.13,1.47.22,2.34c.06.66.1,1.12.12,1.39s0,.57,0,.83a3.1,3.1,0,0,1-.75,2.2,2.76,2.76,0,0,1-2.07.79,2,2,0,0,1-1.58-.59,1.87,1.87,0,0,1-.2-.29c-.25.19-.51.38-.78.56a3,3,0,0,0,.69.92,4,4,0,0,0,2.78.94,6.76,6.76,0,0,0,2.37-.42,4.65,4.65,0,0,0,1.82-1.17l.08-.06a20.13,20.13,0,0,0,2.35-1.63l.43-.37c0-.09,0-.18,0-.28A.68.68,0,0,0,103.36,107.18Z"/><path class="cls-1" d="M92.92,107.08l.36-.24V106a2.26,2.26,0,0,0-.35.44v.25C92.93,106.83,92.93,107,92.92,107.08Z"/><path class="cls-1" d="M94.07,107.33a.53.53,0,0,0,.15,0c.24-.22.47-.44.69-.68h-.27c-.21.17-.44.35-.69.53A.25.25,0,0,0,94.07,107.33Z"/><path class="cls-1" d="M93.29,107.67l-.64.4-.16.1a3.33,3.33,0,0,0,.07.54c.27-.2.53-.39.78-.59C93.32,108,93.3,107.83,93.29,107.67Z"/><path class="cls-1" d="M93.28,106.84l-.36.24c0-.12,0-.25,0-.39v-.25l-.07.11a2.64,2.64,0,0,0-.37,1.21l.79-.51Z"/><path class="cls-1" d="M93.44,108.49q-.37.3-.78.57a2.52,2.52,0,0,0,.14.33c.27-.18.53-.37.78-.56A2,2,0,0,1,93.44,108.49Z"/><path class="cls-1" d="M94.51,106.35h.78a.74.74,0,0,0-.08-.34h-.83l-.1.08a7.81,7.81,0,0,1-.65.5l.16.32C94.06,106.72,94.3,106.53,94.51,106.35Z"/><path class="cls-1" d="M93.34,108.12c-.25.2-.51.39-.78.59a2,2,0,0,0,.1.35q.41-.27.78-.57A3.29,3.29,0,0,1,93.34,108.12Z"/><path class="cls-1" d="M94,107.23c.25-.18.48-.36.69-.53h.27c-.22.24-.45.46-.69.68h.18a.76.76,0,0,0,.61-.3,1.09,1.09,0,0,0,.28-.74h-.78c-.21.18-.45.37-.72.56l.16.31Z"/><path class="cls-1" d="M93.29,107.67c0-.09,0-.19,0-.3v-.12l-.79.51c0,.07,0,.14,0,.21s0,.13,0,.2l.16-.1Z"/><path class="cls-1" d="M108.88,109.2a1.66,1.66,0,0,1-1.13-.33,1.36,1.36,0,0,1-.39-1.07,2.63,2.63,0,0,1,0-.49c0-.15,0-.31.09-.49l2-9.21h-3.37l-1.78,8.4h1.52l-.49.57a15.51,15.51,0,0,1-1.33,1.36c0,.09,0,.18,0,.26a3.27,3.27,0,0,0,.72,2.27,2.51,2.51,0,0,0,2,.78A4.87,4.87,0,0,0,110,110c.16-.14.32-.3.47-.46a4.53,4.53,0,0,1-.26-.76A2.22,2.22,0,0,1,108.88,109.2Z"/><path class="cls-1" d="M108.59,91.57a1.75,1.75,0,0,0-1.33.57,1.89,1.89,0,0,0,1.33,3.24,1.86,1.86,0,0,0,1.36-.55,1.78,1.78,0,0,0,.56-1.34,1.93,1.93,0,0,0-1.92-1.92Z"/><path class="cls-1" d="M104.15,106.7l0,.14.14-.14Z"/><path class="cls-1" d="M105.32,106.58l.49-.57h-1.52l-.07.34h.83a14.66,14.66,0,0,1-1,1.07c0,.19,0,.36-.05.52A15.51,15.51,0,0,0,105.32,106.58Z"/><path class="cls-1" d="M105.05,106.35h-.83l0,.08c0,.09,0,.18,0,.27h.11l-.14.14c0,.19-.06.38-.08.56v0A14.66,14.66,0,0,0,105.05,106.35Z"/><path class="cls-1" d="M119.17,108.91a5.31,5.31,0,0,1-2.62.66,2.31,2.31,0,0,1-1.87-.67,3.23,3.23,0,0,1-.52-2.06,14.64,14.64,0,0,1,1.22-5.59c.86-2.08,1.76-3.09,2.76-3.09a1,1,0,0,1,.89.45,1.91,1.91,0,0,1,.25,1.06,4.41,4.41,0,0,1-.09.86,5.68,5.68,0,0,1-.17.65l.19.08a1.1,1.1,0,0,0,.38.07,1,1,0,0,0,.81-.41,2.24,2.24,0,0,0,.34-1.31,2,2,0,0,0-.67-1.67,3.26,3.26,0,0,0-2.13-.59,5.92,5.92,0,0,0-3.06.82,7.11,7.11,0,0,0-2.39,2.45,11.75,11.75,0,0,0-1.34,3.14,12.69,12.69,0,0,0-.48,3.33v.11a4.34,4.34,0,0,0,.42-1l.08-.24h1.94l-.16.46a10.67,10.67,0,0,1-1.7,3.17,2.86,2.86,0,0,0,.44.58,4.13,4.13,0,0,0,3,1,7.19,7.19,0,0,0,4-1.23,9.56,9.56,0,0,0,1.6-1.38,3.1,3.1,0,0,1-.05-.54A6.45,6.45,0,0,1,119.17,108.91Z"/><path class="cls-1" d="M111.68,106.7a4.59,4.59,0,0,1-.91,1.54,4.51,4.51,0,0,0,.16.68,9.66,9.66,0,0,0,1.18-2.22Z"/><path class="cls-1" d="M113.11,106h-1.94l-.08.24a4.34,4.34,0,0,1-.42,1c0,.21,0,.4,0,.58a4.46,4.46,0,0,0,.72-1.43h1.19a10.48,10.48,0,0,1-1.55,3c.06.12.12.24.18.34a10.67,10.67,0,0,0,1.7-3.17Z"/><path class="cls-1" d="M111.43,106.35a4.46,4.46,0,0,1-.72,1.43,3.2,3.2,0,0,0,.06.46,4.59,4.59,0,0,0,.91-1.54h.43a9.66,9.66,0,0,1-1.18,2.22c0,.13.09.26.14.38a10.48,10.48,0,0,0,1.55-3Z"/><polygon class="cls-1" points="121.81 106 121.81 106 121.81 106 121.81 106"/><path class="cls-1" d="M122.83,106.54q-.19.31-.39.6l0,.08a.25.25,0,0,0,.12.11.81.81,0,0,0,.33.06.76.76,0,0,0,.61-.3,1.1,1.1,0,0,0,.29-.74.7.7,0,0,0-.12-.4.75.75,0,0,0-.33-.27l-.34-.15.17-.33c.58-1.1,1.05-2.08,1.39-2.9s.64-1.64.89-2.4l.54-1.73.14,1.81c0,.78.11,1.5.17,2.18s.13,1.47.22,2.34c.06.66.1,1.12.12,1.39s0,.57,0,.83a3.06,3.06,0,0,1-.75,2.2,2.76,2.76,0,0,1-2.07.79,2,2,0,0,1-1.58-.59,2.2,2.2,0,0,1-.46-1.15c-.24.31-.48.61-.72.88a3,3,0,0,0,.89,1.46,4,4,0,0,0,2.78.94,6.76,6.76,0,0,0,2.37-.42,4.65,4.65,0,0,0,1.82-1.17l.08-.06a20.13,20.13,0,0,0,2.35-1.63,16.48,16.48,0,0,0,1.37-1.27h-.27a9.84,9.84,0,0,1-.87.65c-.36.25-.74.49-1.12.72l-.72.44.2-.82a2.87,2.87,0,0,0,.08-.44,4.5,4.5,0,0,0,0-.56c0-.28,0-.59,0-.91s-.06-.88-.12-1.67c-.11-1.39-.2-2.68-.28-3.82s-.13-2.24-.18-3.51l-3.59.49c-.55,1.72-1.1,3.24-1.63,4.5a40.64,40.64,0,0,1-1.82,3.74l0,.09-.11.05a2,2,0,0,0-.46.31l0,.05h1.29Z"/><path class="cls-1" d="M121.81,106.7h-.08c-.23.25-.44.49-.66.7a2.73,2.73,0,0,0,0,.5c.27-.34.53-.7.79-1.08Z"/><path class="cls-1" d="M122.53,106.35l-.27.43.18.36q.19-.28.39-.6l.33-.53h-1.29l.18.34Z"/><path class="cls-1" d="M121.81,106.35V106h0a2,2,0,0,0-.42.54v0l.19-.22Z"/><path class="cls-1" d="M121.82,107.43c-.26.35-.52.68-.78,1a2.85,2.85,0,0,0,.09.44c.24-.27.48-.57.72-.88A4.63,4.63,0,0,1,121.82,107.43Z"/><path class="cls-1" d="M121.81,107.37v-.55c-.26.38-.52.74-.79,1.08,0,0,0,0,0,.07a3.15,3.15,0,0,0,0,.44c.26-.3.52-.63.78-1C121.82,107.41,121.81,107.39,121.81,107.37Z"/><path class="cls-1" d="M121.73,106.7h.08v-.35h-.24l-.19.22a2.68,2.68,0,0,0-.31.83C121.29,107.19,121.5,107,121.73,106.7Z"/><path class="cls-1" d="M122.53,106.35h-.48l.21.43Z"/><path class="cls-1" d="M91.53,173.38a86,86,0,0,1-78-50.2l3.28-1.49a82.14,82.14,0,0,0,149.51,0l3.27,1.49A86,86,0,0,1,91.53,173.38Z"/><path class="cls-1" d="M8.82,62.19c13.64-.74,27.28-1.13,40.93-1.39,6.82-.17,13.64-.21,20.46-.3l20.46-.1,20.47.09c6.82.1,13.64.13,20.46.3,13.65.26,27.29.65,40.93,1.4-13.64.75-27.28,1.14-40.93,1.41-6.82.16-13.64.2-20.46.3L90.67,64l-20.46-.1c-6.82-.1-13.64-.13-20.46-.3C36.1,63.33,22.46,62.94,8.82,62.19Z"/><path class="cls-1" d="M8.82,118c13.73-.75,27.46-1.14,41.18-1.4,6.87-.17,13.73-.2,20.6-.3l20.59-.1,20.59.1c6.86.1,13.73.13,20.59.29,13.73.27,27.46.66,41.19,1.41-13.73.75-27.46,1.14-41.19,1.4-6.86.17-13.73.2-20.59.3l-20.59.09-20.59-.09c-6.87-.1-13.73-.14-20.6-.3C36.28,119.09,22.55,118.7,8.82,118Z"/><path class="cls-1" d="M78,35c0,.07,0,.11-.14.11l-.41,0c-.13,0-.15-.05-.15-.17.06-.74-.15-2.88-2-2.88a1.6,1.6,0,0,0-1.53,1.63c0,1.25.85,1.85,1.7,2.71s2.11,1.89,2.11,4a3.57,3.57,0,0,1-3.9,3.64,3.38,3.38,0,0,1-2.56-1.3.34.34,0,0,0-.5-.07,4.64,4.64,0,0,0-.48.7c0,.08-.07.11-.18.06l-.24-.09c-.09,0-.11-.06-.08-.19l1.37-4c0-.09.09-.09.17-.07l.41.07s.09.07.07.19c-.33,2.55.91,3.8,2.07,3.8a1.76,1.76,0,0,0,1.83-1.79c0-1.11-.9-1.83-1.72-2.72-1.14-1.26-2.18-2.24-2.18-4.25a3.41,3.41,0,0,1,3.7-3.26,4,4,0,0,1,2.18.84.45.45,0,0,0,.26,0c.11,0,.22-.22.29-.61,0,0,.06-.07.19,0h.24c.11,0,.15.06.13.13Z"/><path class="cls-1" d="M83.57,41.87c.06.05.07.09,0,.18A4.33,4.33,0,0,1,80,44c-.55,0-.72-.28-.72-.56A23.44,23.44,0,0,1,80.35,40l.5-1.46a3.81,3.81,0,0,0,.28-1,.23.23,0,0,0-.24-.24c-.3,0-1.13.94-1.35,1.23-.08.08-.15.08-.2,0l-.17-.16c-.06-.06-.09-.13-.06-.17s1.58-2.27,3.55-2.27c.58,0,.82.29.82.66a8.3,8.3,0,0,1-.59,2l-1,2.82a4,4,0,0,0-.3,1.13.23.23,0,0,0,.24.26c.37,0,1.26-1,1.37-1.14a.1.1,0,0,1,.15,0Zm.55-9.06A1.34,1.34,0,0,1,82.85,34a1.07,1.07,0,0,1-1.18-1.13,1.17,1.17,0,0,1,1.14-1.13C83.7,31.77,84.12,32.23,84.12,32.81Z"/><path class="cls-1" d="M84.62,43.79c-.13,0-.2-.09-.16-.2L85.73,40a19.51,19.51,0,0,0,.84-2.61c0-.18-.1-.3-.24-.3s-1,.73-1.24,1c-.06.06-.13.08-.19,0l-.18-.2c-.08-.06-.08-.11,0-.19a4.37,4.37,0,0,1,3.36-1.86.69.69,0,0,1,.74.72,12.23,12.23,0,0,1-.88,2.4l.16.13c.56-.81,2.09-3.25,3.92-3.25a1.22,1.22,0,0,1,1.19,1.23,15.88,15.88,0,0,1-1.08,3.46,9.75,9.75,0,0,0-.59,1.89c0,.22.09.31.24.31s.83-.57,1-.79A.1.1,0,0,1,93,42l.17.15a.16.16,0,0,1,0,.22A4.15,4.15,0,0,1,90,44a.66.66,0,0,1-.74-.71,19.75,19.75,0,0,1,1-3.07A15.38,15.38,0,0,0,91,37.78c0-.29-.14-.41-.37-.41-.42,0-1.79,1.48-2.53,2.69a12.57,12.57,0,0,0-.91,1.55l-.72,2.07c0,.07-.07.11-.27.11Z"/><path class="cls-1" d="M99.16,42.18c.06,0,.09.1,0,.21A4.14,4.14,0,0,1,96.13,44a1.92,1.92,0,0,1-1.85-2.06c0-2.22,1.94-6,4.62-6,1.09,0,1.44.68,1.44,1A1.07,1.07,0,0,1,99.51,38a.67.67,0,0,1-.74-.49c-.09-.31-.28-.59-.59-.59s-.55.45-.89,1.24a7.7,7.7,0,0,0-.74,3.42c0,.58.1,1.17.71,1.17a2.56,2.56,0,0,0,1.51-.67c.06-.07.11-.11.17-.07Z"/><path class="cls-1" d="M106.06,41.94a.14.14,0,0,1,0,.19A4.29,4.29,0,0,1,102.56,44a2,2,0,0,1-2.16-2.07,6.36,6.36,0,0,1,2.24-4.72,4.86,4.86,0,0,1,3.09-1.29c1,0,1.44.57,1.44,1.27a2.76,2.76,0,0,1-1.68,2.41,6.74,6.74,0,0,1-2.72.81,3.57,3.57,0,0,0-.15,1.16,1.08,1.08,0,0,0,1,1.21,2.73,2.73,0,0,0,2-1s.09-.09.14,0Zm-1.46-3a2.33,2.33,0,0,0,.59-1.52c0-.3-.07-.63-.5-.63-.7,0-1.5,1.68-1.77,2.88A2.83,2.83,0,0,0,104.6,39Z"/><path class="cls-1" d="M76.32,149.22c0,.11,0,.11-.17.11l-2.9-.05c-.65,0-3,.05-3.11.05a.09.09,0,0,1-.09-.12l.11-.47c0-.11.08-.13.22-.13h.47c.64,0,1.23,0,1.72-1.53l1.75-5.4a8,8,0,0,0,.46-1.57.27.27,0,0,0-.29-.26,3.44,3.44,0,0,0-.69.15l-1.14.33a.11.11,0,0,1-.15-.06l-.17-.33a.11.11,0,0,1,.06-.18L77,137.63a2,2,0,0,1,.81-.28.26.26,0,0,1,.28.28A1.35,1.35,0,0,1,78,138c-.06.14-1.1,3.05-1.47,4.19L75.62,145l-.87,2.76c-.17.57-.08.88.53.88h1c.13,0,.15.08.13.19Z"/><path class="cls-1" d="M79.39,147c0-2,2.24-2.9,3.24-3.38-.74-.76-1.78-1.72-1.78-2.94,0-1.48,1.18-3.35,4.31-3.35,1.94,0,3,1,3,2.33,0,1.85-2.31,3-3.16,3.37a4.08,4.08,0,0,1,1.72,3c0,1.91-1.57,3.52-4.1,3.52C79.93,149.56,79.39,147.86,79.39,147Zm5.22-.09c0-1.26-.58-1.89-1.58-2.81a3,3,0,0,0-1.75,2.94,1.62,1.62,0,0,0,1.53,1.83A1.8,1.8,0,0,0,84.61,146.93ZM82.9,140c0,.9.74,1.6,1.67,2.57a3.06,3.06,0,0,0,1.79-2.8,1.6,1.6,0,0,0-1.64-1.72A1.75,1.75,0,0,0,82.9,140Z"/><path class="cls-1" d="M88.8,145.91c0-3.66,2.08-8.56,5.75-8.56,2,0,2.72,1.33,2.72,3.26,0,4.1-2.12,8.95-5.64,8.95C89.51,149.56,88.8,147.89,88.8,145.91Zm6.62-6.38c0-.85-.16-1.23-.85-1.29-1.79,0-3.92,7-3.92,9.12,0,.75.23,1.33.93,1.33C93.32,148.69,95.42,141.33,95.42,139.53Z"/><path class="cls-1" d="M98,146.08c0-4,3.84-7.49,7.19-8.62a2.12,2.12,0,0,1,.54-.11c.14,0,.27.17.27.39a.44.44,0,0,1-.25.41,9.33,9.33,0,0,0-4.52,4.21l.11.11a4.09,4.09,0,0,1,2-.48,2.47,2.47,0,0,1,2.55,2.61,4.78,4.78,0,0,1-4.55,5C99.11,149.56,98,148.17,98,146.08Zm5.51-1.83a1.27,1.27,0,0,0-1.17-1.37,1.57,1.57,0,0,0-1.33.59,7,7,0,0,0-.85,3.48c0,1.07.26,1.89,1.18,1.89C102.8,148.84,103.54,146,103.49,144.25Z"/></g></g></svg>